# Blender 5.0.1
# www.blender.org
mtllib Torre.mtl
o Círculo
v 0.000000 0.000000 0.323616
v 0.063134 0.000000 0.317398
v 0.123842 0.000000 0.298982
v 0.179791 0.000000 0.269077
v 0.228831 0.000000 0.228831
v 0.269077 0.000000 0.179791
v 0.298982 0.000000 0.123842
v 0.317398 0.000000 0.063134
v 0.323616 0.000000 0.000000
v 0.317398 0.000000 -0.063134
v 0.298982 0.000000 -0.123842
v 0.269077 0.000000 -0.179791
v 0.228831 0.000000 -0.228831
v 0.179791 0.000000 -0.269077
v 0.123842 0.000000 -0.298982
v 0.063134 0.000000 -0.317398
v 0.000000 0.000000 -0.323616
v -0.063134 0.000000 -0.317398
v -0.123842 0.000000 -0.298982
v -0.179791 0.000000 -0.269077
v -0.228831 0.000000 -0.228831
v -0.269077 0.000000 -0.179791
v -0.298982 0.000000 -0.123842
v -0.317398 0.000000 -0.063134
v -0.323616 0.000000 0.000000
v -0.317398 0.000000 0.063134
v -0.298982 0.000000 0.123842
v -0.269077 0.000000 0.179791
v -0.228831 0.000000 0.228831
v -0.179791 0.000000 0.269077
v -0.123842 0.000000 0.298982
v -0.063134 0.000000 0.317398
v 0.000000 0.000000 0.340489
v 0.066426 0.000000 0.333947
v 0.130300 0.000000 0.314571
v 0.189166 0.000000 0.283107
v 0.240762 0.000000 0.240762
v 0.283107 0.000000 0.189166
v 0.314571 0.000000 0.130300
v 0.333947 0.000000 0.066426
v 0.340489 0.000000 0.000000
v 0.333947 0.000000 -0.066426
v 0.314571 0.000000 -0.130300
v 0.283107 0.000000 -0.189166
v 0.240762 0.000000 -0.240762
v 0.189166 0.000000 -0.283107
v 0.130300 0.000000 -0.314571
v 0.066426 0.000000 -0.333947
v 0.000000 0.000000 -0.340489
v -0.066426 0.000000 -0.333947
v -0.130300 0.000000 -0.314571
v -0.189166 0.000000 -0.283107
v -0.240762 0.000000 -0.240762
v -0.283107 0.000000 -0.189166
v -0.314571 0.000000 -0.130300
v -0.333947 0.000000 -0.066426
v -0.340489 0.000000 0.000000
v -0.333947 0.000000 0.066426
v -0.314571 0.000000 0.130300
v -0.283107 0.000000 0.189166
v -0.240762 0.000000 0.240762
v -0.189166 0.000000 0.283107
v -0.130300 0.000000 0.314571
v -0.066426 0.000000 0.333947
v 0.007164 0.201058 0.345280
v 0.071623 0.201583 0.338364
v 0.133499 0.201694 0.319011
v 0.190389 0.199207 0.282403
v 0.240150 0.198894 0.240846
v 0.274201 0.191713 0.183717
v 0.304763 0.191713 0.126540
v 0.323583 0.191713 0.064500
v 0.329937 0.191713 -0.000020
v 0.323583 0.191713 -0.064540
v 0.304763 0.191713 -0.126580
v 0.274201 0.191713 -0.183757
v 0.233073 0.191713 -0.233872
v 0.182957 0.191713 -0.275001
v 0.125780 0.191713 -0.305563
v 0.063740 0.191713 -0.324383
v 0.001514 0.184289 -0.321529
v -0.062855 0.180096 -0.308899
v -0.124731 0.179985 -0.289546
v -0.181645 0.180290 -0.258500
v -0.231410 0.181001 -0.216953
v -0.272114 0.182090 -0.166503
v -0.302192 0.183515 -0.109088
v -0.320488 0.185221 -0.046915
v -0.326300 0.187144 0.017627
v -0.319404 0.189208 0.082058
v -0.300064 0.191335 0.143902
v -0.269025 0.193444 0.200782
v -0.227479 0.195452 0.250512
v -0.177023 0.197283 0.291181
v -0.119595 0.198866 0.321227
v -0.057403 0.200141 0.339494
v -0.000799 0.196278 0.318738
v 0.061388 0.196278 0.312613
v 0.121185 0.196278 0.294474
v 0.183615 0.205569 0.277943
v 0.231581 0.204884 0.237899
v 0.264239 0.196278 0.177072
v 0.293695 0.196278 0.121963
v 0.311835 0.196278 0.062166
v 0.317959 0.196278 -0.000020
v 0.311835 0.196278 -0.062207
v 0.293695 0.196278 -0.122004
v 0.264239 0.196278 -0.177113
v 0.224597 0.196278 -0.225416
v 0.176294 0.196278 -0.265058
v 0.121185 0.196278 -0.294514
v 0.061388 0.196278 -0.312654
v 0.001634 0.185552 -0.304003
v -0.060494 0.185047 -0.297337
v -0.122782 0.196278 -0.294514
v -0.177891 0.196278 -0.265058
v -0.226195 0.196278 -0.225416
v -0.265836 0.196278 -0.177113
v -0.295293 0.196278 -0.122004
v -0.313432 0.196278 -0.062207
v -0.319557 0.196278 -0.000020
v -0.313432 0.196278 0.062166
v -0.295293 0.196278 0.121963
v -0.265836 0.196278 0.177072
v -0.226195 0.196278 0.225376
v -0.177891 0.196278 0.265017
v -0.122782 0.196278 0.294474
v -0.062985 0.196278 0.312613
v 0.006992 0.205250 0.333186
v 0.069121 0.205756 0.326520
v 0.128759 0.205864 0.307867
v 0.183590 0.203485 0.272423
v 0.224597 0.194748 0.219796
v 0.264239 0.196278 0.177072
v 0.293695 0.196278 0.121963
v 0.311835 0.196278 0.062166
v 0.317959 0.196278 -0.000020
v 0.311835 0.196278 -0.062207
v 0.293695 0.196278 -0.122004
v 0.264239 0.196278 -0.177113
v 0.224597 0.196278 -0.225416
v 0.176294 0.196278 -0.265058
v 0.121185 0.196278 -0.294514
v 0.063778 0.189931 -0.304090
v 0.001545 0.189106 -0.309669
v -0.060583 0.188542 -0.303002
v -0.120133 0.184939 -0.278684
v -0.174989 0.185233 -0.248760
v -0.222954 0.185918 -0.208716
v -0.262186 0.186968 -0.160090
v -0.291176 0.188341 -0.104752
v -0.308811 0.189986 -0.044827
v -0.314412 0.191839 0.017382
v -0.307766 0.193829 0.079483
v -0.289126 0.195879 0.139090
v -0.259209 0.197911 0.193913
v -0.219166 0.199847 0.241845
v -0.170534 0.201611 0.281043
v -0.115183 0.203137 0.310002
v -0.055239 0.204366 0.327609
v 0.006294 0.231617 0.299841
v 0.062064 0.229842 0.288604
v 0.115617 0.230096 0.271849
v 0.164874 0.230087 0.244971
v 0.207973 0.231288 0.214274
v 0.237091 0.223665 0.159004
v 0.263543 0.223665 0.109517
v 0.279831 0.223665 0.055820
v 0.285332 0.223665 -0.000023
v 0.279831 0.223665 -0.055866
v 0.263543 0.223665 -0.109563
v 0.237091 0.223665 -0.159051
v 0.201493 0.223665 -0.202427
v 0.158117 0.223665 -0.238024
v 0.108630 0.223665 -0.264476
v 0.054933 0.223665 -0.280765
v 0.001400 0.217175 -0.277742
v -0.054391 0.216668 -0.271755
v -0.107944 0.216414 -0.255000
v -0.157201 0.216423 -0.228123
v -0.200195 0.214257 -0.186782
v -0.235425 0.215200 -0.143116
v -0.261458 0.216433 -0.093423
v -0.277294 0.217910 -0.039611
v -0.282324 0.219574 0.016252
v -0.276355 0.221361 0.072018
v -0.259617 0.223202 0.125545
v -0.232752 0.225027 0.174775
v -0.196793 0.226765 0.217817
v -0.153122 0.228349 0.253017
v -0.103418 0.229720 0.279022
v -0.049589 0.230823 0.294832
v 0.005334 0.274377 0.265935
v 0.055726 0.274835 0.260526
v 0.104098 0.275065 0.245393
v 0.142545 0.269311 0.214945
v 0.181724 0.269311 0.182792
v 0.213877 0.269311 0.143613
v 0.237770 0.269311 0.098913
v 0.252482 0.269311 0.050412
v 0.257450 0.269311 -0.000028
v 0.252482 0.269311 -0.050468
v 0.237770 0.269311 -0.098969
v 0.213877 0.269311 -0.143668
v 0.181724 0.269311 -0.182848
v 0.142545 0.269311 -0.215001
v 0.097846 0.269311 -0.238893
v 0.049344 0.269311 -0.253606
v -0.001096 0.269311 -0.258574
v -0.051536 0.272406 -0.258458
v -0.097833 0.262707 -0.230481
v -0.142324 0.262715 -0.206203
v -0.181225 0.262960 -0.173715
v -0.213042 0.263433 -0.134265
v -0.236551 0.264115 -0.089368
v -0.250850 0.264981 -0.040751
v -0.255339 0.265503 0.014600
v -0.249948 0.267117 0.064971
v -0.234829 0.268780 0.113318
v -0.210564 0.270428 0.157786
v -0.178112 0.270726 0.191828
v -0.138663 0.271846 0.223630
v -0.093765 0.272853 0.247125
v -0.045143 0.273708 0.261409
v 0.004911 0.301756 0.265354
v 0.055304 0.302214 0.259945
v 0.103675 0.302443 0.244812
v 0.148166 0.302435 0.220535
v 0.187094 0.303455 0.192617
v 0.213766 0.296699 0.143610
v 0.237658 0.296699 0.098911
v 0.252371 0.296699 0.050409
v 0.257339 0.296699 -0.000031
v 0.252371 0.296699 -0.050471
v 0.237658 0.296699 -0.098972
v 0.213766 0.296699 -0.143671
v 0.181613 0.296699 -0.182850
v 0.142433 0.296699 -0.215004
v 0.097734 0.296699 -0.238896
v 0.049233 0.296699 -0.253609
v 0.000509 0.290773 -0.251603
v -0.049884 0.290315 -0.246195
v -0.098255 0.290085 -0.231062
v -0.142746 0.290093 -0.206784
v -0.181648 0.290338 -0.174296
v -0.213465 0.290811 -0.134846
v -0.236974 0.291493 -0.089949
v -0.251272 0.292359 -0.041332
v -0.255810 0.293375 0.009138
v -0.250413 0.294502 0.059521
v -0.235289 0.295696 0.107881
v -0.211019 0.296913 0.152360
v -0.178535 0.298104 0.191247
v -0.139086 0.299225 0.223049
v -0.094188 0.300232 0.246544
v -0.045566 0.301086 0.260828
v 0.030108 0.301985 0.262650
v 0.079489 0.302328 0.252379
v 0.125921 0.302439 0.232673
v 0.167617 0.302313 0.204291
v 0.197689 0.296699 0.163199
v 0.225712 0.296699 0.121260
v 0.245015 0.296699 0.074660
v 0.254855 0.296699 0.025189
v 0.254855 0.296699 -0.025251
v 0.245015 0.296699 -0.074721
v 0.225712 0.296699 -0.121322
v 0.197689 0.296699 -0.163261
v 0.162023 0.296699 -0.198927
v 0.120084 0.296699 -0.226950
v 0.073483 0.296699 -0.246253
v 0.025747 0.291107 -0.249341
v -0.024688 0.290544 -0.248899
v -0.074069 0.290200 -0.238628
v -0.120501 0.290089 -0.218923
v -0.162197 0.290216 -0.190540
v -0.197556 0.290575 -0.154571
v -0.225219 0.291152 -0.112398
v -0.244123 0.291926 -0.065641
v -0.253541 0.292867 -0.016097
v -0.253112 0.293938 0.034330
v -0.242851 0.295099 0.083701
v -0.223154 0.296304 0.130121
v -0.194777 0.297508 0.171804
v -0.158810 0.298664 0.207148
v -0.116637 0.299728 0.234797
v -0.069877 0.300659 0.253686
v -0.020327 0.301421 0.263091
v -0.000975 0.563664 0.130713
v 0.016932 0.560845 0.125414
v 0.038039 0.564544 0.124630
v 0.053738 0.560992 0.110169
v 0.069210 0.561446 0.099518
v 0.081908 0.561446 0.084045
v 0.091343 0.561446 0.066393
v 0.097153 0.561446 0.047240
v 0.099115 0.561446 0.027321
v 0.097153 0.561446 0.007401
v 0.091343 0.561446 -0.011752
v 0.081908 0.561446 -0.029404
v 0.069210 0.561446 -0.044876
v 0.053738 0.561446 -0.057574
v 0.036086 0.561446 -0.067009
v 0.016932 0.561446 -0.072820
v -0.002987 0.561446 -0.074781
v -0.022906 0.561446 -0.072820
v -0.042060 0.562724 -0.069047
v -0.059286 0.559059 -0.055738
v -0.074648 0.559155 -0.042909
v -0.087213 0.559342 -0.027329
v -0.096497 0.559612 -0.009599
v -0.102144 0.559954 0.009600
v -0.103936 0.560355 0.029531
v -0.101804 0.560800 0.049428
v -0.095832 0.561271 0.068526
v -0.086247 0.561752 0.086091
v -0.073419 0.562222 0.101448
v -0.057840 0.562665 0.114007
v -0.040110 0.563063 0.123285
v -0.020908 0.563400 0.128926
v 0.008976 0.563755 0.129645
v 0.028477 0.563890 0.125589
v 0.046813 0.563934 0.117807
v 0.063292 0.564340 0.108632
v 0.075559 0.561446 0.091782
v 0.086625 0.561446 0.075219
v 0.094248 0.561446 0.056817
v 0.098134 0.561446 0.037280
v 0.098134 0.561446 0.017361
v 0.094248 0.561446 -0.002175
v 0.086625 0.561446 -0.020578
v 0.075559 0.561446 -0.037140
v 0.061474 0.561446 -0.051225
v 0.044912 0.561446 -0.062292
v 0.026509 0.561446 -0.069915
v 0.006972 0.562789 -0.075838
v -0.012663 0.559237 -0.072370
v -0.032165 0.559101 -0.068314
v -0.050501 0.559057 -0.060532
v -0.066967 0.559107 -0.049323
v -0.080931 0.559249 -0.035119
v -0.091855 0.559477 -0.018464
v -0.099320 0.559783 0.000001
v -0.103040 0.560154 0.019566
v -0.102870 0.560577 0.039480
v -0.098818 0.561036 0.058977
v -0.091039 0.561512 0.077308
v -0.079833 0.561987 0.093769
v -0.065630 0.562444 0.107727
v -0.048975 0.562864 0.118646
v -0.030509 0.563231 0.126106
v -0.010941 0.563532 0.129820
v -0.004113 0.780547 0.127235
v 0.013604 0.780547 0.125490
v 0.030639 0.780547 0.120322
v 0.046339 0.780547 0.111931
v 0.060100 0.780547 0.100637
v 0.071394 0.780547 0.086876
v 0.079786 0.780547 0.071176
v 0.084953 0.780547 0.054140
v 0.086698 0.780547 0.036424
v 0.084953 0.780547 0.018708
v 0.079786 0.780547 0.001672
v 0.071394 0.780547 -0.014028
v 0.060100 0.780547 -0.027789
v 0.046339 0.780547 -0.039082
v 0.030639 0.780547 -0.047474
v 0.013604 0.780547 -0.052642
v -0.004113 0.780547 -0.054387
v -0.021829 0.780547 -0.052642
v -0.038865 0.780547 -0.047474
v -0.054565 0.780547 -0.039082
v -0.068326 0.780547 -0.027789
v -0.079619 0.780547 -0.014028
v -0.088011 0.780547 0.001672
v -0.093179 0.780547 0.018708
v -0.094924 0.780547 0.036424
v -0.093179 0.780547 0.054140
v -0.088011 0.780547 0.071176
v -0.079619 0.780547 0.086876
v -0.068326 0.780547 0.100637
v -0.054565 0.780547 0.111931
v -0.038865 0.780547 0.120322
v -0.021829 0.780547 0.125490
v 0.004745 0.780547 0.126363
v 0.022121 0.780547 0.122906
v 0.038489 0.780547 0.116127
v 0.053220 0.780547 0.106284
v 0.065747 0.780547 0.093757
v 0.075590 0.780547 0.079026
v 0.082369 0.780547 0.062658
v 0.085826 0.780547 0.045282
v 0.085826 0.780547 0.027566
v 0.082369 0.780547 0.010190
v 0.075590 0.780547 -0.006178
v 0.065747 0.780547 -0.020908
v 0.053220 0.780547 -0.033436
v 0.038489 0.780547 -0.043278
v 0.022121 0.780547 -0.050058
v 0.004745 0.780547 -0.053514
v -0.012971 0.780547 -0.053514
v -0.030347 0.780547 -0.050058
v -0.046715 0.780547 -0.043278
v -0.061445 0.780547 -0.033436
v -0.073973 0.780547 -0.020908
v -0.083815 0.780547 -0.006178
v -0.090595 0.780547 0.010190
v -0.094051 0.780547 0.027566
v -0.094051 0.780547 0.045282
v -0.090595 0.780547 0.062658
v -0.083815 0.780547 0.079026
v -0.073973 0.780547 0.093757
v -0.061445 0.780547 0.106284
v -0.046715 0.780547 0.116127
v -0.030347 0.780547 0.122906
v -0.012971 0.780547 0.126363
v -0.003678 0.804498 0.293248
v 0.045334 0.804944 0.287989
v 0.091808 0.798805 0.277867
v 0.135282 0.798805 0.254629
v 0.173387 0.798805 0.223357
v 0.204659 0.798805 0.185252
v 0.227897 0.798805 0.141778
v 0.242206 0.798805 0.094606
v 0.247038 0.798805 0.045549
v 0.242206 0.798805 -0.003509
v 0.227897 0.798805 -0.050681
v 0.204659 0.798805 -0.094155
v 0.173387 0.798805 -0.132260
v 0.135282 0.798805 -0.163532
v 0.091808 0.798805 -0.186769
v 0.044636 0.798805 -0.201079
v -0.004421 0.798805 -0.205911
v -0.053479 0.798805 -0.201079
v -0.104016 0.793148 -0.189560
v -0.147288 0.793155 -0.165948
v -0.185123 0.793394 -0.134350
v -0.216068 0.793854 -0.095981
v -0.238933 0.794517 -0.052315
v -0.252839 0.795359 -0.005031
v -0.257253 0.796347 0.044056
v -0.252004 0.797443 0.093058
v -0.237294 0.798605 0.140093
v -0.213689 0.799788 0.183352
v -0.182095 0.800947 0.221173
v -0.143728 0.802037 0.252104
v -0.100060 0.803016 0.274955
v -0.052771 0.803847 0.288847
v 0.020828 0.804721 0.290619
v 0.068222 0.798805 0.285021
v 0.113545 0.798805 0.266248
v 0.154335 0.798805 0.238993
v 0.189023 0.798805 0.204304
v 0.216278 0.798805 0.163515
v 0.235051 0.798805 0.118192
v 0.244622 0.798805 0.070077
v 0.244622 0.798805 0.021020
v 0.235051 0.798805 -0.027095
v 0.216278 0.798805 -0.072418
v 0.189023 0.798805 -0.113207
v 0.154335 0.798805 -0.147896
v 0.113545 0.798805 -0.175151
v 0.068222 0.798805 -0.193924
v 0.020107 0.798805 -0.203495
v -0.028950 0.798805 -0.203495
v -0.077065 0.798805 -0.193924
v -0.125652 0.793152 -0.177754
v -0.166206 0.793275 -0.150149
v -0.200595 0.793624 -0.115166
v -0.227500 0.794185 -0.074148
v -0.245886 0.794938 -0.028673
v -0.255046 0.795853 0.019513
v -0.254628 0.796895 0.068557
v -0.244649 0.798024 0.116575
v -0.225491 0.799197 0.161722
v -0.197892 0.800368 0.202263
v -0.162911 0.801492 0.236639
v -0.121894 0.802527 0.263529
v -0.076416 0.803432 0.281901
v -0.028224 0.804173 0.291048
v -0.004258 0.874713 0.375208
v 0.059236 0.875291 0.368394
v 0.120183 0.875580 0.349326
v 0.176242 0.875570 0.318737
v 0.225257 0.875261 0.277803
v 0.265346 0.874665 0.228096
v 0.296033 0.867274 0.179332
v 0.314571 0.867274 0.118221
v 0.320831 0.867274 0.054668
v 0.314571 0.867274 -0.008886
v 0.296033 0.867274 -0.069997
v 0.265929 0.867274 -0.126318
v 0.225416 0.867274 -0.175683
v 0.176051 0.867274 -0.216196
v 0.119731 0.870270 -0.245374
v 0.053795 0.861719 -0.270449
v -0.009805 0.860875 -0.276151
v -0.073299 0.860298 -0.269336
v -0.134246 0.860009 -0.250269
v -0.190305 0.860019 -0.219680
v -0.239320 0.860328 -0.178745
v -0.279409 0.860924 -0.129038
v -0.309030 0.861783 -0.072469
v -0.327046 0.862874 -0.011211
v -0.332763 0.864154 0.052380
v -0.325963 0.865574 0.115862
v -0.306907 0.867079 0.176795
v -0.276327 0.868612 0.232837
v -0.235397 0.870113 0.281835
v -0.185692 0.871525 0.321906
v -0.129121 0.872794 0.351509
v -0.067858 0.873870 0.369507
v 0.027489 0.875002 0.371801
v 0.089710 0.875435 0.358860
v 0.148213 0.875575 0.334032
v 0.200749 0.875416 0.298270
v 0.245301 0.874963 0.252949
v 0.280981 0.867274 0.207493
v 0.305302 0.867274 0.148777
v 0.317701 0.867274 0.086444
v 0.317701 0.867274 0.022891
v 0.305302 0.867274 -0.039441
v 0.280981 0.867274 -0.098157
v 0.245673 0.867274 -0.151000
v 0.200734 0.867274 -0.195939
v 0.147891 0.867274 -0.231248
v 0.084427 0.862257 -0.261450
v 0.021995 0.861297 -0.273300
v -0.041552 0.860587 -0.272744
v -0.103773 0.860153 -0.259803
v -0.162275 0.860014 -0.234974
v -0.214812 0.860173 -0.199212
v -0.259364 0.860626 -0.153892
v -0.294219 0.861353 -0.100754
v -0.318038 0.862329 -0.041840
v -0.329905 0.863514 0.020584
v -0.329363 0.864864 0.084121
v -0.316435 0.866326 0.146329
v -0.291617 0.867845 0.204816
v -0.255862 0.869362 0.257336
v -0.210545 0.870819 0.301870
v -0.157407 0.872159 0.336707
v -0.098490 0.873332 0.360508
v -0.036058 0.874292 0.372358
v -0.006027 0.932485 0.301198
v 0.041504 0.932917 0.296097
v 0.087129 0.933134 0.281823
v 0.130075 0.924651 0.268030
v 0.167030 0.926613 0.236227
v 0.197357 0.926613 0.199273
v 0.219893 0.926613 0.157111
v 0.233770 0.926613 0.111364
v 0.238456 0.926613 0.063788
v 0.233770 0.926613 0.016212
v 0.219893 0.926613 -0.029536
v 0.197357 0.926613 -0.071697
v 0.167030 0.926613 -0.108652
v 0.130075 0.926613 -0.138979
v 0.087914 0.926613 -0.161515
v 0.042166 0.926613 -0.175393
v -0.005410 0.926613 -0.180078
v -0.057711 0.921694 -0.181305
v -0.103336 0.921477 -0.167031
v -0.145301 0.921485 -0.144132
v -0.181994 0.921716 -0.113489
v -0.212004 0.922162 -0.076278
v -0.234178 0.922806 -0.033931
v -0.247665 0.923622 0.011926
v -0.251945 0.924580 0.059531
v -0.246855 0.925643 0.107053
v -0.232589 0.926770 0.152667
v -0.209697 0.927917 0.194620
v -0.179057 0.929041 0.231300
v -0.141848 0.930098 0.261296
v -0.099499 0.931048 0.283457
v -0.053638 0.931854 0.296930
v 0.017739 0.932701 0.298648
v 0.064317 0.933025 0.288960
v 0.108112 0.933130 0.270374
v 0.148552 0.926613 0.251391
v 0.182193 0.926613 0.217750
v 0.208625 0.926613 0.178192
v 0.226832 0.926613 0.134238
v 0.236113 0.926613 0.087576
v 0.236113 0.926613 0.040000
v 0.226832 0.926613 -0.006662
v 0.208625 0.926613 -0.050616
v 0.182193 0.926613 -0.090174
v 0.148552 0.926613 -0.123816
v 0.108994 0.926613 -0.150247
v 0.065040 0.926613 -0.168454
v 0.018378 0.926613 -0.177735
v -0.029198 0.928944 -0.176240
v -0.080523 0.921586 -0.174168
v -0.124318 0.921481 -0.155582
v -0.163647 0.921600 -0.128810
v -0.196999 0.921939 -0.094884
v -0.223091 0.922484 -0.055105
v -0.240921 0.923214 -0.011002
v -0.249805 0.924101 0.035728
v -0.249400 0.925112 0.083292
v -0.239722 0.926206 0.129860
v -0.221143 0.927344 0.173644
v -0.194377 0.928479 0.212960
v -0.160453 0.929570 0.246298
v -0.120674 0.930573 0.272377
v -0.076569 0.931451 0.290194
v -0.029833 0.932169 0.299064
v -0.007725 1.037531 0.303535
v 0.039806 1.037963 0.298434
v 0.085431 1.038180 0.284159
v 0.127396 1.038172 0.261261
v 0.164089 1.037941 0.230617
v 0.194099 1.037495 0.193407
v 0.216274 1.036852 0.151059
v 0.229760 1.036035 0.105202
v 0.234040 1.035077 0.057598
v 0.228950 1.034014 0.010075
v 0.214684 1.032887 -0.035539
v 0.191792 1.031740 -0.077492
v 0.161153 1.030616 -0.114171
v 0.123943 1.029559 -0.144168
v 0.081595 1.028609 -0.166328
v 0.035733 1.027803 -0.179802
v -0.011878 1.027172 -0.184070
v -0.059409 1.026740 -0.178969
v -0.105034 1.026523 -0.164695
v -0.146999 1.026531 -0.141796
v -0.183692 1.026762 -0.111153
v -0.213702 1.027208 -0.073942
v -0.235876 1.027852 -0.031595
v -0.249363 1.028668 0.014262
v -0.253643 1.029626 0.061867
v -0.248552 1.030689 0.109389
v -0.234287 1.031816 0.155004
v -0.211395 1.032963 0.196956
v -0.180755 1.034087 0.233636
v -0.143546 1.035144 0.263632
v -0.101197 1.036094 0.285793
v -0.055336 1.036900 0.299266
v 0.016041 1.037747 0.300984
v 0.062619 1.038072 0.291296
v 0.106414 1.038176 0.272710
v 0.145743 1.038057 0.245939
v 0.179094 1.037718 0.212012
v 0.205186 1.037173 0.172233
v 0.223017 1.036443 0.128131
v 0.231900 1.035556 0.081400
v 0.231495 1.034545 0.033836
v 0.221817 1.033451 -0.012732
v 0.203238 1.032314 -0.056515
v 0.176472 1.031178 -0.095832
v 0.142548 1.030087 -0.129170
v 0.102769 1.029084 -0.155248
v 0.058664 1.028206 -0.173065
v 0.011928 1.027488 -0.181936
v -0.035643 1.026956 -0.181519
v -0.082221 1.026632 -0.171832
v -0.126016 1.026527 -0.153245
v -0.165345 1.026646 -0.126474
v -0.198697 1.026985 -0.092547
v -0.224789 1.027530 -0.052768
v -0.242619 1.028260 -0.008666
v -0.251503 1.029148 0.038065
v -0.251098 1.030158 0.085628
v -0.241420 1.031253 0.132196
v -0.222841 1.032390 0.175980
v -0.196075 1.033525 0.215296
v -0.162151 1.034616 0.248634
v -0.122372 1.035619 0.274713
v -0.078266 1.036497 0.292530
v -0.031530 1.037216 0.301401
v -0.008908 1.034581 0.164630
v 0.011543 1.034767 0.162436
v 0.031141 1.035771 0.153771
v 0.049198 1.035674 0.143921
v 0.065016 1.034757 0.133257
v 0.077929 1.034565 0.117247
v 0.087469 1.034288 0.099027
v 0.093272 1.033937 0.079296
v 0.095114 1.033525 0.058814
v 0.092923 1.033067 0.038367
v 0.090984 1.031600 0.028187
v 0.076936 1.032089 0.000690
v 0.063753 1.031605 -0.015091
v 0.047744 1.031151 -0.027997
v 0.029523 1.030742 -0.037532
v 0.009790 1.030395 -0.043329
v -0.010695 1.030123 -0.045166
v -0.031145 1.029938 -0.042971
v -0.050776 1.029845 -0.036829
v -0.068832 1.029848 -0.026977
v -0.084619 1.029947 -0.013792
v -0.097531 1.030139 0.002218
v -0.107072 1.030416 0.020438
v -0.112875 1.030767 0.040168
v -0.114716 1.031180 0.060651
v -0.112526 1.031637 0.081098
v -0.106388 1.032122 0.100724
v -0.096539 1.032615 0.118774
v -0.083356 1.033099 0.134556
v -0.067346 1.033554 0.147462
v -0.049125 1.033962 0.156997
v -0.029393 1.034309 0.162794
v 0.004281 1.030544 0.174751
v 0.024357 1.030582 0.170758
v 0.043269 1.030658 0.162925
v 0.057123 1.034807 0.139849
v 0.071473 1.034661 0.125252
v 0.082699 1.034427 0.108137
v 0.090371 1.034113 0.089161
v 0.094193 1.033731 0.069055
v 0.094019 1.033296 0.048590
v 0.089855 1.032825 0.028554
v 0.081861 1.032336 0.009716
v 0.070345 1.031847 -0.007200
v 0.055748 1.031378 -0.021544
v 0.038633 1.030946 -0.032765
v 0.019656 1.030568 -0.040431
v -0.000452 1.030259 -0.044248
v -0.020920 1.030031 -0.044068
v -0.036266 1.031600 -0.031584
v -0.059815 1.028931 -0.034379
v -0.072198 1.032328 -0.009876
v -0.091075 1.030043 -0.005787
v -0.102302 1.030277 0.011328
v -0.109973 1.030592 0.030303
v -0.113795 1.030973 0.050410
v -0.113621 1.031408 0.070874
v -0.109457 1.031879 0.090911
v -0.101463 1.032368 0.109749
v -0.089947 1.032857 0.126665
v -0.075351 1.033326 0.141009
v -0.058236 1.033758 0.152230
v -0.039259 1.034136 0.159895
v -0.019150 1.034445 0.163712
v 0.064101 1.087510 0.281449
v 0.041288 1.087402 0.288586
v 0.107896 1.087615 0.262863
v 0.086913 1.087618 0.274312
v 0.206668 1.086612 0.162386
v 0.195581 1.086934 0.183559
v 0.224498 1.085882 0.118283
v 0.217755 1.086290 0.141212
v 0.223299 1.082889 -0.022579
v 0.230432 1.083452 0.000228
v 0.204720 1.081752 -0.066363
v 0.216166 1.082326 -0.045386
v 0.104251 1.078523 -0.165095
v 0.125425 1.078997 -0.154015
v 0.060146 1.077645 -0.182912
v 0.083076 1.078048 -0.176176
v -0.080739 1.076070 -0.181679
v -0.057927 1.076178 -0.188816
v -0.124534 1.075966 -0.163093
v -0.103552 1.075962 -0.174542
v -0.223307 1.076968 -0.062616
v -0.212220 1.076647 -0.083789
v -0.241138 1.077698 -0.018513
v -0.234394 1.077290 -0.041442
v -0.239938 1.080691 0.122349
v -0.247071 1.080128 0.099542
v -0.221359 1.081828 0.166133
v -0.232805 1.081255 0.145156
v -0.120890 1.085058 0.264865
v -0.142064 1.084583 0.253785
v -0.076785 1.085936 0.282682
v -0.099715 1.085533 0.275946
v 0.017522 1.087186 0.291137
v 0.180576 1.087157 0.202165
v 0.232977 1.083984 0.023989
v 0.144030 1.079526 -0.139017
v -0.034161 1.076394 -0.191367
v -0.197215 1.076424 -0.102395
v -0.249616 1.079596 0.075781
v -0.160669 1.084054 0.238787
v 0.025839 1.080021 0.160911
v 0.013025 1.084205 0.152588
v 0.044751 1.080096 0.153077
v 0.032623 1.085209 0.143924
v 0.084181 1.083865 0.098289
v 0.079410 1.084004 0.107400
v 0.091852 1.083551 0.079314
v 0.088951 1.083727 0.089179
v 0.091336 1.082263 0.018707
v 0.094405 1.082506 0.028520
v 0.083343 1.081774 -0.000132
v 0.092466 1.081038 0.018339
v 0.040115 1.080385 -0.042612
v 0.049225 1.080589 -0.037845
v 0.021138 1.080007 -0.050278
v 0.031004 1.080180 -0.047380
v -0.034784 1.081038 -0.041431
v -0.029664 1.079376 -0.052818
v -0.058333 1.078370 -0.044226
v -0.049294 1.079283 -0.046677
v -0.100820 1.079716 0.001481
v -0.096049 1.079577 -0.007630
v -0.108492 1.080030 0.020456
v -0.105590 1.079855 0.010591
v -0.107975 1.081318 0.081063
v -0.111044 1.081075 0.071250
v -0.099982 1.081807 0.099902
v -0.104906 1.081560 0.090876
v -0.056754 1.083197 0.142382
v -0.065864 1.082992 0.137615
v -0.037777 1.083574 0.150048
v -0.047643 1.083401 0.147150
v 0.005763 1.079982 0.164904
v 0.072954 1.084100 0.115405
v 0.095500 1.082734 0.038743
v 0.057230 1.080817 -0.031392
v -0.019438 1.079469 -0.053916
v -0.089593 1.079482 -0.015635
v -0.112139 1.080847 0.061027
v -0.073869 1.082765 0.131162
vn -0.0000 -1.0000 -0.0000
vn -0.8777 0.1120 -0.4659
vn 0.9937 0.0547 -0.0979
vn -0.9531 0.0984 -0.2862
vn 0.9555 0.0545 -0.2899
vn -0.9920 0.0831 -0.0948
vn 0.8806 0.0542 -0.4707
vn -0.9926 0.0669 0.1009
vn 0.7719 0.0537 -0.6335
vn -0.9547 0.0504 0.2932
vn 0.6335 0.0532 -0.7719
vn -0.8796 0.0343 0.4744
vn 0.4707 0.0525 -0.8807
vn 0.1024 -0.0259 0.9944
vn -0.7703 0.0192 0.6374
vn 0.2899 0.0517 -0.9557
vn 0.2943 -0.0271 0.9553
vn -0.6311 0.0057 0.7757
vn 0.0242 0.0757 -0.9968
vn 0.5066 -0.0136 0.8620
vn -0.4675 -0.0059 0.8840
vn -0.1478 0.1206 -0.9816
vn 0.6377 0.0002 0.7703
vn -0.2859 -0.0152 0.9581
vn -0.2916 0.1390 -0.9464
vn 0.8188 0.0278 0.5735
vn -0.0935 -0.0219 0.9954
vn -0.4703 0.1372 -0.8718
vn 0.8806 0.0543 0.4707
vn -0.6315 0.1319 -0.7641
vn 0.9555 0.0546 0.2899
vn -0.7690 0.1234 -0.6272
vn 0.9937 0.0547 0.0979
vn -0.7108 0.7007 0.0617
vn 0.2765 0.9338 -0.2269
vn -0.4706 0.8727 0.1297
vn 0.2270 0.9338 -0.2766
vn -0.2541 0.9598 0.1192
vn 0.1687 0.9338 -0.3156
vn -0.0228 0.9831 -0.1817
vn -0.1030 0.9926 0.0649
vn 0.1039 0.9337 -0.3425
vn -0.0574 0.9813 -0.1835
vn -0.0156 0.9999 -0.0036
vn -0.1629 0.9652 -0.2047
vn -0.0328 0.9980 0.0541
vn 0.0227 0.9973 -0.0694
vn -0.0672 0.9769 -0.2029
vn 0.4028 0.7838 0.4728
vn 0.0265 0.9920 -0.1236
vn -0.1389 0.3192 -0.9375
vn 0.4393 0.8890 0.1295
vn 0.0081 0.9868 -0.1617
vn -0.4636 -0.2242 -0.8572
vn 0.3154 0.9339 0.1686
vn -0.6277 -0.1834 -0.7566
vn 0.3422 0.9339 0.1038
vn -0.7720 -0.1047 -0.6269
vn 0.3559 0.9339 0.0351
vn -0.8835 0.0237 -0.4678
vn 0.3559 0.9339 -0.0351
vn -0.9352 0.2136 -0.2824
vn 0.3422 0.9339 -0.1038
vn -0.8847 0.4574 -0.0903
vn 0.3154 0.9338 -0.1686
vn -0.2984 -0.9168 0.2655
vn -0.1875 0.7634 0.6181
vn 0.1564 -0.8488 0.5051
vn -0.2832 -0.8856 0.3680
vn -0.0483 0.6997 0.7128
vn 0.2749 -0.8139 0.5119
vn -0.2212 -0.8698 0.4410
vn -0.0492 -0.8484 -0.5270
vn -0.2918 0.8821 -0.3698
vn -0.1376 -0.8605 0.4906
vn 0.1777 0.8003 0.5727
vn -0.3898 0.8594 -0.3309
vn -0.0426 -0.8545 0.5176
vn 0.2806 0.8096 0.5156
vn 0.3802 0.8067 0.4524
vn 0.4678 0.8017 0.3720
vn 0.5416 0.7938 0.2767
vn 0.6015 0.7808 0.1690
vn 0.6522 0.7564 0.0502
vn 0.7141 0.6949 -0.0845
vn 0.9034 0.3215 -0.2838
vn -0.1084 -0.9911 0.0769
vn 0.0572 -0.8508 0.5223
vn -0.1911 0.7796 0.5964
vn -0.2658 0.6964 -0.6666
vn 0.6643 0.6128 0.4280
vn -0.0667 0.7820 0.6197
vn -0.3635 0.6476 -0.6697
vn 0.5687 0.7643 0.3040
vn -0.4808 0.7026 -0.5246
vn 0.6170 0.7644 0.1872
vn -0.5123 0.7438 -0.4294
vn 0.6416 0.7644 0.0632
vn -0.5820 0.7461 -0.3234
vn 0.6416 0.7644 -0.0632
vn -0.6296 0.7491 -0.2059
vn 0.6170 0.7644 -0.1872
vn -0.6534 0.7526 -0.0813
vn 0.5688 0.7643 -0.3040
vn -0.6523 0.7566 0.0456
vn 0.4986 0.7641 -0.4092
vn -0.6265 0.7607 0.1697
vn 0.4093 0.7640 -0.4988
vn -0.5768 0.7650 0.2864
vn 0.3043 0.7638 -0.5692
vn 0.0951 0.8173 0.5683
vn -0.5054 0.7692 0.3911
vn 0.1298 0.6775 -0.7240
vn 0.1568 0.8458 0.5099
vn -0.4148 0.7731 0.4798
vn -0.0255 0.6642 -0.7471
vn 0.3136 0.8117 0.4927
vn -0.3087 0.7766 0.5491
vn -0.0775 0.7486 -0.6585
vn 0.5857 0.6078 0.5362
vn -0.6999 0.4279 -0.5719
vn 0.8504 0.5194 0.0838
vn -0.7892 0.4459 -0.4224
vn 0.8504 0.5194 -0.0838
vn -0.8457 0.4663 -0.2595
vn 0.8178 0.5193 -0.2481
vn -0.8651 0.4945 -0.0838
vn 0.7538 0.5191 -0.4029
vn -0.8585 0.5071 0.0756
vn 0.6608 0.5188 -0.5423
vn -0.8243 0.5127 0.2401
vn 0.5425 0.5185 -0.6610
vn -0.7586 0.5184 0.3947
vn 0.4032 0.5180 -0.7544
vn 0.1333 0.5792 0.8042
vn -0.6313 0.5511 0.5457
vn 0.2484 0.5176 -0.8188
vn 0.2494 0.5377 0.8054
vn -0.5187 0.5890 0.6197
vn -0.0098 0.4275 -0.9040
vn 0.4594 0.6148 0.6411
vn -0.3819 0.6022 0.7010
vn -0.0479 0.2880 -0.9564
vn 0.4196 0.7121 0.5629
vn -0.2336 0.6120 0.7555
vn -0.4109 0.3623 -0.8366
vn 0.6797 0.6207 0.3908
vn -0.0786 0.6181 0.7822
vn -0.4161 0.4949 -0.7628
vn 0.7537 0.5192 0.4029
vn -0.6018 0.4559 -0.6557
vn 0.8178 0.5194 0.2481
vn -0.9961 -0.0254 -0.0846
vn 0.8819 0.0035 -0.4714
vn -0.9943 0.0042 0.1064
vn 0.7730 0.0031 -0.6344
vn -0.9539 0.0433 0.2970
vn 0.6344 0.0025 -0.7730
vn -0.8760 0.0817 0.4754
vn 0.4714 0.0018 -0.8819
vn 0.1065 0.0227 0.9941
vn -0.7461 0.0618 0.6630
vn 0.2903 0.0011 -0.9569
vn 0.2984 0.0248 0.9541
vn -0.6277 0.0068 0.7784
vn 0.0161 0.2155 -0.9764
vn 0.5415 -0.1155 0.8328
vn -0.4638 0.0116 0.8859
vn -0.0376 0.4412 -0.8966
vn 0.5925 -0.2487 0.7662
vn -0.2821 0.0160 0.9593
vn -0.4231 0.2371 -0.8745
vn 0.8261 -0.0828 0.5574
vn -0.0895 0.0197 0.9958
vn -0.4788 -0.0260 -0.8775
vn 0.8819 0.0036 0.4714
vn -0.6409 -0.0262 -0.7672
vn 0.9569 0.0039 0.2903
vn -0.7783 -0.0253 -0.6274
vn 0.9952 0.0041 0.0980
vn -0.8858 -0.0235 -0.4635
vn 0.9952 0.0040 -0.0980
vn -0.9593 -0.0208 -0.2817
vn 0.9569 0.0039 -0.2903
vn 0.5265 0.5579 -0.6415
vn -0.8689 0.4880 0.0822
vn 0.3894 0.5636 -0.7285
vn -0.8411 0.4789 0.2512
vn 0.2391 0.5673 -0.7880
vn -0.7799 0.4707 0.4127
vn 0.0908 0.4569 0.8849
vn 0.0029 0.5427 -0.8399
vn -0.6869 0.4637 0.5596
vn 0.1400 0.4636 0.8749
vn -0.0229 0.5449 -0.8382
vn -0.5657 0.4582 0.6856
vn 0.4681 0.4664 0.7506
vn -0.1129 0.5345 -0.8376
vn -0.4209 0.4547 0.7849
vn 0.4233 0.4685 0.7755
vn -0.4031 0.5400 -0.7389
vn -0.2586 0.4533 0.8531
vn 0.8307 0.4735 0.2927
vn -0.5403 0.5332 -0.6510
vn -0.0855 0.4540 0.8869
vn 0.7743 0.4787 0.4139
vn -0.6592 0.5253 -0.5380
vn 0.8333 0.4916 0.2528
vn -0.7553 0.5166 -0.4033
vn 0.8591 0.5047 0.0846
vn -0.8243 0.5072 -0.2515
vn 0.8515 0.5176 -0.0839
vn -0.8630 0.4976 -0.0876
vn 0.8117 0.5297 -0.2462
vn 0.7419 0.5407 -0.3966
vn 0.6455 0.5502 -0.5298
vn 0.2171 0.4658 0.8578
vn 0.2084 0.4548 0.8659
vn 0.5251 0.4797 0.7030
vn 0.5738 0.4848 0.6601
vn -0.1000 0.5417 -0.8346
vn 0.6837 0.4667 0.5611
vn -0.1589 0.5428 -0.8247
vn -0.3210 0.5373 -0.7799
vn -0.5184 0.5217 -0.6776
vn 0.2923 0.0121 0.9562
vn 0.9560 0.0441 0.2900
vn -0.7701 0.0205 0.6376
vn 0.1915 0.0219 0.9812
vn 0.9938 0.0523 0.0979
vn -0.6309 0.0171 0.7757
vn 0.6277 0.0225 0.7781
vn 0.9934 0.0604 -0.0978
vn -0.4674 0.0149 0.8839
vn 0.7585 0.0353 0.6507
vn 0.9547 0.0681 -0.2896
vn -0.2859 0.0141 0.9581
vn 0.7727 0.0289 0.6341
vn 0.8794 0.0752 -0.4701
vn -0.0935 0.0148 0.9955
vn 0.8813 0.0362 0.4711
vn 0.7704 0.0813 -0.6323
vn 0.6320 0.0863 -0.7701
vn 0.4695 0.0900 -0.8783
vn 0.2891 0.0921 -0.9529
vn 0.2082 0.0973 -0.9732
vn -0.1838 0.0867 -0.9791
vn -0.3786 0.0829 -0.9218
vn -0.6242 0.0786 -0.7773
vn -0.6361 0.0712 -0.7683
vn 0.2890 0.0921 -0.9529
vn -0.7740 0.0649 -0.6298
vn -0.0167 0.0972 -0.9951
vn -0.8823 0.0582 -0.4670
vn -0.0118 0.0883 -0.9960
vn -0.9568 0.0512 -0.2860
vn -0.0818 0.0909 -0.9925
vn -0.9946 0.0441 -0.0939
vn -0.4740 0.0763 -0.8772
vn -0.9941 0.0373 0.1020
vn -0.6362 0.0708 -0.7683
vn -0.9553 0.0310 0.2941
vn -0.7740 0.0646 -0.6298
vn -0.8796 0.0255 0.4750
vn 0.1025 0.0172 0.9946
vn -0.8824 0.0579 -0.4670
vn -0.7701 0.0209 0.6376
vn 0.1179 0.0085 0.9930
vn -0.9569 0.0509 -0.2861
vn -0.6309 0.0174 0.7757
vn 0.5530 0.0316 0.8326
vn -0.9946 0.0438 -0.0939
vn -0.4674 0.0153 0.8839
vn 0.3975 0.0172 0.9174
vn -0.9941 0.0370 0.1020
vn -0.2859 0.0145 0.9581
vn -0.9553 0.0307 0.2941
vn -0.0935 0.0152 0.9955
vn -0.8796 0.0251 0.4750
vn 0.0691 -0.9941 0.0841
vn 0.1106 -0.9933 -0.0335
vn -0.0273 -0.9904 0.1354
vn 0.0848 -0.9940 0.0696
vn 0.1030 -0.9932 -0.0550
vn -0.0034 -0.9898 0.1423
vn 0.0976 -0.9939 0.0522
vn 0.0911 -0.9930 -0.0748
vn 0.1070 -0.9937 0.0325
vn 0.0754 -0.9929 -0.0918
vn 0.1125 -0.9936 0.0111
vn 0.0563 -0.9928 -0.1054
vn 0.1138 -0.9934 -0.0112
vn 0.0348 -0.9928 -0.1148
vn 0.0118 -0.9927 -0.1196
vn -0.0118 -0.9928 -0.1196
vn -0.0348 -0.9928 -0.1147
vn -0.0385 -0.9967 -0.0708
vn -0.0542 -0.9967 -0.0597
vn -0.0680 -0.9966 -0.0463
vn -0.0794 -0.9964 -0.0307
vn -0.0883 -0.9960 -0.0131
vn 0.1259 -0.9799 -0.1550
vn -0.0941 -0.9955 0.0060
vn -0.0386 -0.9967 -0.0708
vn -0.0965 -0.9950 0.0265
vn -0.0545 -0.9967 -0.0601
vn -0.0951 -0.9943 0.0475
vn -0.0686 -0.9965 -0.0468
vn -0.0896 -0.9936 0.0686
vn 0.0216 -0.9895 0.1431
vn -0.0804 -0.9963 -0.0312
vn -0.0799 -0.9929 0.0887
vn -0.1608 -0.9729 0.1664
vn -0.0897 -0.9959 -0.0136
vn -0.0659 -0.9921 0.1070
vn 0.0510 -0.9941 0.0954
vn -0.0958 -0.9954 0.0059
vn -0.0481 -0.9913 0.1224
vn -0.0984 -0.9948 0.0267
vn -0.0269 -0.9906 0.1340
vn -0.0970 -0.9941 0.0481
vn -0.0033 -0.9900 0.1411
vn -0.0913 -0.9934 0.0695
vn 0.0217 -0.9894 0.1439
vn -0.0813 -0.9926 0.0899
vn 0.0313 -0.9942 0.1031
vn -0.0670 -0.9919 0.1084
vn -0.0488 -0.9911 0.1238
vn 0.6400 -0.7434 0.1942
vn 0.4548 -0.6971 -0.5542
vn 0.6742 -0.7355 0.0664
vn 0.3402 -0.6922 -0.6365
vn 0.6831 -0.7272 -0.0673
vn 0.3427 -0.6989 -0.6277
vn 0.6652 -0.7189 -0.2018
vn 0.0677 -0.7439 -0.6649
vn 0.6203 -0.7108 -0.3316
vn -0.0642 -0.7503 -0.6579
vn 0.5494 -0.7035 -0.4509
vn -0.1912 -0.7560 -0.6260
vn -0.3365 -0.7119 -0.6164
vn 0.3030 -0.6812 -0.6665
vn -0.4494 -0.7172 -0.5327
vn 0.1993 -0.7382 -0.6445
vn -0.5420 -0.7230 -0.4284
vn 0.0677 -0.7447 -0.6640
vn -0.6108 -0.7291 -0.3088
vn -0.0642 -0.7505 -0.6577
vn -0.6539 -0.7351 -0.1792
vn -0.0936 -0.7202 -0.6874
vn -0.6702 -0.7408 -0.0454
vn -0.3365 -0.7119 -0.6165
vn -0.6602 -0.7460 0.0874
vn -0.6253 -0.7505 0.2141
vn -0.5676 -0.7541 0.3303
vn 0.0765 -0.7569 0.6490
vn -0.4900 -0.7569 0.4325
vn 0.0769 -0.7306 0.6785
vn -0.3956 -0.7587 0.5175
vn 0.3375 -0.7046 0.6242
vn -0.2881 -0.7597 0.5831
vn 0.4536 -0.7011 0.5503
vn -0.1710 -0.7596 0.6275
vn 0.5530 -0.6986 0.4541
vn -0.0482 -0.7587 0.6496
vn 0.5158 -0.7238 0.4584
vn 0.2102 -0.7074 0.6748
vn 0.3380 -0.7035 0.6252
vn 0.4539 -0.7006 0.5506
vn 0.5529 -0.6987 0.4541
vn 0.5827 -0.7507 0.3114
vn 0.5495 0.8187 -0.1667
vn 0.0461 0.8266 -0.5609
vn 0.5000 0.8238 -0.2672
vn -0.0439 0.8216 -0.5683
vn 0.4333 0.8281 -0.3556
vn -0.1736 0.8219 -0.5425
vn 0.3523 0.8316 -0.4293
vn -0.2744 0.8194 -0.5032
vn 0.2899 0.8374 -0.4633
vn -0.3670 0.8165 -0.4457
vn 0.1533 0.8260 -0.5424
vn -0.4482 0.8132 -0.3712
vn 0.0464 0.8245 -0.5640
vn -0.5149 0.8096 -0.2819
vn -0.0872 0.8211 -0.5641
vn -0.5641 0.8058 -0.1803
vn -0.5934 0.8019 -0.0695
vn -0.6008 0.7980 0.0465
vn -0.5850 0.7944 0.1633
vn -0.5458 0.7911 0.2762
vn 0.0587 0.7876 0.6134
vn -0.4838 0.7884 0.3800
vn 0.1795 0.7903 0.5859
vn -0.5641 0.8058 -0.1802
vn -0.4011 0.7864 0.4698
vn 0.2915 0.7937 0.5340
vn -0.3008 0.7852 0.5412
vn 0.3651 0.8081 0.4623
vn -0.1873 0.7850 0.5905
vn 0.4569 0.8108 0.3657
vn -0.0655 0.7858 0.6150
vn 0.5514 0.8066 0.2129
vn 0.5733 0.8007 0.1739
vn 0.5877 0.8070 0.0579
vn 0.3155 0.8010 0.5089
vn 0.5794 0.8131 -0.0571
vn 0.3812 0.8040 0.4563
vn 0.4594 0.8086 0.3677
vn 0.5356 0.7945 0.2863
vn 0.2599 0.8342 -0.4863
vn 0.0991 0.8350 -0.5412
vn 0.6310 -0.0025 -0.7758
vn -0.4790 0.0118 -0.8778
vn 0.4676 -0.0137 -0.8838
vn -0.6410 0.0067 -0.7675
vn 0.2862 -0.0245 -0.9579
vn -0.7784 0.0014 -0.6278
vn 0.0938 -0.0344 -0.9950
vn -0.8859 -0.0040 -0.4638
vn 0.0498 -0.0125 -0.9987
vn -0.9594 -0.0092 -0.2820
vn -0.2986 0.0164 -0.9542
vn -0.9959 -0.0141 -0.0893
vn -0.9941 -0.0184 0.1069
vn -0.9540 -0.0221 0.2989
vn -0.8773 -0.0248 0.4794
vn 0.1069 -0.0204 0.9941
vn -0.7668 -0.0267 0.6413
vn 0.2986 -0.0164 0.9542
vn -0.6269 -0.0274 0.7786
vn 0.4790 -0.0118 0.8778
vn -0.4630 -0.0272 0.8859
vn 0.6528 0.0570 0.7554
vn -0.2814 -0.0259 0.9593
vn 0.7748 0.0532 0.6300
vn -0.0890 -0.0236 0.9958
vn 0.8829 0.0516 0.4667
vn 0.9572 0.0481 0.2855
vn 0.9947 0.0427 0.0933
vn 0.3103 0.0255 0.9503
vn 0.9941 0.0356 -0.1026
vn 0.6369 0.0546 0.7690
vn 0.9552 0.0271 -0.2946
vn 0.7747 0.0551 0.6299
vn 0.8796 0.0173 -0.4753
vn 0.8828 0.0536 0.4667
vn 0.7702 0.0066 -0.6378
vn 0.9571 0.0501 0.2854
vn 0.6310 -0.0045 -0.7757
vn 0.9946 0.0448 0.0932
vn 0.4676 -0.0157 -0.8838
vn 0.9940 0.0377 -0.1026
vn 0.2862 -0.0265 -0.9578
vn 0.9552 0.0291 -0.2946
vn 0.0938 -0.0364 -0.9949
vn 0.8796 0.0193 -0.4753
vn -0.1354 -0.0550 -0.9893
vn 0.7702 0.0086 -0.6378
vn -0.0114 0.9997 -0.0211
vn -0.7750 -0.1010 -0.6238
vn 0.2930 0.1783 0.9393
vn -0.9948 0.0477 0.0900
vn 0.1030 0.1913 0.9761
vn 0.0110 0.9995 -0.0313
vn -0.0666 0.9976 0.0185
vn -0.9514 0.0873 0.2954
vn 0.9591 0.0273 0.2816
vn 0.1116 0.9928 -0.0435
vn 0.4588 -0.1868 -0.8687
vn 0.8844 0.0655 0.4621
vn 0.6213 -0.1709 -0.7647
vn 0.0119 0.9993 -0.0346
vn 0.4730 0.1585 0.8667
vn -0.9224 -0.0487 -0.3832
vn -0.2796 0.1956 0.9400
vn -0.9932 0.0507 0.1052
vn -0.9591 -0.0273 -0.2816
vn -0.8465 -0.0795 -0.5264
vn -0.4588 0.1868 0.8687
vn -0.1371 0.9897 0.0417
vn 0.2796 -0.1956 -0.9400
vn -0.8844 -0.0655 -0.4621
vn 0.9514 -0.0873 -0.2954
vn 0.9932 -0.0507 -0.1052
vn -0.8728 0.1204 0.4730
vn 0.5433 -0.1796 -0.8201
vn 0.0291 0.9978 -0.0604
vn -0.0097 0.9998 -0.0173
vn -0.0505 0.9987 -0.0120
vn 0.1157 0.9907 -0.0713
vn 0.1442 0.9833 -0.1112
vn -0.1493 0.9887 -0.0164
vn -0.1602 0.9869 0.0202
vn -0.0023 1.0000 0.0053
vn -0.0353 0.9971 -0.0678
vn 0.0305 0.9988 -0.0377
vn -0.0113 0.9997 -0.0211
vn -0.0335 0.9994 -0.0069
vn -0.8888 0.1150 0.4436
vn -0.6213 0.1709 0.7647
vn 0.7750 0.1010 0.6238
vn 0.8728 -0.1204 -0.4730
vn -0.4730 -0.1585 -0.8667
vn -0.4581 -0.1604 -0.8743
vn 0.9136 0.0529 0.4031
vn 0.8639 -0.1232 -0.4884
vn 0.2400 0.1827 0.9534
vn -0.2930 -0.1783 -0.9393
vn -0.3541 0.1929 0.9151
vn -0.8682 0.1218 0.4811
vn -0.1030 -0.1913 -0.9761
vn 0.4923 -0.1842 -0.8507
vt 0.000000 0.000000
s 0
f 15/1/1 47/1/1 46/1/1 14/1/1
f 2/1/1 34/1/1 33/1/1 1/1/1
f 29/1/1 61/1/1 60/1/1 28/1/1
f 16/1/1 48/1/1 47/1/1 15/1/1
f 3/1/1 35/1/1 34/1/1 2/1/1
f 30/1/1 62/1/1 61/1/1 29/1/1
f 17/1/1 49/1/1 48/1/1 16/1/1
f 4/1/1 36/1/1 35/1/1 3/1/1
f 31/1/1 63/1/1 62/1/1 30/1/1
f 18/1/1 50/1/1 49/1/1 17/1/1
f 5/1/1 37/1/1 36/1/1 4/1/1
f 32/1/1 64/1/1 63/1/1 31/1/1
f 19/1/1 51/1/1 50/1/1 18/1/1
f 6/1/1 38/1/1 37/1/1 5/1/1
f 1/1/1 33/1/1 64/1/1 32/1/1
f 20/1/1 52/1/1 51/1/1 19/1/1
f 7/1/1 39/1/1 38/1/1 6/1/1
f 21/1/1 53/1/1 52/1/1 20/1/1
f 8/1/1 40/1/1 39/1/1 7/1/1
f 22/1/1 54/1/1 53/1/1 21/1/1
f 9/1/1 41/1/1 40/1/1 8/1/1
f 23/1/1 55/1/1 54/1/1 22/1/1
f 10/1/1 42/1/1 41/1/1 9/1/1
f 24/1/1 56/1/1 55/1/1 23/1/1
f 11/1/1 43/1/1 42/1/1 10/1/1
f 25/1/1 57/1/1 56/1/1 24/1/1
f 12/1/1 44/1/1 43/1/1 11/1/1
f 26/1/1 58/1/1 57/1/1 25/1/1
f 13/1/1 45/1/1 44/1/1 12/1/1
f 27/1/1 59/1/1 58/1/1 26/1/1
f 14/1/1 46/1/1 45/1/1 13/1/1
f 28/1/1 60/1/1 59/1/1 27/1/1
f 55/1/2 87/1/2 86/1/2 54/1/2
f 42/1/3 74/1/3 73/1/3 41/1/3
f 56/1/4 88/1/4 87/1/4 55/1/4
f 43/1/5 75/1/5 74/1/5 42/1/5
f 57/1/6 89/1/6 88/1/6 56/1/6
f 44/1/7 76/1/7 75/1/7 43/1/7
f 58/1/8 90/1/8 89/1/8 57/1/8
f 45/1/9 77/1/9 76/1/9 44/1/9
f 59/1/10 91/1/10 90/1/10 58/1/10
f 46/1/11 78/1/11 77/1/11 45/1/11
f 60/1/12 92/1/12 91/1/12 59/1/12
f 47/1/13 79/1/13 78/1/13 46/1/13
f 34/1/14 66/1/14 65/1/14 33/1/14
f 61/1/15 93/1/15 92/1/15 60/1/15
f 48/1/16 80/1/16 79/1/16 47/1/16
f 35/1/17 67/1/17 66/1/17 34/1/17
f 62/1/18 94/1/18 93/1/18 61/1/18
f 49/1/19 81/1/19 80/1/19 48/1/19
f 36/1/20 68/1/20 67/1/20 35/1/20
f 63/1/21 95/1/21 94/1/21 62/1/21
f 50/1/22 82/1/22 81/1/22 49/1/22
f 37/1/23 69/1/23 68/1/23 36/1/23
f 64/1/24 96/1/24 95/1/24 63/1/24
f 51/1/25 83/1/25 82/1/25 50/1/25
f 38/1/26 70/1/26 69/1/26 37/1/26
f 33/1/27 65/1/27 96/1/27 64/1/27
f 52/1/28 84/1/28 83/1/28 51/1/28
f 39/1/29 71/1/29 70/1/29 38/1/29
f 53/1/30 85/1/30 84/1/30 52/1/30
f 40/1/31 72/1/31 71/1/31 39/1/31
f 54/1/32 86/1/32 85/1/32 53/1/32
f 41/1/33 73/1/33 72/1/33 40/1/33
f 90/1/34 122/1/34 121/1/34 89/1/34
f 77/1/35 109/1/35 108/1/35 76/1/35
f 91/1/36 123/1/36 122/1/36 90/1/36
f 78/1/37 110/1/37 109/1/37 77/1/37
f 92/1/38 124/1/38 123/1/38 91/1/38
f 79/1/39 111/1/39 110/1/39 78/1/39
f 66/1/40 98/1/40 97/1/40 65/1/40
f 93/1/41 125/1/41 124/1/41 92/1/41
f 80/1/42 112/1/42 111/1/42 79/1/42
f 67/1/43 99/1/43 98/1/43 66/1/43
f 94/1/44 126/1/44 125/1/44 93/1/44
f 81/1/45 113/1/45 112/1/45 80/1/45
f 68/1/46 100/1/46 99/1/46 67/1/46
f 95/1/47 127/1/47 126/1/47 94/1/47
f 82/1/48 114/1/48 113/1/48 81/1/48
f 69/1/49 101/1/49 100/1/49 68/1/49
f 96/1/50 128/1/50 127/1/50 95/1/50
f 83/1/51 115/1/51 114/1/51 82/1/51
f 70/1/52 102/1/52 101/1/52 69/1/52
f 65/1/53 97/1/53 128/1/53 96/1/53
f 84/1/54 116/1/54 115/1/54 83/1/54
f 71/1/55 103/1/55 102/1/55 70/1/55
f 85/1/56 117/1/56 116/1/56 84/1/56
f 72/1/57 104/1/57 103/1/57 71/1/57
f 86/1/58 118/1/58 117/1/58 85/1/58
f 73/1/59 105/1/59 104/1/59 72/1/59
f 87/1/60 119/1/60 118/1/60 86/1/60
f 74/1/61 106/1/61 105/1/61 73/1/61
f 88/1/62 120/1/62 119/1/62 87/1/62
f 75/1/63 107/1/63 106/1/63 74/1/63
f 89/1/64 121/1/64 120/1/64 88/1/64
f 76/1/65 108/1/65 107/1/65 75/1/65
f 125/1/66 157/1/66 156/1/66 124/1/66
f 112/1/67 144/1/67 143/1/67 111/1/67
f 99/1/68 131/1/68 130/1/68 98/1/68
f 126/1/69 158/1/69 157/1/69 125/1/69
f 113/1/70 145/1/70 144/1/70 112/1/70
f 100/1/71 132/1/71 131/1/71 99/1/71
f 127/1/72 159/1/72 158/1/72 126/1/72
f 114/1/73 146/1/73 145/1/73 113/1/73
f 101/1/74 133/1/74 132/1/74 100/1/74
f 128/1/75 160/1/75 159/1/75 127/1/75
f 115/1/76 147/1/76 146/1/76 114/1/76
f 102/1/77 134/1/77 133/1/77 101/1/77
f 97/1/78 129/1/78 160/1/78 128/1/78
f 116/1/79 148/1/79 147/1/79 115/1/79
f 103/1/1 135/1/1 134/1/1 102/1/1
f 117/1/80 149/1/80 148/1/80 116/1/80
f 104/1/1 136/1/1 135/1/1 103/1/1
f 118/1/81 150/1/81 149/1/81 117/1/81
f 105/1/1 137/1/1 136/1/1 104/1/1
f 119/1/82 151/1/82 150/1/82 118/1/82
f 106/1/1 138/1/1 137/1/1 105/1/1
f 120/1/83 152/1/83 151/1/83 119/1/83
f 107/1/1 139/1/1 138/1/1 106/1/1
f 121/1/84 153/1/84 152/1/84 120/1/84
f 108/1/1 140/1/1 139/1/1 107/1/1
f 122/1/85 154/1/85 153/1/85 121/1/85
f 109/1/1 141/1/1 140/1/1 108/1/1
f 123/1/86 155/1/86 154/1/86 122/1/86
f 110/1/1 142/1/1 141/1/1 109/1/1
f 124/1/87 156/1/87 155/1/87 123/1/87
f 111/1/1 143/1/1 142/1/1 110/1/1
f 98/1/88 130/1/88 129/1/88 97/1/88
f 160/1/89 192/1/89 191/1/89 159/1/89
f 147/1/90 179/1/90 178/1/90 146/1/90
f 134/1/91 166/1/91 165/1/91 133/1/91
f 129/1/92 161/1/92 192/1/92 160/1/92
f 148/1/93 180/1/93 179/1/93 147/1/93
f 135/1/94 167/1/94 166/1/94 134/1/94
f 149/1/95 181/1/95 180/1/95 148/1/95
f 136/1/96 168/1/96 167/1/96 135/1/96
f 150/1/97 182/1/97 181/1/97 149/1/97
f 137/1/98 169/1/98 168/1/98 136/1/98
f 151/1/99 183/1/99 182/1/99 150/1/99
f 138/1/100 170/1/100 169/1/100 137/1/100
f 152/1/101 184/1/101 183/1/101 151/1/101
f 139/1/102 171/1/102 170/1/102 138/1/102
f 153/1/103 185/1/103 184/1/103 152/1/103
f 140/1/104 172/1/104 171/1/104 139/1/104
f 154/1/105 186/1/105 185/1/105 153/1/105
f 141/1/106 173/1/106 172/1/106 140/1/106
f 155/1/107 187/1/107 186/1/107 154/1/107
f 142/1/108 174/1/108 173/1/108 141/1/108
f 156/1/109 188/1/109 187/1/109 155/1/109
f 143/1/110 175/1/110 174/1/110 142/1/110
f 130/1/111 162/1/111 161/1/111 129/1/111
f 157/1/112 189/1/112 188/1/112 156/1/112
f 144/1/113 176/1/113 175/1/113 143/1/113
f 131/1/114 163/1/114 162/1/114 130/1/114
f 158/1/115 190/1/115 189/1/115 157/1/115
f 145/1/116 177/1/116 176/1/116 144/1/116
f 132/1/117 164/1/117 163/1/117 131/1/117
f 159/1/118 191/1/118 190/1/118 158/1/118
f 146/1/119 178/1/119 177/1/119 145/1/119
f 133/1/120 165/1/120 164/1/120 132/1/120
f 182/1/121 214/1/121 213/1/121 181/1/121
f 169/1/122 201/1/122 200/1/122 168/1/122
f 183/1/123 215/1/123 214/1/123 182/1/123
f 170/1/124 202/1/124 201/1/124 169/1/124
f 184/1/125 216/1/125 215/1/125 183/1/125
f 171/1/126 203/1/126 202/1/126 170/1/126
f 185/1/127 217/1/127 216/1/127 184/1/127
f 172/1/128 204/1/128 203/1/128 171/1/128
f 186/1/129 218/1/129 217/1/129 185/1/129
f 173/1/130 205/1/130 204/1/130 172/1/130
f 187/1/131 219/1/131 218/1/131 186/1/131
f 174/1/132 206/1/132 205/1/132 173/1/132
f 188/1/133 220/1/133 219/1/133 187/1/133
f 175/1/134 207/1/134 206/1/134 174/1/134
f 162/1/135 194/1/135 193/1/135 161/1/135
f 189/1/136 221/1/136 220/1/136 188/1/136
f 176/1/137 208/1/137 207/1/137 175/1/137
f 163/1/138 195/1/138 194/1/138 162/1/138
f 190/1/139 222/1/139 221/1/139 189/1/139
f 177/1/140 209/1/140 208/1/140 176/1/140
f 164/1/141 196/1/141 195/1/141 163/1/141
f 191/1/142 223/1/142 222/1/142 190/1/142
f 178/1/143 210/1/143 209/1/143 177/1/143
f 165/1/144 197/1/144 196/1/144 164/1/144
f 192/1/145 224/1/145 223/1/145 191/1/145
f 179/1/146 211/1/146 210/1/146 178/1/146
f 166/1/147 198/1/147 197/1/147 165/1/147
f 161/1/148 193/1/148 224/1/148 192/1/148
f 180/1/149 212/1/149 211/1/149 179/1/149
f 167/1/150 199/1/150 198/1/150 166/1/150
f 181/1/151 213/1/151 212/1/151 180/1/151
f 168/1/152 200/1/152 199/1/152 167/1/152
f 217/1/153 249/1/153 280/1/153 248/1/153 216/1/153
f 204/1/154 236/1/154 267/1/154 235/1/154 203/1/154
f 218/1/155 250/1/155 281/1/155 249/1/155 217/1/155
f 205/1/156 237/1/156 268/1/156 236/1/156 204/1/156
f 219/1/157 251/1/157 282/1/157 250/1/157 218/1/157
f 206/1/158 238/1/158 269/1/158 237/1/158 205/1/158
f 220/1/159 252/1/159 283/1/159 251/1/159 219/1/159
f 207/1/160 239/1/160 270/1/160 238/1/160 206/1/160
f 194/1/161 226/1/161 257/1/161 225/1/161 193/1/161
f 221/1/162 253/1/162 284/1/162 252/1/162 220/1/162
f 208/1/163 240/1/163 271/1/163 239/1/163 207/1/163
f 195/1/164 227/1/164 258/1/164 226/1/164 194/1/164
f 222/1/165 254/1/165 285/1/165 253/1/165 221/1/165
f 209/1/166 241/1/166 272/1/166 240/1/166 208/1/166
f 196/1/167 228/1/167 259/1/167 227/1/167 195/1/167
f 223/1/168 255/1/168 286/1/168 254/1/168 222/1/168
f 210/1/169 242/1/169 273/1/169 241/1/169 209/1/169
f 197/1/170 229/1/170 260/1/170 228/1/170 196/1/170
f 224/1/171 256/1/171 287/1/171 255/1/171 223/1/171
f 211/1/172 243/1/172 274/1/172 242/1/172 210/1/172
f 198/1/173 230/1/173 261/1/173 229/1/173 197/1/173
f 193/1/174 225/1/174 288/1/174 256/1/174 224/1/174
f 212/1/175 244/1/175 275/1/175 243/1/175 211/1/175
f 199/1/176 231/1/176 262/1/176 230/1/176 198/1/176
f 213/1/177 245/1/177 276/1/177 244/1/177 212/1/177
f 200/1/178 232/1/178 263/1/178 231/1/178 199/1/178
f 214/1/179 246/1/179 277/1/179 245/1/179 213/1/179
f 201/1/180 233/1/180 264/1/180 232/1/180 200/1/180
f 215/1/181 247/1/181 278/1/181 246/1/181 214/1/181
f 202/1/182 234/1/182 265/1/182 233/1/182 201/1/182
f 216/1/183 248/1/183 279/1/183 247/1/183 215/1/183
f 203/1/184 235/1/184 266/1/184 234/1/184 202/1/184
f 238/1/185 302/1/185 333/1/185 269/1/185
f 281/1/186 345/1/186 313/1/186 249/1/186
f 239/1/187 303/1/187 334/1/187 270/1/187
f 282/1/188 346/1/188 314/1/188 250/1/188
f 240/1/189 304/1/189 335/1/189 271/1/189
f 283/1/190 347/1/190 315/1/190 251/1/190
f 257/1/191 321/1/191 289/1/191 225/1/191
f 241/1/192 305/1/192 336/1/192 272/1/192
f 284/1/193 348/1/193 316/1/193 252/1/193
f 258/1/194 322/1/194 290/1/194 226/1/194
f 242/1/195 306/1/195 337/1/195 273/1/195
f 285/1/196 349/1/196 317/1/196 253/1/196
f 259/1/197 323/1/197 291/1/197 227/1/197
f 243/1/198 307/1/198 338/1/198 274/1/198
f 286/1/199 350/1/199 318/1/199 254/1/199
f 260/1/200 324/1/200 292/1/200 228/1/200
f 244/1/201 308/1/201 339/1/201 275/1/201
f 287/1/202 351/1/202 319/1/202 255/1/202
f 261/1/203 325/1/203 293/1/203 229/1/203
f 245/1/204 309/1/204 340/1/204 276/1/204
f 288/1/205 352/1/205 320/1/205 256/1/205
f 262/1/206 326/1/206 294/1/206 230/1/206
f 246/1/207 310/1/207 341/1/207 277/1/207
f 263/1/208 327/1/208 295/1/208 231/1/208
f 247/1/209 311/1/209 342/1/209 278/1/209
f 264/1/210 328/1/210 296/1/210 232/1/210
f 248/1/211 312/1/211 343/1/211 279/1/211
f 265/1/212 329/1/212 297/1/212 233/1/212
f 249/1/213 313/1/213 344/1/213 280/1/213
f 266/1/214 330/1/214 298/1/214 234/1/214
f 250/1/186 314/1/186 345/1/186 281/1/186
f 267/1/215 331/1/215 299/1/215 235/1/215
f 251/1/188 315/1/188 346/1/188 282/1/188
f 268/1/216 332/1/216 300/1/216 236/1/216
f 252/1/190 316/1/190 347/1/190 283/1/190
f 226/1/217 290/1/217 321/1/217 257/1/217
f 269/1/185 333/1/185 301/1/185 237/1/185
f 253/1/193 317/1/193 348/1/193 284/1/193
f 227/1/218 291/1/218 322/1/218 258/1/218
f 270/1/187 334/1/187 302/1/187 238/1/187
f 254/1/196 318/1/196 349/1/196 285/1/196
f 228/1/219 292/1/219 323/1/219 259/1/219
f 271/1/189 335/1/189 303/1/189 239/1/189
f 255/1/199 319/1/199 350/1/199 286/1/199
f 229/1/220 293/1/220 324/1/220 260/1/220
f 272/1/221 336/1/221 304/1/221 240/1/221
f 256/1/202 320/1/202 351/1/202 287/1/202
f 230/1/222 294/1/222 325/1/222 261/1/222
f 273/1/223 337/1/223 305/1/223 241/1/223
f 225/1/205 289/1/205 352/1/205 288/1/205
f 231/1/206 295/1/206 326/1/206 262/1/206
f 274/1/224 338/1/224 306/1/224 242/1/224
f 232/1/208 296/1/208 327/1/208 263/1/208
f 275/1/225 339/1/225 307/1/225 243/1/225
f 233/1/210 297/1/210 328/1/210 264/1/210
f 276/1/204 340/1/204 308/1/204 244/1/204
f 234/1/212 298/1/212 329/1/212 265/1/212
f 277/1/207 341/1/207 309/1/207 245/1/207
f 235/1/214 299/1/214 330/1/214 266/1/214
f 278/1/209 342/1/209 310/1/209 246/1/209
f 236/1/215 300/1/215 331/1/215 267/1/215
f 279/1/211 343/1/211 311/1/211 247/1/211
f 237/1/216 301/1/216 332/1/216 268/1/216
f 280/1/213 344/1/213 312/1/213 248/1/213
f 290/1/226 354/1/226 385/1/226 321/1/226
f 327/1/227 391/1/227 359/1/227 295/1/227
f 317/1/228 381/1/228 412/1/228 348/1/228
f 291/1/229 355/1/229 386/1/229 322/1/229
f 328/1/230 392/1/230 360/1/230 296/1/230
f 318/1/231 382/1/231 413/1/231 349/1/231
f 292/1/232 356/1/232 387/1/232 323/1/232
f 329/1/233 393/1/233 361/1/233 297/1/233
f 319/1/234 383/1/234 414/1/234 350/1/234
f 293/1/235 357/1/235 388/1/235 324/1/235
f 330/1/236 394/1/236 362/1/236 298/1/236
f 320/1/237 384/1/237 415/1/237 351/1/237
f 294/1/238 358/1/238 389/1/238 325/1/238
f 331/1/239 395/1/239 363/1/239 299/1/239
f 289/1/240 353/1/240 416/1/240 352/1/240
f 295/1/241 359/1/241 390/1/241 326/1/241
f 332/1/242 396/1/242 364/1/242 300/1/242
f 296/1/227 360/1/227 391/1/227 327/1/227
f 333/1/243 397/1/243 365/1/243 301/1/243
f 297/1/230 361/1/230 392/1/230 328/1/230
f 334/1/244 398/1/244 366/1/244 302/1/244
f 298/1/233 362/1/233 393/1/233 329/1/233
f 335/1/245 399/1/245 367/1/245 303/1/245
f 299/1/236 363/1/236 394/1/236 330/1/236
f 336/1/246 400/1/246 368/1/246 304/1/246
f 300/1/239 364/1/239 395/1/239 331/1/239
f 337/1/247 401/1/247 369/1/247 305/1/247
f 301/1/242 365/1/242 396/1/242 332/1/242
f 338/1/248 402/1/248 370/1/248 306/1/248
f 302/1/243 366/1/243 397/1/243 333/1/243
f 339/1/249 403/1/249 371/1/249 307/1/249
f 303/1/244 367/1/244 398/1/244 334/1/244
f 340/1/250 404/1/250 372/1/250 308/1/250
f 304/1/251 368/1/251 399/1/251 335/1/251
f 341/1/252 405/1/252 373/1/252 309/1/252
f 305/1/253 369/1/253 400/1/253 336/1/253
f 342/1/254 406/1/254 374/1/254 310/1/254
f 306/1/255 370/1/255 401/1/255 337/1/255
f 343/1/256 407/1/256 375/1/256 311/1/256
f 307/1/257 371/1/257 402/1/257 338/1/257
f 344/1/258 408/1/258 376/1/258 312/1/258
f 308/1/259 372/1/259 403/1/259 339/1/259
f 345/1/260 409/1/260 377/1/260 313/1/260
f 309/1/261 373/1/261 404/1/261 340/1/261
f 346/1/262 410/1/262 378/1/262 314/1/262
f 310/1/263 374/1/263 405/1/263 341/1/263
f 347/1/264 411/1/264 379/1/264 315/1/264
f 321/1/265 385/1/265 353/1/265 289/1/265
f 311/1/266 375/1/266 406/1/266 342/1/266
f 348/1/267 412/1/267 380/1/267 316/1/267
f 322/1/268 386/1/268 354/1/268 290/1/268
f 312/1/269 376/1/269 407/1/269 343/1/269
f 349/1/270 413/1/270 381/1/270 317/1/270
f 323/1/271 387/1/271 355/1/271 291/1/271
f 313/1/272 377/1/272 408/1/272 344/1/272
f 350/1/273 414/1/273 382/1/273 318/1/273
f 324/1/274 388/1/274 356/1/274 292/1/274
f 314/1/275 378/1/275 409/1/275 345/1/275
f 351/1/276 415/1/276 383/1/276 319/1/276
f 325/1/238 389/1/238 357/1/238 293/1/238
f 315/1/277 379/1/277 410/1/277 346/1/277
f 352/1/278 416/1/278 384/1/278 320/1/278
f 326/1/241 390/1/241 358/1/241 294/1/241
f 316/1/279 380/1/279 411/1/279 347/1/279
f 357/1/280 421/1/280 452/1/280 388/1/280
f 394/1/281 458/1/281 426/1/281 362/1/281
f 384/1/282 448/1/282 479/1/282 415/1/282
f 358/1/283 422/1/283 453/1/283 389/1/283
f 395/1/284 459/1/284 427/1/284 363/1/284
f 353/1/285 417/1/285 480/1/285 416/1/285
f 359/1/286 423/1/286 454/1/286 390/1/286
f 396/1/287 460/1/287 428/1/287 364/1/287
f 360/1/288 424/1/288 455/1/288 391/1/288
f 397/1/289 461/1/289 429/1/289 365/1/289
f 361/1/290 425/1/290 456/1/290 392/1/290
f 398/1/291 462/1/291 430/1/291 366/1/291
f 362/1/292 426/1/292 457/1/292 393/1/292
f 399/1/293 463/1/293 431/1/293 367/1/293
f 363/1/281 427/1/281 458/1/281 394/1/281
f 400/1/294 464/1/294 432/1/294 368/1/294
f 364/1/284 428/1/284 459/1/284 395/1/284
f 401/1/295 465/1/295 433/1/295 369/1/295
f 365/1/287 429/1/287 460/1/287 396/1/287
f 402/1/296 466/1/296 434/1/296 370/1/296
f 366/1/289 430/1/289 461/1/289 397/1/289
f 403/1/297 467/1/297 435/1/297 371/1/297
f 367/1/291 431/1/291 462/1/291 398/1/291
f 404/1/298 468/1/298 436/1/298 372/1/298
f 368/1/293 432/1/293 463/1/293 399/1/293
f 405/1/299 469/1/299 437/1/299 373/1/299
f 369/1/294 433/1/294 464/1/294 400/1/294
f 406/1/300 470/1/300 438/1/300 374/1/300
f 370/1/295 434/1/295 465/1/295 401/1/295
f 407/1/301 471/1/301 439/1/301 375/1/301
f 371/1/302 435/1/302 466/1/302 402/1/302
f 408/1/303 472/1/303 440/1/303 376/1/303
f 372/1/304 436/1/304 467/1/304 403/1/304
f 409/1/305 473/1/305 441/1/305 377/1/305
f 373/1/306 437/1/306 468/1/306 404/1/306
f 410/1/307 474/1/307 442/1/307 378/1/307
f 374/1/308 438/1/308 469/1/308 405/1/308
f 411/1/309 475/1/309 443/1/309 379/1/309
f 385/1/310 449/1/310 417/1/310 353/1/310
f 375/1/311 439/1/311 470/1/311 406/1/311
f 412/1/312 476/1/312 444/1/312 380/1/312
f 386/1/313 450/1/313 418/1/313 354/1/313
f 376/1/314 440/1/314 471/1/314 407/1/314
f 413/1/315 477/1/315 445/1/315 381/1/315
f 387/1/316 451/1/316 419/1/316 355/1/316
f 377/1/317 441/1/317 472/1/317 408/1/317
f 414/1/318 478/1/318 446/1/318 382/1/318
f 388/1/280 452/1/280 420/1/280 356/1/280
f 378/1/319 442/1/319 473/1/319 409/1/319
f 415/1/320 479/1/320 447/1/320 383/1/320
f 389/1/283 453/1/283 421/1/283 357/1/283
f 379/1/321 443/1/321 474/1/321 410/1/321
f 416/1/322 480/1/322 448/1/322 384/1/322
f 390/1/286 454/1/286 422/1/286 358/1/286
f 380/1/323 444/1/323 475/1/323 411/1/323
f 354/1/324 418/1/324 449/1/324 385/1/324
f 391/1/288 455/1/288 423/1/288 359/1/288
f 381/1/325 445/1/325 476/1/325 412/1/325
f 355/1/326 419/1/326 450/1/326 386/1/326
f 392/1/290 456/1/290 424/1/290 360/1/290
f 382/1/327 446/1/327 477/1/327 413/1/327
f 356/1/316 420/1/316 451/1/316 387/1/316
f 393/1/292 457/1/292 425/1/292 361/1/292
f 383/1/328 447/1/328 478/1/328 414/1/328
f 424/1/329 488/1/329 519/1/329 455/1/329
f 461/1/330 525/1/330 493/1/330 429/1/330
f 425/1/331 489/1/331 520/1/331 456/1/331
f 462/1/332 526/1/332 494/1/332 430/1/332
f 426/1/333 490/1/333 521/1/333 457/1/333
f 463/1/334 527/1/334 495/1/334 431/1/334
f 427/1/335 491/1/335 522/1/335 458/1/335
f 464/1/336 528/1/336 496/1/336 432/1/336
f 428/1/337 492/1/337 523/1/337 459/1/337
f 465/1/338 529/1/338 497/1/338 433/1/338
f 429/1/339 493/1/339 524/1/339 460/1/339
f 466/1/340 530/1/340 498/1/340 434/1/340
f 430/1/330 494/1/330 525/1/330 461/1/330
f 467/1/341 531/1/341 499/1/341 435/1/341
f 431/1/342 495/1/342 526/1/342 462/1/342
f 468/1/343 532/1/343 500/1/343 436/1/343
f 432/1/344 496/1/344 527/1/344 463/1/344
f 469/1/345 533/1/345 501/1/345 437/1/345
f 433/1/346 497/1/346 528/1/346 464/1/346
f 470/1/347 534/1/347 502/1/347 438/1/347
f 434/1/348 498/1/348 529/1/348 465/1/348
f 471/1/349 535/1/349 503/1/349 439/1/349
f 435/1/350 499/1/350 530/1/350 466/1/350
f 472/1/351 536/1/351 504/1/351 440/1/351
f 436/1/352 500/1/352 531/1/352 467/1/352
f 473/1/353 537/1/353 505/1/353 441/1/353
f 437/1/343 501/1/343 532/1/343 468/1/343
f 474/1/354 538/1/354 506/1/354 442/1/354
f 438/1/345 502/1/345 533/1/345 469/1/345
f 475/1/355 539/1/355 507/1/355 443/1/355
f 449/1/356 513/1/356 481/1/356 417/1/356
f 439/1/347 503/1/347 534/1/347 470/1/347
f 476/1/357 540/1/357 508/1/357 444/1/357
f 450/1/358 514/1/358 482/1/358 418/1/358
f 440/1/349 504/1/349 535/1/349 471/1/349
f 477/1/359 541/1/359 509/1/359 445/1/359
f 451/1/360 515/1/360 483/1/360 419/1/360
f 441/1/351 505/1/351 536/1/351 472/1/351
f 478/1/361 542/1/361 510/1/361 446/1/361
f 452/1/362 516/1/362 484/1/362 420/1/362
f 442/1/353 506/1/353 537/1/353 473/1/353
f 479/1/363 543/1/363 511/1/363 447/1/363
f 453/1/364 517/1/364 485/1/364 421/1/364
f 443/1/354 507/1/354 538/1/354 474/1/354
f 480/1/365 544/1/365 512/1/365 448/1/365
f 454/1/366 518/1/366 486/1/366 422/1/366
f 444/1/355 508/1/355 539/1/355 475/1/355
f 418/1/356 482/1/356 513/1/356 449/1/356
f 455/1/329 519/1/329 487/1/329 423/1/329
f 445/1/357 509/1/357 540/1/357 476/1/357
f 419/1/367 483/1/367 514/1/367 450/1/367
f 456/1/331 520/1/331 488/1/331 424/1/331
f 446/1/359 510/1/359 541/1/359 477/1/359
f 420/1/368 484/1/368 515/1/368 451/1/368
f 457/1/333 521/1/333 489/1/333 425/1/333
f 447/1/361 511/1/361 542/1/361 478/1/361
f 421/1/369 485/1/369 516/1/369 452/1/369
f 458/1/335 522/1/335 490/1/335 426/1/335
f 448/1/363 512/1/363 543/1/363 479/1/363
f 422/1/370 486/1/370 517/1/370 453/1/370
f 459/1/337 523/1/337 491/1/337 427/1/337
f 417/1/365 481/1/365 544/1/365 480/1/365
f 423/1/371 487/1/371 518/1/371 454/1/371
f 460/1/339 524/1/339 492/1/339 428/1/339
f 491/1/372 555/1/372 586/1/372 522/1/372
f 528/1/373 592/1/373 560/1/373 496/1/373
f 492/1/374 556/1/374 587/1/374 523/1/374
f 529/1/375 593/1/375 561/1/375 497/1/375
f 493/1/376 557/1/376 588/1/376 524/1/376
f 530/1/377 594/1/377 562/1/377 498/1/377
f 494/1/378 558/1/378 589/1/378 525/1/378
f 531/1/379 595/1/379 563/1/379 499/1/379
f 495/1/380 559/1/380 590/1/380 526/1/380
f 532/1/381 596/1/381 564/1/381 500/1/381
f 496/1/382 560/1/382 591/1/382 527/1/382
f 533/1/383 597/1/383 565/1/383 501/1/383
f 497/1/384 561/1/384 592/1/384 528/1/384
f 534/1/385 598/1/385 566/1/385 502/1/385
f 498/1/386 562/1/386 593/1/386 529/1/386
f 535/1/387 599/1/387 567/1/387 503/1/387
f 499/1/377 563/1/377 594/1/377 530/1/377
f 536/1/388 600/1/388 568/1/388 504/1/388
f 500/1/379 564/1/379 595/1/379 531/1/379
f 537/1/389 601/1/389 569/1/389 505/1/389
f 501/1/381 565/1/381 596/1/381 532/1/381
f 538/1/390 602/1/390 570/1/390 506/1/390
f 502/1/383 566/1/383 597/1/383 533/1/383
f 539/1/391 603/1/391 571/1/391 507/1/391
f 513/1/392 577/1/392 545/1/392 481/1/392
f 503/1/385 567/1/385 598/1/385 534/1/385
f 540/1/393 604/1/393 572/1/393 508/1/393
f 514/1/394 578/1/394 546/1/394 482/1/394
f 504/1/395 568/1/395 599/1/395 535/1/395
f 541/1/396 605/1/396 573/1/396 509/1/396
f 515/1/397 579/1/397 547/1/397 483/1/397
f 505/1/388 569/1/388 600/1/388 536/1/388
f 542/1/398 606/1/398 574/1/398 510/1/398
f 516/1/399 580/1/399 548/1/399 484/1/399
f 506/1/389 570/1/389 601/1/389 537/1/389
f 543/1/400 607/1/400 575/1/400 511/1/400
f 517/1/401 581/1/401 549/1/401 485/1/401
f 507/1/390 571/1/390 602/1/390 538/1/390
f 544/1/402 608/1/402 576/1/402 512/1/402
f 518/1/403 582/1/403 550/1/403 486/1/403
f 508/1/391 572/1/391 603/1/391 539/1/391
f 482/1/392 546/1/392 577/1/392 513/1/392
f 519/1/404 583/1/404 551/1/404 487/1/404
f 509/1/393 573/1/393 604/1/393 540/1/393
f 483/1/394 547/1/394 578/1/394 514/1/394
f 520/1/405 584/1/405 552/1/405 488/1/405
f 510/1/396 574/1/396 605/1/396 541/1/396
f 484/1/406 548/1/406 579/1/406 515/1/406
f 521/1/407 585/1/407 553/1/407 489/1/407
f 511/1/398 575/1/398 606/1/398 542/1/398
f 485/1/408 549/1/408 580/1/408 516/1/408
f 522/1/372 586/1/372 554/1/372 490/1/372
f 512/1/400 576/1/400 607/1/400 543/1/400
f 486/1/409 550/1/409 581/1/409 517/1/409
f 523/1/374 587/1/374 555/1/374 491/1/374
f 481/1/402 545/1/402 608/1/402 544/1/402
f 487/1/410 551/1/410 582/1/410 518/1/410
f 524/1/376 588/1/376 556/1/376 492/1/376
f 488/1/404 552/1/404 583/1/404 519/1/404
f 525/1/378 589/1/378 557/1/378 493/1/378
f 489/1/405 553/1/405 584/1/405 520/1/405
f 526/1/411 590/1/411 558/1/411 494/1/411
f 490/1/407 554/1/407 585/1/407 521/1/407
f 527/1/412 591/1/412 559/1/412 495/1/412
f 558/1/413 622/1/413 653/1/413 589/1/413
f 595/1/414 659/1/414 627/1/414 563/1/414
f 559/1/415 623/1/415 654/1/415 590/1/415
f 596/1/416 660/1/416 628/1/416 564/1/416
f 560/1/417 624/1/417 655/1/417 591/1/417
f 597/1/418 661/1/418 629/1/418 565/1/418
f 561/1/419 625/1/419 656/1/419 592/1/419
f 598/1/420 662/1/420 630/1/420 566/1/420
f 562/1/421 626/1/421 657/1/421 593/1/421
f 599/1/422 663/1/422 631/1/422 567/1/422
f 563/1/423 627/1/423 658/1/423 594/1/423
f 600/1/424 664/1/424 632/1/424 568/1/424
f 564/1/414 628/1/414 659/1/414 595/1/414
f 601/1/425 665/1/425 633/1/425 569/1/425
f 565/1/416 629/1/416 660/1/416 596/1/416
f 602/1/426 666/1/426 634/1/426 570/1/426
f 566/1/418 630/1/418 661/1/418 597/1/418
f 603/1/427 667/1/427 635/1/427 571/1/427
f 577/1/428 641/1/428 609/1/428 545/1/428
f 567/1/420 631/1/420 662/1/420 598/1/420
f 604/1/429 668/1/429 636/1/429 572/1/429
f 578/1/430 642/1/430 610/1/430 546/1/430
f 568/1/422 632/1/422 663/1/422 599/1/422
f 605/1/431 669/1/431 637/1/431 573/1/431
f 579/1/432 643/1/432 611/1/432 547/1/432
f 569/1/424 633/1/424 664/1/424 600/1/424
f 606/1/433 670/1/433 638/1/433 574/1/433
f 580/1/434 644/1/434 612/1/434 548/1/434
f 570/1/425 634/1/425 665/1/425 601/1/425
f 607/1/435 671/1/435 639/1/435 575/1/435
f 581/1/436 645/1/436 613/1/436 549/1/436
f 571/1/426 635/1/426 666/1/426 602/1/426
f 608/1/437 672/1/437 640/1/437 576/1/437
f 582/1/438 646/1/438 614/1/438 550/1/438
f 572/1/427 636/1/427 667/1/427 603/1/427
f 546/1/428 610/1/428 641/1/428 577/1/428
f 583/1/439 647/1/439 615/1/439 551/1/439
f 573/1/429 637/1/429 668/1/429 604/1/429
f 547/1/430 611/1/430 642/1/430 578/1/430
f 584/1/440 648/1/440 616/1/440 552/1/440
f 574/1/431 638/1/431 669/1/431 605/1/431
f 548/1/441 612/1/441 643/1/441 579/1/441
f 585/1/442 649/1/442 617/1/442 553/1/442
f 575/1/433 639/1/433 670/1/433 606/1/433
f 549/1/443 613/1/443 644/1/443 580/1/443
f 586/1/444 650/1/444 618/1/444 554/1/444
f 576/1/435 640/1/435 671/1/435 607/1/435
f 550/1/445 614/1/445 645/1/445 581/1/445
f 587/1/446 651/1/446 619/1/446 555/1/446
f 545/1/437 609/1/437 672/1/437 608/1/437
f 551/1/447 615/1/447 646/1/447 582/1/447
f 588/1/448 652/1/448 620/1/448 556/1/448
f 552/1/449 616/1/449 647/1/449 583/1/449
f 589/1/450 653/1/450 621/1/450 557/1/450
f 553/1/451 617/1/451 648/1/451 584/1/451
f 590/1/452 654/1/452 622/1/452 558/1/452
f 554/1/453 618/1/453 649/1/453 585/1/453
f 591/1/454 655/1/454 623/1/454 559/1/454
f 555/1/455 619/1/455 650/1/455 586/1/455
f 592/1/456 656/1/456 624/1/456 560/1/456
f 556/1/457 620/1/457 651/1/457 587/1/457
f 593/1/458 657/1/458 625/1/458 561/1/458
f 557/1/459 621/1/459 652/1/459 588/1/459
f 594/1/423 658/1/423 626/1/423 562/1/423
f 625/1/460 689/1/460 720/1/460 656/1/460
f 709/1/461 810/1/461 782/1/461 678/1/461
f 611/1/462 740/1/462 737/1/462 642/1/462
f 641/1/463 769/1/463 809/1/463 705/1/463
f 649/1/464 771/1/464 811/1/464 713/1/464
f 664/1/460 728/1/460 696/1/460 632/1/460
f 628/1/465 692/1/465 723/1/465 659/1/465
f 665/1/460 729/1/460 697/1/460 633/1/460
f 629/1/466 693/1/466 724/1/466 660/1/466
f 682/1/467 786/1/467 785/1/467 714/1/467
f 647/1/468 743/1/468 744/1/468 615/1/468
f 610/1/464 738/1/464 769/1/464 641/1/464
f 641/1/469 705/1/469 673/1/469 609/1/469
f 734/1/470 805/1/470 808/1/470 703/1/470
f 668/1/460 732/1/460 700/1/460 636/1/460
f 646/1/471 741/1/471 742/1/471 614/1/471
f 632/1/460 696/1/460 727/1/460 663/1/460
f 669/1/460 733/1/460 701/1/460 637/1/460
f 635/1/467 764/1/467 761/1/467 666/1/467
f 633/1/460 697/1/460 728/1/460 664/1/460
f 733/1/472 816/1/472 806/1/472 702/1/472
f 644/1/473 708/1/473 676/1/473 612/1/473
f 731/1/474 803/1/474 763/1/474 667/1/474
f 706/1/475 777/1/475 780/1/475 675/1/475
f 645/1/460 709/1/460 677/1/460 613/1/460
f 671/1/476 767/1/476 768/1/476 639/1/476
f 672/1/460 736/1/460 704/1/460 640/1/460
f 634/1/477 762/1/477 775/1/477 665/1/477
f 636/1/460 700/1/460 731/1/460 667/1/460
f 679/1/478 784/1/478 783/1/478 711/1/478
f 705/1/479 809/1/479 778/1/479 674/1/479
f 637/1/460 701/1/460 732/1/460 668/1/460
f 670/1/480 765/1/480 766/1/480 638/1/480
f 648/1/460 712/1/460 680/1/460 616/1/460
f 661/1/472 774/1/472 814/1/472 725/1/472
f 612/1/481 676/1/481 707/1/481 643/1/481
f 649/1/460 713/1/460 681/1/460 617/1/460
f 711/1/482 783/1/482 743/1/482 647/1/482
f 613/1/460 677/1/460 708/1/460 644/1/460
f 678/1/483 782/1/483 781/1/483 710/1/483
f 640/1/460 704/1/460 735/1/460 671/1/460
f 643/1/474 739/1/474 740/1/474 611/1/474
f 730/1/484 801/1/484 804/1/484 699/1/484
f 609/1/460 673/1/460 736/1/460 672/1/460
f 642/1/462 737/1/462 738/1/462 610/1/462
f 652/1/460 716/1/460 684/1/460 620/1/460
f 616/1/460 680/1/460 711/1/460 647/1/460
f 653/1/460 717/1/460 685/1/460 621/1/460
f 617/1/460 681/1/460 712/1/460 648/1/460
f 703/1/482 808/1/482 807/1/482 735/1/482
f 631/1/483 760/1/483 757/1/483 662/1/483
f 729/1/485 815/1/485 802/1/485 698/1/485
f 702/1/470 806/1/470 805/1/470 734/1/470
f 656/1/460 720/1/460 688/1/460 624/1/460
f 620/1/460 684/1/460 715/1/460 651/1/460
f 657/1/460 721/1/460 689/1/460 625/1/460
f 621/1/460 685/1/460 716/1/460 652/1/460
f 667/1/486 763/1/486 764/1/486 635/1/486
f 630/1/461 758/1/461 774/1/461 661/1/461
f 675/1/487 780/1/487 779/1/487 707/1/487
f 666/1/467 761/1/467 762/1/467 634/1/467
f 660/1/488 724/1/488 692/1/488 628/1/488
f 624/1/460 688/1/460 719/1/460 655/1/460
f 661/1/460 725/1/460 693/1/460 629/1/460
f 705/1/489 674/1/489 706/1/489 675/1/489 707/1/489 676/1/489 708/1/489 677/1/489 709/1/489 678/1/489 710/1/489 679/1/489 711/1/489 680/1/489 712/1/489 681/1/489 713/1/489 682/1/489 714/1/489 683/1/489 715/1/489 684/1/489 716/1/489 685/1/489 717/1/489 686/1/489 718/1/489 687/1/489 719/1/489 688/1/489 720/1/489 689/1/489 721/1/489 690/1/489 722/1/489 691/1/489 723/1/489 692/1/489 724/1/489 693/1/489 725/1/489 694/1/489 726/1/489 695/1/489 727/1/489 696/1/489 728/1/489 697/1/489 729/1/489 698/1/489 730/1/489 699/1/489 731/1/489 700/1/489 732/1/489 701/1/489 733/1/489 702/1/489 734/1/489 703/1/489 735/1/489 704/1/489 736/1/489 673/1/489
f 2/1/1 1/1/1 32/1/1 31/1/1 30/1/1 29/1/1 28/1/1 27/1/1 26/1/1 25/1/1 24/1/1 23/1/1 22/1/1 21/1/1 20/1/1 19/1/1 18/1/1 17/1/1 16/1/1 15/1/1 14/1/1 13/1/1 12/1/1 11/1/1 10/1/1 9/1/1 8/1/1 7/1/1 6/1/1 5/1/1 4/1/1 3/1/1
f 757/1/460 797/1/460 798/1/460 758/1/460
f 754/1/460 794/1/460 813/1/460 773/1/460
f 759/1/460 799/1/460 800/1/460 760/1/460
f 756/1/490 796/1/490 793/1/490 753/1/490
f 761/1/460 801/1/460 802/1/460 762/1/460
f 758/1/460 798/1/460 814/1/460 774/1/460
f 763/1/460 803/1/460 804/1/460 764/1/460
f 760/1/460 800/1/460 797/1/460 757/1/460
f 737/1/491 777/1/491 778/1/491 738/1/491
f 739/1/492 779/1/492 780/1/492 740/1/492
f 765/1/460 805/1/460 806/1/460 766/1/460
f 762/1/460 802/1/460 815/1/460 775/1/460
f 767/1/460 807/1/460 808/1/460 768/1/460
f 764/1/460 804/1/460 801/1/460 761/1/460
f 741/1/460 781/1/460 782/1/460 742/1/460
f 738/1/493 778/1/493 809/1/493 769/1/493
f 743/1/460 783/1/460 784/1/460 744/1/460
f 740/1/494 780/1/494 777/1/494 737/1/494
f 766/1/460 806/1/460 816/1/460 776/1/460
f 768/1/460 808/1/460 805/1/460 765/1/460
f 745/1/460 785/1/460 786/1/460 746/1/460
f 742/1/460 782/1/460 810/1/460 770/1/460
f 747/1/495 787/1/495 788/1/495 748/1/495
f 744/1/460 784/1/460 781/1/460 741/1/460
f 749/1/460 789/1/460 790/1/460 750/1/460
f 746/1/460 786/1/460 811/1/460 771/1/460
f 751/1/460 791/1/460 792/1/460 752/1/460
f 748/1/496 788/1/496 785/1/496 745/1/496
f 753/1/497 793/1/497 794/1/497 754/1/497
f 750/1/498 790/1/498 812/1/498 772/1/498
f 755/1/499 795/1/499 796/1/499 756/1/499
f 752/1/460 792/1/460 789/1/460 749/1/460
f 683/1/500 788/1/500 787/1/500 715/1/500
f 638/1/501 766/1/501 776/1/501 669/1/501
f 710/1/483 781/1/483 784/1/483 679/1/483
f 639/1/480 768/1/480 765/1/480 670/1/480
f 650/1/484 745/1/484 746/1/484 618/1/484
f 614/1/502 742/1/502 770/1/502 645/1/502
f 686/1/480 790/1/480 789/1/480 718/1/480
f 651/1/503 747/1/503 748/1/503 619/1/503
f 715/1/504 787/1/504 747/1/504 651/1/504
f 713/1/477 811/1/477 786/1/477 682/1/477
f 615/1/471 744/1/471 741/1/471 646/1/471
f 687/1/476 792/1/476 791/1/476 719/1/476
f 714/1/505 785/1/505 788/1/505 683/1/505
f 669/1/461 776/1/461 816/1/461 733/1/461
f 657/1/485 773/1/485 813/1/485 721/1/485
f 654/1/470 749/1/470 750/1/470 622/1/470
f 618/1/485 746/1/485 771/1/485 649/1/485
f 655/1/482 751/1/482 752/1/482 623/1/482
f 690/1/506 794/1/506 793/1/506 722/1/506
f 653/1/502 772/1/502 812/1/502 717/1/502
f 707/1/507 779/1/507 739/1/507 643/1/507
f 717/1/501 812/1/501 790/1/501 686/1/501
f 619/1/484 748/1/484 745/1/484 650/1/484
f 691/1/508 796/1/508 795/1/508 723/1/508
f 727/1/476 799/1/476 759/1/476 663/1/476
f 718/1/480 789/1/480 792/1/480 687/1/480
f 658/1/509 753/1/509 754/1/509 626/1/509
f 622/1/472 750/1/472 772/1/472 653/1/472
f 659/1/504 755/1/504 756/1/504 627/1/504
f 694/1/471 798/1/471 797/1/471 726/1/471
f 719/1/478 791/1/478 751/1/478 655/1/478
f 721/1/464 813/1/464 794/1/464 690/1/464
f 623/1/470 752/1/470 749/1/470 654/1/470
f 695/1/468 800/1/468 799/1/468 727/1/468
f 722/1/510 793/1/510 796/1/510 691/1/510
f 735/1/468 807/1/468 767/1/468 671/1/468
f 723/1/511 795/1/511 755/1/511 659/1/511
f 662/1/483 757/1/483 758/1/483 630/1/483
f 626/1/512 754/1/512 773/1/512 657/1/512
f 698/1/484 802/1/484 801/1/484 730/1/484
f 663/1/478 759/1/478 760/1/478 631/1/478
f 645/1/501 770/1/501 810/1/501 709/1/501
f 725/1/502 814/1/502 798/1/502 694/1/502
f 627/1/509 756/1/509 753/1/509 658/1/509
f 699/1/503 804/1/503 803/1/503 731/1/503
f 665/1/512 775/1/512 815/1/512 729/1/512
f 726/1/471 797/1/471 800/1/471 695/1/471
f 674/1/513 778/1/513 777/1/513 706/1/513
