# Cavalo de Xadrez Low Poly - Manual
# Escala: 0.0 a 1.6 | ~110 linhas

# --- VÉRTICES ---
# BASE (y=0.0 a 0.2)
v  0.40 0.00 0.00   # 1
v  0.28 0.00 0.28   # 2
v  0.00 0.00 0.40   # 3
v -0.28 0.00 0.28   # 4
v -0.40 0.00 0.00   # 5
v -0.28 0.00 -0.28  # 6
v  0.00 0.00 -0.40  # 7
v  0.28 0.00 -0.28  # 8

v  0.35 0.20 0.00   # 9
v  0.25 0.20 0.25   # 10
v  0.00 0.20 0.35   # 11
v -0.25 0.20 0.25   # 12
v -0.35 0.20 0.00   # 13
v -0.25 0.20 -0.25  # 14
v  0.00 0.20 -0.35  # 15
v  0.25 0.20 -0.25  # 16

# CORPO / PEITO (y=0.2 a 0.8)
# O peito (Z+) vai para frente, as costas (Z-) ficam retas
v  0.20 0.80 0.30   # 17 (Peito Frente Esq)
v -0.20 0.80 0.30   # 18 (Peito Frente Dir)
v -0.20 0.80 -0.10  # 19 (Costas Esq)
v  0.20 0.80 -0.10  # 20 (Costas Dir)

# PESCOÇO (y=1.1)
v  0.15 1.10 0.40   # 21 (Frente Pescoço Esq)
v -0.15 1.10 0.40   # 22 (Frente Pescoço Dir)
v -0.15 1.10 -0.05  # 23 (Crina Esq)
v  0.15 1.10 -0.05  # 24 (Crina Dir)

# CABEÇA / FOCINHO (y=1.4 a 1.5)
v  0.12 1.30 0.60   # 25 (Ponta Focinho Esq)
v -0.12 1.30 0.60   # 26 (Ponta Focinho Dir)
v -0.12 1.50 0.20   # 27 (Topo Cabeça Esq)
v  0.12 1.50 0.20   # 28 (Topo Cabeça Dir)
v -0.12 1.45 -0.10  # 29 (Fim da Crina Esq)
v  0.12 1.45 -0.10  # 30 (Fim da Crina Dir)

# ORELHAS
v  0.08 1.65 0.15   # 31 (Orelha Esq)
v -0.08 1.65 0.15   # 32 (Orelha Dir)

# --- FACES ---
# Base (Círculo)
f 1 2 10 9
f 2 3 11 10
f 3 4 12 11
f 4 5 13 12
f 5 6 14 13
f 6 7 15 14
f 7 8 16 15
f 8 1 9 16

# Conexão Base para Corpo (Quadrangular)
f 9 10 17 20
f 10 11 17
f 11 12 18 17
f 12 13 19 18
f 13 14 19
f 14 15 20 19
f 15 16 20

# Laterais do Corpo
f 17 18 22 21
f 18 19 23 22
f 19 20 24 23
f 20 17 21 24

# Cabeça e Focinho
f 21 22 26 25
f 22 23 27 26
f 23 24 28 27
f 24 21 25 28

# Topo da Cabeça e Crina
f 27 28 30 29
f 25 26 27 28

# Orelhas (Triângulos)
f 27 32 29
f 28 30 31

# Fechamento Focinho (Frente)
f 25 30 29 26

# Chao
f 8 7 6 5 4 3 2 1