# Bispo de Xadrez Staunton - Finalizado
# Com Areola no Pescoço e Bolinha no Topo
# 113 Vertices | Indices 1 a 113

# --- VERTICES ---
# Base e Corpo (y=0.0 a 0.5)
v 0.4000 0.0000 0.0000
v 0.2828 0.0000 0.2828
v 0.0000 0.0000 0.4000
v -0.2828 0.0000 0.2828
v -0.4000 0.0000 0.0000
v -0.2828 0.0000 -0.2828
v -0.0000 0.0000 -0.4000
v 0.2828 0.0000 -0.2828
v 0.3500 0.1000 0.0000
v 0.2475 0.1000 0.2475
v 0.0000 0.1000 0.3500
v -0.2475 0.1000 0.2475
v -0.3500 0.1000 0.0000
v -0.2475 0.1000 -0.2475
v -0.0000 0.1000 -0.3500
v 0.2475 0.1000 -0.2475
v 0.2500 0.2000 0.0000
v 0.1768 0.2000 0.1768
v 0.0000 0.2000 0.2500
v -0.1768 0.2000 0.1768
v -0.2500 0.2000 0.0000
v -0.1768 0.2000 -0.1768
v -0.0000 0.2000 -0.2500
v 0.1768 0.2000 -0.1768

# Pescoço e Areola (y=0.5 a 0.85)
v 0.1200 0.5000 0.0000
v 0.0849 0.5000 0.0849
v 0.0000 0.5000 0.1200
v -0.0849 0.5000 0.0849
v -0.1200 0.5000 0.0000
v -0.0849 0.5000 -0.0849
v -0.0000 0.5000 -0.1200
v 0.0849 0.5000 -0.0849
v 0.1200 0.6700 0.0000
v 0.0849 0.6700 0.0849
v 0.0000 0.6700 0.1200
v -0.0849 0.6700 0.0849
v -0.1200 0.6700 0.0000
v -0.0849 0.6700 -0.0849
v -0.0000 0.6700 -0.1200
v 0.0849 0.6700 -0.0849
v 0.2200 0.7000 0.0000   # Areola (ponto largo)
v 0.1556 0.7000 0.1556
v 0.0000 0.7000 0.2200
v -0.1556 0.7000 0.1556
v -0.2200 0.7000 0.0000
v -0.1556 0.7000 -0.1556
v -0.0000 0.7000 -0.2200
v 0.1556 0.7000 -0.1556
v 0.1200 0.7300 0.0000
v 0.0849 0.7300 0.0849
v 0.0000 0.7300 0.1200
v -0.0849 0.7300 0.0849
v -0.1200 0.7300 0.0000
v -0.0849 0.7300 -0.0849
v -0.0000 0.7300 -0.1200
v 0.0849 0.7300 -0.0849
v 0.1000 0.8500 0.0000
v 0.0707 0.8500 0.0707
v 0.0000 0.8500 0.1000
v -0.0707 0.8500 0.0707
v -0.1000 0.8500 0.0000
v -0.0707 0.8500 -0.0707
v -0.0000 0.8500 -0.1000
v 0.0707 0.8500 -0.0707

# Cabeca (y=0.95 a 1.38)
v 0.2200 0.9500 0.0000
v 0.1556 0.9500 0.1556
v 0.0000 0.9500 0.2200
v -0.1556 0.9500 0.1556
v -0.2200 0.9500 0.0000
v -0.1556 0.9500 -0.1556
v -0.0000 0.9500 -0.2200
v 0.1556 0.9500 -0.1556
v 0.2800 1.1500 0.0000
v 0.1980 1.1500 0.1980
v 0.0000 1.1500 0.2800
v -0.1980 1.1500 0.1980
v -0.2800 1.1500 0.0000
v -0.1980 1.1500 -0.1980
v -0.0000 1.1500 -0.2800
v 0.1980 1.1500 -0.1980
v 0.1000 1.3800 0.0000
v 0.0707 1.3800 0.0707
v 0.0000 1.3800 0.1000
v -0.0707 1.3800 0.0707
v -0.1000 1.3800 0.0000
v -0.0707 1.3800 -0.0707
v -0.0000 1.3800 -0.1000
v 0.0707 1.3800 -0.0707

# Bolinha (y=1.42 a 1.62)
v 0.0500 1.4200 0.0000
v 0.0354 1.4200 0.0354
v 0.0000 1.4200 0.0500
v -0.0354 1.4200 0.0354
v -0.0500 1.4200 0.0000
v -0.0354 1.4200 -0.0354
v -0.0000 1.4200 -0.0500
v 0.0354 1.4200 -0.0354
v 0.1300 1.5000 0.0000
v 0.0919 1.5000 0.0919
v 0.0000 1.5000 0.1300
v -0.0919 1.5000 0.0919
v -0.1300 1.5000 0.0000
v -0.0919 1.5000 -0.0919
v -0.0000 1.5000 -0.1300
v 0.0919 1.5000 -0.0919
v 0.0800 1.5700 0.0000
v 0.0566 1.5700 0.0566
v 0.0000 1.5700 0.0800
v -0.0566 1.5700 0.0566
v -0.0800 1.5700 0.0000
v -0.0566 1.5700 -0.0566
v -0.0000 1.5700 -0.0800
v 0.0566 1.5700 -0.0566
v 0.0000 1.6200 0.0000

# --- FACES ---
# (As conexões entre os anéis)
f 1 2 10 9
f 2 3 11 10
f 3 4 12 11
f 4 5 13 12
f 5 6 14 13
f 6 7 15 14
f 7 8 16 15
f 8 1 9 16
f 9 10 18 17
f 10 11 19 18
f 11 12 20 19
f 12 13 21 20
f 13 14 22 21
f 14 15 23 22
f 15 16 24 23
f 16 9 17 24
f 17 18 26 25
f 18 19 27 26
f 19 20 28 27
f 20 21 29 28
f 21 22 30 29
f 22 23 31 30
f 23 24 32 31
f 24 17 25 32
f 25 26 34 33
f 26 27 35 34
f 27 28 36 35
f 28 29 37 36
f 29 30 38 37
f 30 31 39 38
f 31 32 40 39
f 32 25 33 40
f 33 34 42 41 # Início da Areola
f 34 35 43 42
f 35 36 44 43
f 36 37 45 44
f 37 38 46 45
f 38 39 47 46
f 39 40 48 47
f 40 33 41 48
f 41 42 50 49 # Fim da Areola
f 42 43 51 50
f 43 44 52 51
f 44 45 53 52
f 45 46 54 53
f 46 47 55 54
f 47 48 56 55
f 48 41 49 56
f 49 50 58 57
f 50 51 59 58
f 51 52 60 59
f 52 53 61 60
f 53 54 62 61
f 54 55 63 62
f 55 56 64 63
f 56 49 57 64
f 57 58 66 65
f 58 59 67 66
f 59 60 68 67
f 60 61 69 68
f 61 62 70 69
f 62 63 71 70
f 63 64 72 71
f 64 57 65 72
f 65 66 74 73
f 66 67 75 74
f 67 68 76 75
f 68 69 77 76
f 69 70 78 77
f 70 71 79 78
f 71 72 80 79
f 72 65 73 80
f 73 74 82 81
f 74 75 83 82
f 75 76 84 83
f 76 77 85 84
f 77 78 86 85
f 78 79 87 86
f 79 80 88 87
f 80 73 81 88
f 81 82 90 89
f 82 83 91 90
f 83 84 92 91
f 84 85 93 92
f 85 86 94 93
f 86 87 95 94
f 87 88 96 95
f 88 81 89 96
f 89 90 98 97
f 90 91 99 98
f 91 92 100 99
f 92 93 101 100
f 93 94 102 101
f 94 95 103 102
f 95 96 104 103
f 96 89 97 104
f 97 98 106 105
f 98 99 107 106
f 99 100 108 107
f 100 101 109 108
f 101 102 110 109
f 102 103 111 110
f 103 104 112 111
f 104 97 105 112
f 105 106 113 # Bolinha
f 106 107 113
f 107 108 113
f 108 109 113
f 109 110 113
f 110 111 113
f 111 112 113
f 112 105 113
f 8 7 6 5 4 3 2 1 # Chao