# Object Export From Tinkercad Server 2015

mtllib obj.mtl

o obj_0
v 0.002545012165450121 -4.827068126520681 -2.234430656934304
v 0.6025450121654501 -4.788068126520681 -2.234430656934304
v 1.1935450121654503 -4.670068126520681 -2.234430656934304
v 1.7625450121654502 -4.477068126520681 -2.234430656934304
v 4.3645450121654505 0.3469318734793187 4.165569343065695
v 4.402545012165451 -0.22706812652068126 4.165569343065695
v 4.2525450121654504 0.9119318734793187 4.165569343065695
v 3.00254501216545 0.27293187347931874 5.899569343065696
v 3.00254501216545 0.4799318734793187 6.058569343065695
v 3.00254501216545 0.03193187347931875 5.799569343065695
v -2.99745498783455 -1.1720681265206812 7.0865693430656975
v -2.99745498783455 -1.0930681265206812 7.265569343065696
v 3.00254501216545 -0.22706812652068126 5.765569343065696
v 3.00254501216545 0.6679318734793187 6.324569343065697
v 3.00254501216545 0.7509318734793187 6.570569343065696
v 3.00254501216545 0.7179318734793187 7.0865693430656975
v -2.99745498783455 -1.1220681265206813 6.324569343065697
v -2.99745498783455 -1.2050681265206813 6.570569343065696
v -2.99745498783455 -1.2220681265206812 6.831569343065695
v -2.99745498783455 -0.5480681265206813 5.820569343065696
v -2.99745498783455 -0.8580681265206813 5.997569343065695
v -2.59545498783455 -1.7270681265206813 -2.234430656934304
v -2.37745498783455 -2.053068126520681 -2.234430656934304
v -2.89545498783455 -1.0030681265206813 -2.234430656934304
v 0.4435450121654501 0.6679318734793187 7.207569343065696
v -2.99745498783455 -0.22706812652068126 -2.234430656934304
v -2.97145498783455 -0.6190681265206812 -2.234430656934304
v -2.76945498783455 -1.3750681265206812 -2.234430656934304
v -0.9754549878345499 -0.42206812652068126 4.165569343065695
v -0.8924549878345499 -0.6680681265206813 4.165569343065695
v 0.002545012165450121 0.7729318734793187 6.765569343065696
v 0.2615450121654501 0.7389318734793187 6.506569343065696
v -0.7474549878345499 -0.8850681265206812 4.165569343065695
v -0.4384549878345499 -1.1220681265206813 4.165569343065695
v -0.1924549878345499 -1.2050681265206813 4.165569343065695
v 0.002545012165450121 -1.2270681265206813 4.165569343065695
v 0.4435450121654501 0.6679318734793187 6.324569343065697
v 0.19754501216545012 0.7509318734793187 6.960569343065696
v -0.7734549878345499 -3.1250681265206812 -2.234430656934304
v -0.3894549878345499 -3.2010681265206813 -2.234430656934304
v 0.8975450121654501 0.21393187347931875 5.870569343065696
v -1.4974549878345498 -2.825068126520681 -2.234430656934304
v -4.06245498783455 -1.9110681265206813 4.165569343065695
v -1.1454549878345497 -2.999068126520681 -2.234430656934304
v 0.9805450121654501 -0.03206812652068125 5.7875693430656945
v 0.002545012165450121 -3.227068126520681 -2.234430656934304
v -1.8234549878345498 -2.607068126520681 -2.234430656934304
v -3.80845498783455 -2.4270681265206813 4.165569343065695
v -3.48845498783455 -2.906068126520681 4.165569343065695
v -3.10845498783455 -3.3380681265206813 4.165569343065695
v -2.67645498783455 -3.718068126520681 4.165569343065695
v -2.19745498783455 -4.038068126520681 4.165569343065695
v -1.6814549878345497 -4.2920681265206815 4.165569343065695
v 0.7955450121654501 0.38193187347931873 5.972569343065697
v -3.98145498783455 -2.527068126520681 -2.234430656934304
v -3.64645498783455 -3.027068126520681 -2.234430656934304
v -3.25045498783455 -3.480068126520681 -2.234430656934304
v -2.79745498783455 -3.876068126520681 -2.234430656934304
v -2.29745498783455 -4.211068126520681 -2.234430656934304
v -2.11845498783455 -2.348068126520681 -2.234430656934304
v 0.6605450121654501 0.5229318734793187 6.107569343065695
v -4.39745498783455 -0.22706812652068126 4.165569343065695
v -4.35945498783455 -0.8010681265206812 4.165569343065695
v -4.2474549878345496 -1.3660681265206813 4.165569343065695
v 0.8975450121654501 -0.6680681265206813 5.870569343065696
v 0.7955450121654501 -0.8360681265206813 5.972569343065697
v -1.1364549878345498 -4.477068126520681 4.165569343065695
v -0.5714549878345498 -4.589068126520681 4.165569343065695
v 0.002545012165450121 -4.6270681265206814 4.165569343065695
v 0.9805450121654501 -0.42206812652068126 5.7875693430656945
v 1.0025450121654502 -0.22706812652068126 5.765569343065696
v 4.067545012165451 -1.9110681265206813 4.165569343065695
v 0.19754501216545012 -1.2050681265206813 4.165569343065695
v -2.99745498783455 -0.22706812652068126 -0.8344306569343054
v 0.6115450121654501 -1.0200681265206812 4.165569343065695
v -2.89545498783455 -1.0030681265206813 -0.8344306569343054
v 0.4435450121654501 -1.1220681265206813 4.165569343065695
v -2.76945498783455 -1.3750681265206812 -0.8344306569343054
v -2.59545498783455 -1.7270681265206813 -0.8344306569343054
v -2.37745498783455 -2.053068126520681 -0.8344306569343054
v 0.9805450121654501 -0.42206812652068126 4.165569343065695
v -4.440454987834549 -1.4180681265206814 -2.234430656934304
v -4.2474549878345496 -1.9870681265206813 -2.234430656934304
v 0.8975450121654501 -0.6680681265206813 4.165569343065695
v -4.597454987834549 -0.22706812652068126 -2.234430656934304
v -4.5584549878345495 -0.8270681265206812 -2.234430656934304
v -1.7574549878345498 -4.477068126520681 -2.234430656934304
v -1.8234549878345498 -2.607068126520681 -0.8344306569343054
v -1.1884549878345498 -4.670068126520681 -2.234430656934304
v -1.1454549878345497 -2.999068126520681 -0.8344306569343054
v -0.5974549878345499 -4.788068126520681 -2.234430656934304
v -1.4974549878345498 -2.825068126520681 -0.8344306569343054
v -0.7734549878345499 -3.1250681265206812 -0.8344306569343054
v 0.002545012165450121 -3.227068126520681 -0.8344306569343054
v 1.6865450121654502 -4.2920681265206815 4.165569343065695
v 2.20254501216545 -4.038068126520681 4.165569343065695
v 2.68154501216545 -3.718068126520681 4.165569343065695
v 3.11354501216545 -3.3380681265206813 4.165569343065695
v 3.49354501216545 -2.906068126520681 4.165569343065695
v 3.81354501216545 -2.4270681265206813 4.165569343065695
v -3.98145498783455 -2.527068126520681 -0.8344306569343054
v -3.64645498783455 -3.027068126520681 -0.8344306569343054
v -3.25045498783455 -3.480068126520681 -0.8344306569343054
v -2.79745498783455 -3.876068126520681 -0.8344306569343054
v -2.29745498783455 -4.211068126520681 -0.8344306569343054
v -4.597454987834549 -0.22706812652068126 -0.8344306569343054
v -4.5584549878345495 -0.8270681265206812 -0.8344306569343054
v -4.440454987834549 -1.4180681265206814 -0.8344306569343054
v -4.2474549878345496 -1.9870681265206813 -0.8344306569343054
v 0.5765450121654501 -4.589068126520681 4.165569343065695
v 1.1415450121654502 -4.477068126520681 4.165569343065695
v -1.7574549878345498 -4.477068126520681 -0.8344306569343054
v -1.1884549878345498 -4.670068126520681 -0.8344306569343054
v -0.5974549878345499 -4.788068126520681 -0.8344306569343054
v 0.002545012165450121 -4.827068126520681 -0.8344306569343054
v 4.2525450121654504 -1.9870681265206813 -0.8344306569343054
v 4.44554501216545 -1.4180681265206814 -0.8344306569343054
v 1.7625450121654502 4.022931873479319 -2.234430656934304
v 4.56354501216545 -0.8270681265206812 -0.8344306569343054
v 1.1935450121654503 4.2159318734793185 -2.234430656934304
v 0.6025450121654501 4.333931873479319 -2.234430656934304
v 4.60254501216545 -0.22706812652068126 -0.8344306569343054
v 0.002545012165450121 4.3729318734793186 -2.234430656934304
v 4.60254501216545 -0.22706812652068126 -2.234430656934304
v 4.56354501216545 0.3729318734793187 -2.234430656934304
v 4.44554501216545 0.9639318734793187 -2.234430656934304
v 4.2525450121654504 1.5329318734793187 -2.234430656934304
v 3.98654501216545 2.0729318734793187 -2.234430656934304
v 3.65154501216545 2.5729318734793187 -2.234430656934304
v 3.25554501216545 3.025931873479319 -2.234430656934304
v 2.80254501216545 3.421931873479319 -2.234430656934304
v 2.30254501216545 3.756931873479319 -2.234430656934304
v 2.12354501216545 1.8939318734793187 -2.234430656934304
v 1.8285450121654503 2.152931873479319 -2.234430656934304
v 1.5025450121654502 2.3709318734793188 -2.234430656934304
v 0.7785450121654501 2.670931873479319 -2.234430656934304
v 0.3945450121654501 2.746931873479319 -2.234430656934304
v 1.1505450121654501 2.5449318734793187 -2.234430656934304
v 0.002545012165450121 2.772931873479319 -2.234430656934304
v 2.77454501216545 0.9209318734793186 -2.234430656934304
v 2.60054501216545 1.2729318734793187 -2.234430656934304
v 2.90054501216545 0.5489318734793187 -2.234430656934304
v 2.77454501216545 -1.3750681265206812 -0.8344306569343054
v 2.60054501216545 -1.7270681265206813 -0.8344306569343054
v 2.38254501216545 1.5989318734793188 -2.234430656934304
v 2.38254501216545 -2.053068126520681 -0.8344306569343054
v 3.00254501216545 -0.22706812652068126 -2.234430656934304
v 2.97654501216545 0.16493187347931876 -2.234430656934304
v 2.90054501216545 -1.0030681265206813 -0.8344306569343054
v 3.00254501216545 -0.22706812652068126 -0.8344306569343054
v 2.30254501216545 -4.211068126520681 -0.8344306569343054
v 2.80254501216545 -3.876068126520681 -0.8344306569343054
v 3.25554501216545 -3.480068126520681 -0.8344306569343054
v 3.65154501216545 -3.027068126520681 -0.8344306569343054
v 3.98654501216545 -2.527068126520681 -0.8344306569343054
v 3.81354501216545 1.9729318734793189 4.165569343065695
v 3.49354501216545 2.4519318734793187 4.165569343065695
v 3.11354501216545 2.883931873479319 4.165569343065695
v 2.68154501216545 3.263931873479319 4.165569343065695
v 1.5025450121654502 -2.825068126520681 -0.8344306569343054
v 1.8285450121654503 -2.607068126520681 -0.8344306569343054
v -0.5974549878345499 4.333931873479319 -2.234430656934304
v 2.20254501216545 3.583931873479319 4.165569343065695
v -1.1884549878345498 4.2159318734793185 -2.234430656934304
v -1.7574549878345498 4.022931873479319 -2.234430656934304
v 1.6865450121654502 3.8379318734793193 4.165569343065695
v 0.7785450121654501 -3.1250681265206812 -0.8344306569343054
v -0.7734549878345499 2.670931873479319 -2.234430656934304
v 1.1505450121654501 -2.999068126520681 -0.8344306569343054
v -0.3894549878345499 2.746931873479319 -2.234430656934304
v -1.1454549878345497 2.5449318734793187 -2.234430656934304
v 4.067545012165451 1.4569318734793186 4.165569343065695
v -1.4974549878345498 2.3709318734793188 -2.234430656934304
v -1.8234549878345498 2.152931873479319 -2.234430656934304
v 0.6025450121654501 -4.788068126520681 -0.8344306569343054
v 1.1935450121654503 -4.670068126520681 -0.8344306569343054
v 1.7625450121654502 -4.477068126520681 -0.8344306569343054
v -0.2564549878345499 -1.1930681265206813 6.506569343065696
v 1.8285450121654503 2.152931873479319 -0.8344306569343054
v 0.002545012165450121 -1.2270681265206813 6.765569343065696
v 1.5025450121654502 2.3709318734793188 -0.8344306569343054
v 0.7525450121654501 0.43093187347931877 4.165569343065695
v 1.1505450121654501 2.5449318734793187 -0.8344306569343054
v 0.6115450121654501 0.5659318734793188 4.165569343065695
v 4.8325450121654505 1.0669318734793187 -17.234430656934304
v 4.62154501216545 1.6859318734793187 -17.234430656934304
v 4.3325450121654505 2.272931873479319 -17.234430656934304
v 0.7785450121654501 2.670931873479319 -0.8344306569343054
v 0.4435450121654501 0.6679318734793187 4.165569343065695
v 3.53854501216545 3.308931873479319 -17.234430656934304
v 3.04654501216545 3.739931873479319 -17.234430656934304
v 2.50254501216545 4.102931873479319 -17.234430656934304
v 0.6555450121654501 4.729931873479319 -17.234430656934304
v 0.002545012165450121 2.772931873479319 -0.8344306569343054
v 0.002545012165450121 0.7729318734793187 4.165569343065695
v 0.19754501216545012 0.7509318734793187 4.165569343065695
v 4.95954501216545 0.42593187347931877 -17.234430656934304
v 3.96954501216545 2.816931873479319 -17.234430656934304
v 0.8975450121654501 0.21393187347931875 4.165569343065695
v 2.90054501216545 0.5489318734793187 -0.8344306569343054
v 0.9805450121654501 -0.03206812652068125 4.165569343065695
v 2.77454501216545 0.9209318734793186 -0.8344306569343054
v 1.9155450121654503 4.391931873479319 -17.234430656934304
v 2.60054501216545 1.2729318734793187 -0.8344306569343054
v 1.2965450121654503 4.602931873479319 -17.234430656934304
v 1.7625450121654502 4.022931873479319 -0.8344306569343054
v 1.1935450121654503 4.2159318734793185 -0.8344306569343054
v 0.6025450121654501 4.333931873479319 -0.8344306569343054
v 2.38254501216545 1.5989318734793188 -0.8344306569343054
v 0.002545012165450121 4.3729318734793186 -0.8344306569343054
v 0.002545012165450121 4.772931873479319 -17.234430656934304
v 4.56354501216545 0.3729318734793187 -0.8344306569343054
v 4.44554501216545 0.9639318734793187 -0.8344306569343054
v 5.0025450121654504 -0.22706812652068126 -17.234430656934304
v 4.2525450121654504 1.5329318734793187 -0.8344306569343054
v 0.002545012165450121 4.172931873479319 4.165569343065695
v -0.5714549878345498 4.134931873479319 4.165569343065695
v -1.1364549878345498 4.022931873479319 4.165569343065695
v -0.6504549878345499 4.729931873479319 -17.234430656934304
v -1.2914549878345498 4.602931873479319 -17.234430656934304
v -3.96445498783455 2.816931873479319 -17.234430656934304
v -4.32745498783455 2.272931873479319 -17.234430656934304
v -4.82745498783455 1.0669318734793187 -17.234430656934304
v -1.9104549878345498 4.391931873479319 -17.234430656934304
v -2.49745498783455 4.102931873479319 -17.234430656934304
v -3.04145498783455 3.739931873479319 -17.234430656934304
v -3.53345498783455 3.308931873479319 -17.234430656934304
v -4.9974549878345496 -0.22706812652068126 -17.234430656934304
v -4.954454987834549 0.42593187347931877 -17.234430656934304
v -4.616454987834549 1.6859318734793187 -17.234430656934304
v 3.96954501216545 -3.271068126520681 -17.234430656934304
v 3.53854501216545 -3.763068126520681 -17.234430656934304
v 3.04654501216545 -4.194068126520682 -17.234430656934304
v 2.50254501216545 -4.557068126520681 -17.234430656934304
v 1.9155450121654503 -4.846068126520681 -17.234430656934304
v 1.2965450121654503 -5.057068126520681 -17.234430656934304
v 0.6555450121654501 -5.184068126520681 -17.234430656934304
v 0.002545012165450121 -5.227068126520681 -17.234430656934304
v 4.95954501216545 -0.8800681265206813 -17.234430656934304
v 4.8325450121654505 -1.5210681265206814 -17.234430656934304
v 4.62154501216545 -2.1400681265206813 -17.234430656934304
v 4.3325450121654505 -2.727068126520681 -17.234430656934304
v -4.954454987834549 -0.8800681265206813 -17.234430656934304
v -0.6504549878345499 -5.184068126520681 -17.234430656934304
v -1.2914549878345498 -5.057068126520681 -17.234430656934304
v -1.9104549878345498 -4.846068126520681 -17.234430656934304
v -2.49745498783455 -4.557068126520681 -17.234430656934304
v -3.04145498783455 -4.194068126520682 -17.234430656934304
v 3.98654501216545 2.0729318734793187 -0.8344306569343054
v -3.53345498783455 -3.763068126520681 -17.234430656934304
v -3.96445498783455 -3.271068126520681 -17.234430656934304
v -4.32745498783455 -2.727068126520681 -17.234430656934304
v -4.616454987834549 -2.1400681265206813 -17.234430656934304
v -4.82745498783455 -1.5210681265206814 -17.234430656934304
v 3.65154501216545 2.5729318734793187 -0.8344306569343054
v 3.25554501216545 3.025931873479319 -0.8344306569343054
v 0.9935450121654501 -0.09606812652068125 9.765569343065696
v 0.8685450121654501 0.27293187347931874 9.765569343065696
v 0.6815450121654502 0.4979318734793187 9.765569343065696
v 0.4435450121654501 0.6679318734793187 9.765569343065696
v 0.19754501216545012 0.7509318734793187 9.765569343065696
v 2.80254501216545 3.421931873479319 -0.8344306569343054
v -0.6554549878345499 0.5229318734793187 9.765569343065696
v -0.4974549878345499 0.6389318734793188 9.765569343065696
v 2.30254501216545 3.756931873479319 -0.8344306569343054
v -0.1924549878345499 0.7509318734793187 9.765569343065696
v -0.8634549878345499 0.27293187347931874 9.765569343065696
v -0.9214549878345499 0.15593187347931875 9.765569343065696
v -0.9884549878345499 -0.09606812652068125 9.765569343065696
v 0.9265450121654502 -0.6100681265206813 9.765569343065696
v 0.9805450121654501 -0.42206812652068126 9.765569343065696
v 0.2615450121654501 -1.1930681265206813 9.765569343065696
v 0.4435450121654501 -1.1220681265206813 9.765569343065696
v 0.6605450121654501 -0.9770681265206813 9.765569343065696
v -0.4974549878345499 -1.0930681265206812 9.765569343065696
v -0.7474549878345499 -0.8850681265206812 9.765569343065696
v -0.1924549878345499 -1.2050681265206813 9.765569343065696
v -0.1924549878345499 0.7509318734793187 6.570569343065696
v -0.4384549878345499 0.6679318734793187 6.324569343065697
v -0.9754549878345499 -0.42206812652068126 9.765569343065696
v -0.8924549878345499 -0.6680681265206813 9.765569343065696
v 3.00254501216545 0.3269318734793188 7.594569343065697
v 3.00254501216545 0.5409318734793187 7.396569343065696
v 3.00254501216545 -0.09606812652068125 7.756569343065696
v -0.3184549878345499 0.7179318734793187 7.0865693430656975
v 0.6605450121654501 0.5229318734793187 7.423569343065697
v -0.5514549878345499 0.6019318734793186 7.320569343065696
v 0.9805450121654501 -0.03206812652068125 7.744569343065695
v 0.9265450121654502 0.15593187347931875 7.6895693430656955
v -2.99745498783455 -0.09606812652068125 7.756569343065696
v -2.99745498783455 0.27293187347931874 7.631569343065696
v -2.99745498783455 0.43093187347931877 7.515569343065696
v -0.9754549878345499 -0.03206812652068125 5.7875693430656945
v -0.9484549878345498 0.06193187347931872 7.7165693430656965
v -0.3184549878345499 -1.1720681265206812 7.0865693430656975
v -0.9214549878345499 0.15593187347931875 5.8415693430656965
v -0.9974549878345499 -0.22706812652068126 7.765569343065696
v -0.5514549878345499 -1.0560681265206813 7.320569343065696
v -0.6554549878345499 0.5229318734793187 6.107569343065695
v -2.29745498783455 3.756931873479319 -2.234430656934304
v -2.79745498783455 3.421931873479319 -2.234430656934304
v -3.25045498783455 3.025931873479319 -2.234430656934304
v -3.64645498783455 2.5729318734793187 -2.234430656934304
v -3.98145498783455 2.0729318734793187 -2.234430656934304
v -2.11845498783455 1.8939318734793187 -2.234430656934304
v -0.7044549878345499 0.4799318734793187 7.472569343065697
v -0.8264549878345498 0.3269318734793188 5.936569343065695
v -0.9924549878345499 -0.29306812652068126 5.770569343065695
v -0.8924549878345499 -0.6680681265206813 5.870569343065696
v -2.59545498783455 1.2729318734793187 -2.234430656934304
v -0.8634549878345499 0.27293187347931874 7.631569343065696
v -2.76945498783455 0.9209318734793186 -2.234430656934304
v -2.89545498783455 0.5489318734793187 -2.234430656934304
v -2.37745498783455 1.5989318734793188 -2.234430656934304
v 3.00254501216545 -0.42206812652068126 7.744569343065695
v 3.00254501216545 -0.6680681265206813 7.660569343065696
v 3.00254501216545 -0.8850681265206812 7.515569343065696
v -2.99745498783455 0.7679318734793188 6.831569343065695
v -2.99745498783455 0.7509318734793187 6.570569343065696
v -2.99745498783455 0.6019318734793186 7.320569343065696
v -2.99745498783455 0.7179318734793187 7.0865693430656975
v -2.99745498783455 0.6679318734793187 6.324569343065697
v -2.97145498783455 0.16493187347931876 -2.234430656934304
v -0.7474549878345499 -0.8850681265206812 6.015569343065696
v 0.9915450121654501 -0.3250681265206813 7.754569343065697
v -2.99745498783455 0.27293187347931874 5.899569343065696
v -2.99745498783455 -0.16106812652068125 5.770569343065695
v -2.99745498783455 0.4979318734793187 6.0865693430656975
v 0.7095450121654501 -0.9340681265206812 7.472569343065697
v -0.5514549878345499 -1.0560681265206813 6.2115693430656975
v 0.8975450121654501 -0.6680681265206813 7.660569343065696
v -1.6814549878345497 3.8379318734793193 4.165569343065695
v -2.19745498783455 3.583931873479319 4.165569343065695
v -2.67645498783455 3.263931873479319 4.165569343065695
v -3.10845498783455 2.883931873479319 4.165569343065695
v -3.48845498783455 2.4519318734793187 4.165569343065695
v -3.80845498783455 1.9729318734793189 4.165569343065695
v -2.99745498783455 -0.9770681265206813 7.423569343065697
v -2.99745498783455 -0.7810681265206814 7.594569343065697
v -2.99745498783455 -0.29306812652068126 7.760569343065697
v -4.2474549878345496 1.5329318734793187 -2.234430656934304
v -4.440454987834549 0.9639318734793187 -2.234430656934304
v -4.5584549878345495 0.3729318734793187 -2.234430656934304
v -0.9754549878345499 -0.42206812652068126 7.744569343065695
v -0.6554549878345499 0.5229318734793187 4.165569343065695
v -0.8924549878345499 -0.6680681265206813 7.660569343065696
v -0.7904549878345499 0.38193187347931873 4.165569343065695
v -0.1924549878345499 0.7509318734793187 4.165569343065695
v -0.4384549878345499 0.6679318734793187 4.165569343065695
v -0.7044549878345499 -0.9340681265206812 7.472569343065697
v -0.8924549878345499 0.21393187347931875 4.165569343065695
v -0.9754549878345499 -0.03206812652068125 4.165569343065695
v 4.2525450121654504 -1.9870681265206813 -2.234430656934304
v 4.44554501216545 -1.4180681265206814 -2.234430656934304
v 4.56354501216545 -0.8270681265206812 -2.234430656934304
v 2.60054501216545 -1.7270681265206813 -2.234430656934304
v 1.1415450121654502 4.022931873479319 4.165569343065695
v 2.38254501216545 -2.053068126520681 -2.234430656934304
v 0.5765450121654501 4.134931873479319 4.165569343065695
v 2.77454501216545 -1.3750681265206812 -2.234430656934304
v -4.06245498783455 1.4569318734793186 4.165569343065695
v 2.90054501216545 -1.0030681265206813 -2.234430656934304
v 2.97654501216545 -0.6190681265206812 -2.234430656934304
v -4.2474549878345496 0.9119318734793187 4.165569343065695
v -4.35945498783455 0.3469318734793187 4.165569343065695
v 3.98654501216545 -2.527068126520681 -2.234430656934304
v 3.25554501216545 -3.480068126520681 -2.234430656934304
v 3.65154501216545 -3.027068126520681 -2.234430656934304
v -0.5974549878345499 4.333931873479319 -0.8344306569343054
v 2.30254501216545 -4.211068126520681 -2.234430656934304
v -1.1884549878345498 4.2159318734793185 -0.8344306569343054
v 2.80254501216545 -3.876068126520681 -2.234430656934304
v -1.7574549878345498 4.022931873479319 -0.8344306569343054
v 2.12354501216545 -2.348068126520681 -2.234430656934304
v 1.8285450121654503 -2.607068126520681 -2.234430656934304
v 1.1505450121654501 -2.999068126520681 -2.234430656934304
v 1.5025450121654502 -2.825068126520681 -2.234430656934304
v 0.3945450121654501 -3.2010681265206813 -2.234430656934304
v 0.7785450121654501 -3.1250681265206812 -2.234430656934304
v -0.7734549878345499 2.670931873479319 -0.8344306569343054
v -1.1454549878345497 2.5449318734793187 -0.8344306569343054
v -1.4974549878345498 2.3709318734793188 -0.8344306569343054
v -1.8234549878345498 2.152931873479319 -0.8344306569343054
v -2.29745498783455 3.756931873479319 -0.8344306569343054
v -2.79745498783455 3.421931873479319 -0.8344306569343054
v -3.25045498783455 3.025931873479319 -0.8344306569343054
v -3.64645498783455 2.5729318734793187 -0.8344306569343054
v -3.98145498783455 2.0729318734793187 -0.8344306569343054
v -2.37745498783455 1.5989318734793188 -0.8344306569343054
v -2.59545498783455 1.2729318734793187 -0.8344306569343054
v -2.76945498783455 0.9209318734793186 -0.8344306569343054
v -2.89545498783455 0.5489318734793187 -0.8344306569343054
v -4.2474549878345496 1.5329318734793187 -0.8344306569343054
v -4.440454987834549 0.9639318734793187 -0.8344306569343054
v -4.5584549878345495 0.3729318734793187 -0.8344306569343054
v 4.2525450121654504 -1.3660681265206813 4.165569343065695
v 4.3645450121654505 -0.8010681265206812 4.165569343065695
v 3.00254501216545 -1.1720681265206812 6.4445693430656945
v 3.00254501216545 -1.2220681265206812 6.700569343065695
v 3.00254501216545 -1.0930681265206812 7.265569343065696
v 3.00254501216545 -1.1780681265206812 7.0545693430656975
v 3.00254501216545 -0.8360681265206813 5.972569343065697
v 3.00254501216545 -1.0560681265206813 6.2115693430656975
v 3.00254501216545 -0.6100681265206813 5.8415693430656965
v 3.00254501216545 -0.35806812652068126 5.774569343065696
v 0.13354501216545012 -1.2180681265206812 6.896569343065696
v 0.13354501216545012 -1.2180681265206812 6.634569343065696
v 0.2615450121654501 -1.1930681265206813 7.024569343065696
v 0.3855450121654501 -1.1510681265206812 6.382569343065697
v 0.5025450121654501 -1.0930681265206812 7.265569343065696
v 0.6605450121654501 -0.9770681265206813 6.107569343065695
# 411 vertices

g group_0_16448250

usemtl color_16448250
s 0

f 91 	46 	1
f 1 	46 	2
f 9 	14 	8
f 10 	8 	14
f 15 	13 	14
f 10 	14 	13
f 13 	15 	16
f 19 	321 	18
f 11 	321 	19
f 12 	321 	11
f 17 	18 	321
f 20 	21 	321
f 17 	321 	21
f 15 	32 	31
f 23 	56 	22
f 26 	27 	86
f 27 	24 	86
f 37 	32 	15
f 83 	82 	28
f 37 	15 	14
f 22 	55 	28
f 64 	43 	30
f 29 	64 	30
f 38 	15 	31
f 83 	28 	55
f 38 	16 	15
f 60 	57 	23
f 25 	16 	38
f 48 	49 	30
f 49 	50 	33
f 261 	38 	31
f 50 	51 	33
f 39 	40 	91
f 9 	8 	41
f 43 	48 	30
f 37 	14 	61
f 14 	9 	61
f 8 	10 	45
f 8 	45 	41
f 52 	53 	34
f 53 	67 	34
f 35 	34 	67
f 67 	68 	35
f 201 	199 	45
f 44 	39 	89
f 89 	87 	44
f 91 	89 	39
f 40 	46 	91
f 56 	57 	103
f 57 	58 	103
f 41 	54 	9
f 59 	58 	42
f 47 	42 	58
f 58 	57 	47
f 56 	23 	57
f 55 	22 	56
f 33 	30 	49
f 365 	62 	352
f 47 	57 	60
f 64 	63 	76
f 68 	69 	36
f 69 	110 	36
f 36 	35 	68
f 53 	90 	67
f 23 	22 	251
f 76 	63 	74
f 64 	76 	78
f 70 	65 	84
f 78 	43 	64
f 79 	49 	48
f 70 	81 	71
f 90 	53 	52
f 92 	52 	51
f 93 	67 	90
f 254 	28 	24
f 68 	67 	93
f 99 	75 	98
f 51 	52 	34
f 251 	250 	23
f 250 	60 	23
f 48 	78 	79
f 48 	43 	78
f 49 	79 	80
f 47 	248 	42
f 65 	66 	75
f 74 	107 	76
f 107 	108 	76
f 78 	101 	79
f 83 	55 	101
f 76 	108 	78
f 65 	75 	84
f 85 	86 	106
f 81 	70 	84
f 73 	407 	36
f 80 	102 	103
f 24 	28 	82
f 86 	24 	82
f 87 	89 	112
f 77 	96 	75
f 92 	51 	88
f 84 	75 	99
f 87 	59 	44
f 42 	44 	59
f 92 	90 	52
f 245 	244 	39
f 99 	100 	84
f 73 	111 	77
f 244 	40 	39
f 93 	94 	68
f 100 	72 	84
f 34 	33 	51
f 103 	104 	88
f 243 	254 	24
f 105 	112 	90
f 88 	104 	92
f 96 	77 	95
f 97 	75 	96
f 98 	75 	97
f 199 	201 	7
f 90 	92 	105
f 112 	113 	90
f 247 	246 	44
f 247 	44 	42
f 80 	50 	49
f 50 	88 	51
f 246 	245 	44
f 88 	50 	80
f 245 	39 	44
f 102 	79 	101
f 105 	92 	104
f 93 	90 	113
f 80 	79 	102
f 46 	244 	238
f 99 	144 	100
f 244 	46 	40
f 88 	80 	103
f 55 	56 	102
f 55 	102 	101
f 56 	103 	102
f 103 	58 	104
f 105 	104 	59
f 58 	59 	104
f 112 	105 	87
f 59 	87 	105
f 243 	24 	27
f 111 	169 	95
f 62 	74 	63
f 109 	78 	108
f 101 	78 	109
f 83 	109 	82
f 108 	82 	109
f 83 	101 	109
f 73 	36 	110
f 111 	73 	110
f 95 	77 	111
f 106 	86 	107
f 108 	107 	82
f 86 	82 	107
f 69 	68 	94
f 94 	93 	114
f 115 	94 	114
f 113 	114 	93
f 252 	22 	28
f 112 	89 	113
f 114 	113 	91
f 89 	91 	113
f 91 	1 	114
f 115 	114 	1
f 116 	354 	117
f 354 	119 	117
f 118 	132 	138
f 135 	138 	132
f 124 	125 	122
f 116 	117 	143
f 119 	149 	117
f 122 	150 	119
f 148 	142 	125
f 124 	147 	125
f 128 	129 	255
f 256 	255 	130
f 129 	130 	255
f 130 	131 	256
f 161 	97 	160
f 131 	132 	265
f 118 	206 	132
f 97 	96 	160
f 141 	128 	140
f 145 	129 	141
f 129 	145 	130
f 128 	141 	129
f 131 	130 	134
f 192 	138 	135
f 132 	131 	135
f 134 	135 	131
f 137 	121 	136
f 120 	118 	138
f 138 	136 	120
f 121 	120 	136
f 167 	111 	110
f 137 	139 	121
f 127 	140 	128
f 167 	169 	111
f 185 	140 	142
f 144 	155 	143
f 146 	154 	144
f 145 	141 	198
f 100 	144 	143
f 190 	191 	134
f 135 	191 	192
f 137 	136 	193
f 142 	140 	126
f 127 	126 	140
f 99 	146 	144
f 145 	133 	130
f 133 	134 	130
f 143 	72 	100
f 148 	125 	147
f 141 	187 	198
f 143 	117 	149
f 126 	125 	142
f 396 	143 	149
f 185 	186 	140
f 396 	72 	143
f 186 	187 	140
f 187 	141 	140
f 134 	133 	190
f 191 	135 	134
f 98 	97 	161
f 99 	98 	146
f 146 	98 	161
f 54 	61 	9
f 205 	136 	138
f 154 	146 	153
f 146 	161 	153
f 155 	144 	154
f 116 	143 	155
f 152 	153 	161
f 45 	10 	71
f 13 	71 	10
f 45 	71 	201
f 193 	211 	139
f 155 	366 	116
f 137 	193 	139
f 155 	154 	366
f 372 	152 	151
f 197 	148 	147
f 153 	152 	372
f 94 	167 	110
f 123 	139 	162
f 357 	359 	196
f 169 	160 	96
f 96 	95 	169
f 176 	167 	175
f 160 	169 	151
f 151 	152 	160
f 151 	169 	177
f 94 	175 	167
f 172 	202 	156
f 161 	160 	152
f 172 	199 	7
f 156 	199 	172
f 41 	45 	199
f 167 	176 	169
f 110 	69 	94
f 121 	139 	123
f 165 	164 	171
f 189 	37 	61
f 94 	115 	175
f 177 	169 	176
f 170 	162 	139
f 164 	162 	168
f 175 	115 	2
f 1 	2 	115
f 168 	162 	170
f 176 	175 	3
f 2 	3 	175
f 195 	31 	32
f 171 	173 	300
f 3 	4 	177
f 3 	177 	176
f 171 	164 	168
f 4 	151 	177
f 196 	32 	37
f 174 	301 	173
f 157 	199 	156
f 159 	163 	184
f 179 	262 	181
f 397 	6 	81
f 396 	397 	81
f 47 	250 	248
f 199 	157 	182
f 41 	199 	182
f 47 	60 	250
f 182 	54 	41
f 181 	265 	183
f 184 	182 	158
f 157 	158 	182
f 184 	61 	54
f 182 	184 	54
f 206 	207 	183
f 158 	159 	184
f 189 	61 	184
f 208 	194 	188
f 163 	166 	189
f 185 	142 	197
f 32 	196 	195
f 189 	184 	163
f 149 	119 	150
f 196 	37 	189
f 198 	190 	145
f 81 	84 	396
f 190 	133 	145
f 200 	213 	202
f 138 	192 	203
f 72 	396 	84
f 215 	249 	202
f 203 	205 	138
f 207 	206 	120
f 118 	120 	206
f 120 	121 	208
f 120 	208 	207
f 210 	208 	123
f 121 	123 	208
f 205 	193 	136
f 212 	122 	125
f 255 	256 	209
f 126 	213 	212
f 126 	212 	125
f 197 	147 	214
f 213 	126 	215
f 127 	215 	126
f 150 	212 	200
f 5 	150 	200
f 197 	142 	148
f 212 	150 	122
f 213 	200 	212
f 215 	202 	213
f 218 	348 	217
f 348 	195 	217
f 6 	150 	5
f 200 	7 	5
f 200 	202 	7
f 7 	202 	172
f 202 	204 	156
f 157 	204 	209
f 157 	156 	204
f 209 	158 	157
f 179 	159 	158
f 159 	179 	181
f 193 	205 	228
f 203 	228 	205
f 192 	246 	203
f 190 	198 	191
f 192 	191 	198
f 192 	198 	187
f 192 	187 	186
f 192 	186 	185
f 192 	185 	197
f 192 	197 	214
f 163 	159 	181
f 181 	183 	163
f 183 	166 	163
f 223 	230 	229
f 228 	229 	230
f 228 	230 	222
f 228 	222 	221
f 228 	221 	227
f 228 	227 	226
f 228 	226 	225
f 228 	225 	224
f 228 	224 	220
f 228 	220 	219
f 211 	193 	228
f 219 	211 	228
f 183 	188 	357
f 233 	192 	232
f 234 	192 	233
f 235 	192 	234
f 236 	192 	235
f 237 	192 	236
f 238 	192 	237
f 231 	232 	192
f 214 	239 	192
f 239 	240 	192
f 240 	241 	192
f 241 	242 	192
f 231 	192 	242
f 249 	215 	128
f 127 	128 	215
f 228 	203 	243
f 238 	244 	192
f 244 	245 	192
f 245 	246 	192
f 247 	203 	246
f 248 	203 	247
f 248 	250 	203
f 250 	251 	203
f 251 	252 	203
f 252 	253 	203
f 253 	254 	203
f 243 	203 	254
f 128 	255 	249
f 256 	131 	262
f 259 	277 	258
f 260 	277 	259
f 261 	277 	260
f 131 	265 	262
f 265 	132 	206
f 261 	266 	264
f 264 	263 	261
f 261 	263 	267
f 261 	267 	268
f 261 	268 	269
f 204 	202 	249
f 249 	255 	204
f 209 	204 	255
f 265 	181 	262
f 262 	179 	256
f 274 	270 	273
f 272 	273 	271
f 271 	273 	270
f 257 	258 	277
f 257 	277 	271
f 179 	158 	209
f 207 	208 	188
f 188 	183 	207
f 179 	209 	256
f 206 	183 	265
f 275 	261 	276
f 281 	276 	261
f 277 	261 	275
f 272 	271 	277
f 280 	281 	261
f 280 	261 	269
f 283 	282 	315
f 284 	315 	282
f 16 	25 	283
f 278 	318 	31
f 248 	247 	42
f 260 	25 	261
f 38 	261 	25
f 31 	318 	285
f 286 	259 	258
f 286 	260 	259
f 283 	286 	282
f 228 	243 	26
f 243 	27 	26
f 254 	253 	28
f 285 	287 	264
f 288 	258 	257
f 253 	252 	28
f 282 	289 	284
f 289 	258 	288
f 252 	251 	22
f 284 	289 	288
f 283 	25 	286
f 266 	261 	31
f 289 	282 	286
f 258 	289 	286
f 25 	260 	286
f 292 	321 	291
f 290 	291 	321
f 294 	291 	290
f 180 	18 	178
f 19 	295 	11
f 180 	19 	18
f 306 	287 	320
f 178 	17 	330
f 299 	322 	279
f 268 	294 	269
f 180 	295 	19
f 18 	17 	178
f 296 	351 	293
f 269 	294 	297
f 263 	264 	306
f 31 	195 	278
f 300 	301 	384
f 279 	348 	349
f 278 	348 	279
f 267 	294 	268
f 303 	304 	388
f 285 	264 	266
f 297 	294 	290
f 266 	31 	285
f 299 	307 	328
f 298 	12 	11
f 306 	267 	263
f 295 	298 	11
f 306 	311 	267
f 303 	302 	314
f 305 	314 	302
f 174 	305 	302
f 165 	171 	300
f 302 	301 	174
f 300 	173 	301
f 308 	29 	309
f 292 	306 	320
f 304 	303 	310
f 29 	30 	309
f 306 	264 	287
f 291 	311 	292
f 279 	349 	299
f 311 	306 	292
f 294 	267 	311
f 291 	294 	311
f 307 	347 	296
f 317 	283 	316
f 316 	283 	315
f 318 	319 	328
f 321 	292 	320
f 322 	328 	319
f 321 	318 	328
f 328 	326 	321
f 30 	33 	309
f 324 	309 	33
f 278 	279 	319
f 20 	308 	309
f 322 	319 	279
f 400 	317 	329
f 313 	323 	343
f 342 	341 	312
f 320 	287 	321
f 285 	321 	287
f 323 	26 	343
f 325 	315 	284
f 310 	312 	304
f 316 	315 	325
f 318 	278 	319
f 314 	310 	303
f 331 	316 	325
f 341 	304 	312
f 321 	285 	318
f 312 	313 	342
f 326 	327 	321
f 85 	343 	26
f 36 	178 	35
f 86 	85 	26
f 20 	321 	327
f 325 	257 	271
f 324 	21 	309
f 327 	308 	20
f 327 	293 	308
f 21 	20 	309
f 327 	326 	293
f 324 	33 	330
f 326 	296 	293
f 34 	330 	33
f 299 	328 	322
f 331 	274 	329
f 331 	317 	316
f 34 	178 	330
f 34 	35 	178
f 326 	307 	296
f 331 	329 	317
f 180 	178 	36
f 326 	328 	307
f 139 	219 	170
f 331 	270 	274
f 324 	330 	17
f 170 	219 	168
f 332 	349 	218
f 333 	349 	332
f 334 	349 	333
f 325 	271 	270
f 331 	325 	270
f 284 	288 	325
f 324 	17 	21
f 257 	325 	288
f 381 	332 	218
f 174 	173 	226
f 226 	227 	174
f 272 	410 	273
f 305 	174 	227
f 227 	314 	305
f 329 	274 	273
f 222 	230 	312
f 310 	222 	312
f 321 	12 	338
f 321 	338 	339
f 321 	339 	340
f 321 	340 	290
f 293 	351 	352
f 280 	269 	297
f 313 	229 	323
f 229 	26 	323
f 299 	349 	345
f 229 	228 	26
f 307 	299 	345
f 388 	304 	341
f 307 	345 	347
f 106 	343 	85
f 342 	313 	343
f 348 	278 	195
f 219 	220 	168
f 340 	297 	290
f 310 	221 	222
f 352 	308 	293
f 297 	340 	344
f 313 	312 	223
f 340 	339 	344
f 139 	211 	219
f 296 	347 	351
f 29 	308 	352
f 224 	171 	220
f 12 	350 	338
f 337 	347 	336
f 335 	345 	334
f 297 	344 	280
f 171 	168 	220
f 225 	171 	224
f 280 	344 	281
f 346 	281 	344
f 173 	171 	225
f 346 	276 	281
f 225 	226 	173
f 227 	221 	314
f 339 	346 	344
f 349 	334 	345
f 336 	347 	335
f 221 	310 	314
f 345 	335 	347
f 180 	277 	295
f 350 	276 	346
f 196 	189 	357
f 166 	357 	189
f 276 	298 	275
f 348 	218 	349
f 295 	275 	298
f 230 	223 	312
f 350 	298 	276
f 223 	229 	313
f 277 	275 	295
f 12 	298 	350
f 353 	354 	116
f 119 	354 	355
f 122 	119 	355
f 122 	355 	124
f 350 	346 	338
f 337 	361 	351
f 361 	364 	351
f 358 	356 	368
f 339 	338 	346
f 352 	62 	29
f 357 	166 	183
f 337 	351 	347
f 357 	188 	359
f 194 	359 	188
f 194 	216 	359
f 195 	196 	359
f 359 	216 	195
f 216 	217 	195
f 364 	365 	352
f 64 	29 	63
f 352 	351 	364
f 240 	362 	360
f 354 	353 	360
f 353 	366 	360
f 360 	362 	354
f 355 	354 	362
f 362 	363 	355
f 63 	29 	62
f 363 	147 	355
f 124 	355 	147
f 366 	353 	116
f 367 	368 	154
f 367 	154 	153
f 366 	154 	368
f 369 	210 	162
f 123 	162 	210
f 370 	151 	4
f 162 	164 	371
f 162 	371 	369
f 370 	372 	151
f 373 	371 	165
f 164 	165 	371
f 153 	372 	367
f 384 	373 	300
f 165 	300 	373
f 371 	380 	369
f 373 	381 	371
f 384 	381 	373
f 366 	368 	356
f 368 	367 	358
f 374 	358 	367
f 372 	375 	367
f 4 	376 	370
f 216 	194 	217
f 356 	360 	366
f 4 	3 	376
f 370 	377 	372
f 374 	367 	375
f 2 	379 	3
f 377 	370 	376
f 378 	2 	46
f 379 	2 	378
f 376 	3 	379
f 375 	372 	377
f 232 	374 	375
f 356 	231 	242
f 376 	234 	377
f 237 	46 	238
f 237 	378 	46
f 379 	237 	236
f 237 	379 	378
f 376 	236 	235
f 379 	236 	376
f 235 	234 	376
f 234 	233 	377
f 375 	377 	233
f 233 	232 	375
f 358 	232 	231
f 358 	374 	232
f 358 	231 	356
f 360 	242 	241
f 356 	242 	360
f 241 	240 	360
f 239 	362 	240
f 239 	363 	362
f 239 	214 	147
f 239 	147 	363
f 390 	337 	336
f 390 	391 	337
f 391 	361 	337
f 365 	364 	392
f 369 	194 	210
f 208 	210 	194
f 194 	369 	380
f 194 	380 	217
f 381 	384 	382
f 380 	218 	217
f 380 	371 	381
f 380 	381 	218
f 382 	333 	381
f 333 	332 	381
f 334 	382 	383
f 334 	333 	382
f 385 	386 	383
f 384 	301 	385
f 386 	385 	302
f 301 	302 	385
f 302 	303 	387
f 302 	387 	386
f 303 	388 	387
f 383 	382 	385
f 384 	385 	382
f 387 	389 	386
f 388 	390 	387
f 389 	383 	386
f 383 	335 	334
f 335 	389 	336
f 389 	335 	383
f 393 	394 	391
f 388 	393 	391
f 389 	387 	390
f 336 	389 	390
f 390 	388 	391
f 392 	395 	74
f 392 	364 	391
f 364 	361 	391
f 365 	392 	74
f 393 	388 	341
f 341 	342 	394
f 341 	394 	393
f 395 	394 	343
f 342 	343 	394
f 343 	106 	395
f 392 	391 	394
f 107 	74 	106
f 394 	395 	392
f 106 	74 	395
f 74 	62 	365
f 396 	149 	397
f 150 	397 	149
f 6 	397 	150
f 201 	81 	6
f 6 	5 	201
f 5 	7 	201
f 403 	16 	398
f 401 	283 	400
f 400 	283 	317
f 399 	283 	401
f 398 	16 	399
f 283 	399 	16
f 406 	399 	401
f 404 	16 	402
f 405 	16 	404
f 13 	16 	405
f 403 	402 	16
f 406 	180 	399
f 272 	277 	406
f 406 	277 	180
f 409 	399 	407
f 408 	406 	401
f 406 	408 	272
f 409 	398 	399
f 410 	401 	400
f 410 	272 	408
f 408 	401 	410
f 329 	273 	410
f 410 	400 	329
f 180 	36 	407
f 180 	407 	399
f 411 	403 	398
f 409 	407 	73
f 409 	411 	398
f 411 	77 	75
f 402 	403 	66
f 66 	65 	402
f 77 	411 	409
f 66 	403 	411
f 404 	402 	65
f 65 	70 	404
f 75 	66 	411
f 70 	405 	404
f 70 	71 	405
f 71 	13 	405
f 81 	201 	71
f 77 	409 	73
# 818 faces

 #end of obj_0