# Rei de Xadrez - Simplificado e Em Pé (Y-Up)
# ~200 linhas | Escala baseada no original

# --- VÉRTICES ---
v 4.600 0.000 0.000
v 3.253 0.000 3.253
v 0.000 0.000 4.600
v -3.253 0.000 3.253
v -4.600 0.000 0.000
v -3.253 0.000 -3.253
v -0.000 0.000 -4.600
v 3.253 0.000 -3.253
v 4.600 1.000 0.000
v 3.253 1.000 3.253
v 0.000 1.000 4.600
v -3.253 1.000 3.253
v -4.600 1.000 0.000
v -3.253 1.000 -3.253
v -0.000 1.000 -4.600
v 3.253 1.000 -3.253
v 4.000 2.000 0.000
v 2.828 2.000 2.828
v 0.000 2.000 4.000
v -2.828 2.000 2.828
v -4.000 2.000 0.000
v -2.828 2.000 -2.828
v -0.000 2.000 -4.000
v 2.828 2.000 -2.828
v 3.000 6.000 0.000
v 2.121 6.000 2.121
v 0.000 6.000 3.000
v -2.121 6.000 2.121
v -3.000 6.000 0.000
v -2.121 6.000 -2.121
v -0.000 6.000 -3.000
v 2.121 6.000 -2.121
v 1.500 14.000 0.000
v 1.061 14.000 1.061
v 0.000 14.000 1.500
v -1.061 14.000 1.061
v -1.500 14.000 0.000
v -1.061 14.000 -1.061
v -0.000 14.000 -1.500
v 1.061 14.000 -1.061
v 2.500 14.500 0.000
v 1.768 14.500 1.768
v 0.000 14.500 2.500
v -1.768 14.500 1.768
v -2.500 14.500 0.000
v -1.768 14.500 -1.768
v -0.000 14.500 -2.500
v 1.768 14.500 -1.768
v 1.500 15.000 0.000
v 1.061 15.000 1.061
v 0.000 15.000 1.500
v -1.061 15.000 1.061
v -1.500 15.000 0.000
v -1.061 15.000 -1.061
v -0.000 15.000 -1.500
v 1.061 15.000 -1.061
v 2.000 18.000 0.000
v 1.414 18.000 1.414
v 0.000 18.000 2.000
v -1.414 18.000 1.414
v -2.000 18.000 0.000
v -1.414 18.000 -1.414
v -0.000 18.000 -2.000
v 1.414 18.000 -1.414
v 3.800 22.000 0.000
v 2.687 22.000 2.687
v 0.000 22.000 3.800
v -2.687 22.000 2.687
v -3.800 22.000 0.000
v -2.687 22.000 -2.687
v -0.000 22.000 -3.800
v 2.687 22.000 -2.687
v 3.500 23.000 0.000
v 2.475 23.000 2.475
v 0.000 23.000 3.500
v -2.475 23.000 2.475
v -3.500 23.000 0.000
v -2.475 23.000 -2.475
v -0.000 23.000 -3.500
v 2.475 23.000 -2.475
v 0.800 23.000 0.000
v 0.566 23.000 0.566
v 0.000 23.000 0.800
v -0.566 23.000 0.566
v -0.800 23.000 0.000
v -0.566 23.000 -0.566
v -0.000 23.000 -0.800
v 0.566 23.000 -0.566
v -0.300 23.000 -0.300
v 0.300 23.000 -0.300
v 0.300 23.000 0.300
v -0.300 23.000 0.300
v -0.300 27.000 -0.300
v 0.300 27.000 -0.300
v 0.300 27.000 0.300
v -0.300 27.000 0.300
v -1.250 24.900 -0.300
v 1.250 24.900 -0.300
v 1.250 24.900 0.300
v -1.250 24.900 0.300
v -1.250 26.100 -0.300
v 1.250 26.100 -0.300
v 1.250 26.100 0.300
v -1.250 26.100 0.300

# --- FACES ---
f 1 2 10 9
f 2 3 11 10
f 3 4 12 11
f 4 5 13 12
f 5 6 14 13
f 6 7 15 14
f 7 8 16 15
f 8 1 9 16
f 9 10 18 17
f 10 11 19 18
f 11 12 20 19
f 12 13 21 20
f 13 14 22 21
f 14 15 23 22
f 15 16 24 23
f 16 9 17 24
f 17 18 26 25
f 18 19 27 26
f 19 20 28 27
f 20 21 29 28
f 21 22 30 29
f 22 23 31 30
f 23 24 32 31
f 24 17 25 32
f 25 26 34 33
f 26 27 35 34
f 27 28 36 35
f 28 29 37 36
f 29 30 38 37
f 30 31 39 38
f 31 32 40 39
f 32 25 33 40
f 33 34 42 41
f 34 35 43 42
f 35 36 44 43
f 36 37 45 44
f 37 38 46 45
f 38 39 47 46
f 39 40 48 47
f 40 33 41 48
f 41 42 50 49
f 42 43 51 50
f 43 44 52 51
f 44 45 53 52
f 45 46 54 53
f 46 47 55 54
f 47 48 56 55
f 48 41 49 56
f 49 50 58 57
f 50 51 59 58
f 51 52 60 59
f 52 53 61 60
f 53 54 62 61
f 54 55 63 62
f 55 56 64 63
f 56 49 57 64
f 57 58 66 65
f 58 59 67 66
f 59 60 68 67
f 60 61 69 68
f 61 62 70 69
f 62 63 71 70
f 63 64 72 71
f 64 57 65 72
f 65 66 74 73
f 66 67 75 74
f 67 68 76 75
f 68 69 77 76
f 69 70 78 77
f 70 71 79 78
f 71 72 80 79
f 72 65 73 80
f 73 74 82 81
f 74 75 83 82
f 75 76 84 83
f 76 77 85 84
f 77 78 86 85
f 78 79 87 86
f 79 80 88 87
f 80 73 81 88
f 8 7 6 5 4 3 2 1
f 89 90 94 93
f 90 91 95 94
f 91 92 96 95
f 92 89 93 96
f 93 94 95 96
f 97 98 102 101
f 98 99 103 102
f 99 100 104 103
f 100 97 101 104
f 97 100 99 98
f 101 102 103 104