# Peão Low-Poly com Cabeça Esférica
# Orientação: Em pé (Y = Altura)

# --- BASE (Y=0.0 a Y=0.2) ---
v 1.00 0.00 0.00
v 0.71 0.00 0.71
v 0.00 0.00 1.00
v -0.71 0.00 0.71
v -1.00 0.00 0.00
v -0.71 0.00 -0.71
v 0.00 0.00 -1.00
v 0.71 0.00 -0.71

# --- PESCOÇO (Y=1.0) ---
v 0.30 1.00 0.00
v 0.21 1.00 0.21
v 0.00 1.00 0.30
v -0.21 1.00 0.21
v -0.30 1.00 0.00
v -0.21 1.00 -0.21
v 0.00 1.00 -0.30
v 0.21 1.00 -0.21

# --- CABEÇA CIRCULAR (Equador da esfera em Y=1.8) ---
v 0.60 1.80 0.00
v 0.42 1.80 0.42
v 0.00 1.80 0.60
v -0.42 1.80 0.42
v -0.60 1.80 0.00
v -0.42 1.80 -0.42
v 0.00 1.80 -0.60
v 0.42 1.80 -0.42

# --- PONTOS CENTRAIS (Base e Topo da Cabeça) ---
v 0.00 0.00 0.00
v 0.00 2.30 0.00

# --- FACES DO CORPO ---
f 1 2 10 9
f 2 3 11 10
f 3 4 12 11
f 4 5 13 12
f 5 6 14 13
f 6 7 15 14
f 7 8 16 15
f 8 1 9 16

# --- FACES DA CABEÇA ---
f 9 10 18 17
f 10 11 19 18
f 11 12 20 19
f 12 13 21 20
f 13 14 22 21
f 14 15 23 22
f 15 16 24 23
f 16 9 17 24

# --- FECHAMENTO ESFÉRICO (Topo) ---
f 26 17 18
f 26 18 19
f 26 19 20
f 26 20 21
f 26 21 22
f 26 22 23
f 26 23 24
f 26 24 17

# --- FECHAMENTO BASE ---
f 25 8 7 6 5 4 3 2 1