# Object Export From Tinkercad Server 2015

mtllib obj.mtl

o obj_0
v -4.581 		1.605 		17
v -4.5 		1.7693 		17
v -4.953 		0.218 		17
v -4.813 		0.924 		17
v -4.813 		-1.924 		17
v -4.953 		-1.218 		17
v -5 		-0.5 		17
v -4.5 		-2.7693 		17
v -4.581 		-2.605 		17
v 1.218 		4.953 		22.5
v 0.5 		5 		22.5
v -4.538 		0.163 		24.605
v 1.911 		4.767 		21.782
v -1.868 		-2.868 		18.137
v -2.156 		-2.538 		18.137
v 1.212 		4.906 		21.782
v 0.5 		4.953 		21.782
v 3.82 		-0.063 		18.137
v -4.538 		-1.163 		24.605
v -1.76 		-2.6809 		18
v -1.9125 		-2.5061 		18
v -1.9179 		-2.5 		18
v 3.734 		0.367 		18.137
v -2.848 		-4.863 		18
v -2.25 		-5.263 		18
v -2.848 		-4.863 		17
v -2.25 		-5.263 		17
v -1.7693 		-5.5 		17
v -4.581 		-0.5 		24.605
v 3.6166 		-0.0897 		18
v 3.635 		-0.377 		18
v 3.64 		-0.452 		18
v -2.041 		-4.901 		20.395
v 3.536 		0.3139 		18
v 3.5926 		0.0312 		18
v -1.882 		-4.625 		19.75
v 3.4484 		0.572 		18
v 3.4966 		0.4304 		18
v 3.868 		-2.445 		18.611
v -4.408 		-2.533 		23.924
v 4.093 		-1.988 		18.611
v -4.101 		-3.156 		23.924
v 1.875 		4.632 		21.076
v -1.587 		-0.225 		27.581
v -0.911 		-0.314 		27.813
v -1.533 		0.045 		27.581
v 1.193 		4.767 		21.076
v -4.222 		-3.226 		23.218
v -3.826 		-3.82 		23.218
v -1.323 		0.552 		27.581
v 0.5 		4.813 		21.076
v -4.263 		-3.25 		22.5
v -1.882 		0.875 		27.263
v -3.863 		-3.848 		22.5
v -2.156 		1.538 		26.863
v -2.4 		1.174 		26.863
v -4.222 		-3.226 		21.782
v 2.605 		4.581 		18
v 2.7693 		4.5 		17
v 2.605 		4.581 		17
v -2.593 		0.781 		26.863
v -3.826 		-3.82 		21.782
v 1.163 		4.538 		20.395
v 0.5 		4.581 		20.395
v -4.408 		-2.533 		21.076
v -2.041 		0.552 		27.263
v -4.101 		-3.156 		21.076
v -2.156 		0.212 		27.263
v 0.5 		5 		18
v 1.924 		4.813 		18
v 1.218 		4.953 		18
v 1.924 		4.813 		17
v 1.218 		4.953 		17
v 0.5 		5 		17
v -2.226 		-0.141 		27.263
v -0.193 		4.767 		23.924
v -0.875 		4.632 		23.924
v -2.734 		0.367 		26.863
v -2.82 		-0.063 		26.863
v 4.257 		-1.507 		18.611
v -0.507 		-4.257 		26.389
v -0.008 		-4.356 		26.389
v -4.263 		-3.25 		18
v -3.863 		-3.848 		18
v -4.263 		-3.25 		17
v -3.863 		-3.848 		17
v 4.356 		-1.008 		18.611
v -1.682 		-4.279 		25.848
v -3.901 		-3.041 		20.395
v -1.445 		-3.868 		26.389
v -4.581 		1.605 		22.5
v -1.17 		-4.531 		25.848
v -0.988 		-4.093 		26.389
v 5.5 		1.7693 		17
v 4.389 		3.389 		17
v 4.863 		2.848 		17
v 5.263 		2.25 		17
v -0.212 		4.906 		23.218
v -0.911 		4.767 		23.218
v 3.25 		4.263 		17
v 3.848 		3.863 		17
v 3.734 		-1.367 		18.137
v 2.621 		1.621 		17
v -1.587 		4.538 		23.218
v 3.82 		-0.937 		18.137
v -0.629 		-4.715 		25.848
v 2.326 		1.88 		17
v 2.336 		1.8712 		17
v 3.848 		-0.5 		18.137
v -0.07 		-4.826 		25.848
v 2 		2.098 		17
v 3.536 		-1.3139 		18
v 3.5355 		-1.3154 		18
v 3.4808 		-1.476 		18
v -1.323 		-4.901 		25.25
v 1.648 		2.272 		17
v 3.6166 		-0.9103 		18
v 3.56 		-1.193 		18
v 1.6532 		2.2694 		17
v -0.733 		-5.101 		25.25
v 1.312 		2.3858 		17
v 3.6432 		-0.5 		18
v 3.643 		-0.5027 		18
v 3.6248 		-0.7873 		18
v 1.276 		2.398 		17
v -0.218 		4.953 		22.5
v 0.892 		2.474 		17
v -0.122 		-5.222 		25.25
v 0.5 		2.5 		17
v -0.924 		4.813 		22.5
v 0.288 		2.4859 		17
v 3.4 		-2.174 		18.137
v 2.88 		-2.326 		17
v -3.863 		-0.5 		19.152
v -1.605 		4.581 		22.5
v 2.7272 		-2.5 		17
v 3.098 		-2 		17
v 3.593 		-1.781 		18.137
v -0.212 		4.906 		21.782
v -0.911 		4.767 		21.782
v 1.212 		-0.406 		27.953
v 3.272 		-1.648 		17
v 1.193 		-0.314 		27.953
v 3.2694 		-1.6532 		17
v 1.163 		-0.225 		27.953
v -1.587 		4.538 		21.782
v 3.36 		-1.3882 		17
v 1.122 		-0.141 		27.953
v 3.398 		-1.276 		17
v 3.3303 		-1.476 		17
v -2.868 		1.445 		26.389
v 4.715 		-3.734 		23.924
v -3.093 		0.988 		26.389
v -4.632 		0.875 		23.924
v 5.101 		-3.156 		23.924
v -3.257 		0.507 		26.389
v 3.474 		-0.892 		17
v -4.767 		0.193 		23.924
v 3.5 		-0.5 		17
v -3.356 		0.008 		26.389
v 5.408 		-2.533 		23.924
v 3.4999 		-0.5014 		17
v 3.4968 		-0.452 		17
v 3.474 		-0.108 		17
v 4.826 		-3.82 		23.218
v -4.538 		1.587 		23.218
v 3.398 		0.276 		17
v -3.531 		1.17 		25.848
v 5.222 		-3.226 		23.218
v 3.272 		0.648 		17
v -4.767 		0.911 		23.218
v -3.715 		0.629 		25.848
v 3.2977 		0.572 		17
v 3.2735 		0.6435 		17
v -4.906 		0.212 		23.218
v 3.098 		1 		17
v 2.88 		1.326 		17
v 0.108 		2.474 		17
v -1.7693 		4.5 		17
v -3.389 		3.389 		17
v -2.848 		3.863 		17
v -2.25 		4.263 		17
v -0.276 		2.398 		17
v 4.389 		-4.389 		22.5
v -0.648 		2.272 		17
v -0.218 		-0.5 		27.953
v -0.212 		-0.594 		27.953
v -0.193 		-0.686 		27.953
v -4.813 		-0.5 		23.924
v -4.767 		-1.193 		23.924
v 4.863 		-3.848 		22.5
v -0.163 		-0.775 		27.953
v -0.6435 		2.2735 		17
v -0.736 		2.2285 		17
v -0.122 		-0.859 		27.953
v -1 		2.098 		17
v -0.07 		-0.937 		27.953
v -1.326 		1.88 		17
v -1.621 		1.621 		17
v -0.193 		4.767 		21.076
v -1.88 		1.326 		17
v -0.875 		4.632 		21.076
v -1.76 		1.4627 		17
v -2.098 		1 		17
v 2.9937 		-2.4133 		18
v 2.993 		-2.4141 		18
v 3.2226 		-2.0716 		18
v 3.0622 		-2.3109 		18
v -2.272 		0.648 		17
v 3.4039 		-1.7026 		18
v 3.403 		-1.7044 		18
v 3.277 		-1.961 		18
v -2.2694 		0.6532 		17
v -2.2977 		0.572 		17
v -2.398 		0.276 		17
v 3.4433 		-1.5861 		18
v -2.474 		-0.108 		17
v -0.008 		-1.008 		27.953
v -1.445 		-5.195 		24.605
v 0.063 		-1.07 		27.953
v 0.141 		-1.122 		27.953
v 0.225 		-1.163 		27.953
v -0.815 		-5.408 		24.605
v -2.5 		-0.5 		17
v -0.163 		4.538 		20.395
v -2.4968 		-0.452 		17
v -2.4999 		-0.4986 		17
v -2.474 		-0.892 		17
v -0.733 		-1.212 		27.813
v -2.398 		-1.276 		17
v 5.263 		-3.25 		22.5
v -0.629 		-1.367 		27.813
v -0.218 		4.953 		18
v -0.924 		4.813 		18
v -1.605 		4.581 		18
v -0.218 		4.953 		17
v -2.272 		-1.648 		17
v -0.924 		4.813 		17
v -1.605 		4.581 		17
v -2.3303 		-1.476 		17
v -2.2735 		-1.6435 		17
v 4.826 		-3.82 		21.782
v -2.098 		-2 		17
v 4.625 		1.882 		25.25
v -1.88 		-2.326 		17
v -1.76 		-2.4627 		17
v -1.7272 		-2.5 		17
v 5.222 		-3.226 		21.782
v 4.901 		2.041 		24.605
v -4.263 		2.25 		17
v -3.863 		2.848 		17
v 4.531 		2.593 		24.605
v 5.263 		-3.25 		17
v 4.863 		-3.848 		17
v 4.389 		-4.389 		17
v 2.7693 		-5.5 		17
v 3.848 		-4.863 		17
v 3.25 		-5.263 		17
v 4.715 		-3.734 		21.076
v 0.5 		-3.5 		17
v 0.892 		-3.474 		17
v 5.101 		-3.156 		21.076
v -0.924 		-0.5 		27.813
v -0.911 		-0.686 		27.813
v -4.632 		-1.875 		23.924
v 4.826 		0.07 		25.848
v -0.875 		-0.868 		27.813
v 4.715 		0.629 		25.848
v -3.389 		-4.389 		17
v -0.815 		-1.045 		27.813
v 4.531 		1.17 		25.848
v -2.156 		-2.538 		26.863
v -1.868 		-2.868 		26.863
v 5.222 		0.122 		25.25
v -1.533 		4.408 		23.924
v 0.4986 		-3.4999 		17
v 5.5 		-2.7693 		17
v 1.276 		-3.398 		17
v 5.101 		0.733 		25.25
v 4.901 		1.323 		25.25
v 1.648 		-3.272 		17
v 1.312 		-3.3858 		17
v 1.6435 		-3.2735 		17
v -4.906 		-1.212 		23.218
v -2.156 		4.101 		23.924
v -4.953 		-0.5 		23.218
v 2 		-3.098 		17
v -4.767 		-1.911 		23.218
v -2.734 		3.715 		23.924
v 2.326 		-2.88 		17
v -3.257 		3.257 		23.924
v 2.336 		-2.8712 		17
v 2.621 		-2.621 		17
v -3.715 		2.734 		23.924
v -1.621 		-2.621 		17
v 5.408 		0.815 		24.605
v 5.195 		1.445 		24.605
v -1.326 		-2.88 		17
v -4.813 		0.924 		22.5
v -1 		-3.098 		17
v -4.953 		0.218 		22.5
v 4.389 		-0.5 		26.389
v -0.648 		-3.272 		17
v -4.538 		1.587 		21.782
v 4.531 		-2.17 		25.848
v -0.6532 		-3.2694 		17
v -4.767 		0.911 		21.782
v -0.276 		-3.398 		17
v 4.715 		-1.629 		25.848
v -4.906 		0.212 		21.782
v 0.108 		-3.474 		17
v -1.587 		-0.775 		27.581
v 4.826 		-1.07 		25.848
v -1.605 		-0.5 		27.581
v -4.632 		0.875 		21.076
v -1.533 		-1.045 		27.581
v 4.863 		-0.5 		25.848
v -4.767 		0.193 		21.076
v -1.445 		-1.305 		27.581
v -4.953 		-1.218 		22.5
v -5 		-0.5 		22.5
v -4.813 		-1.924 		22.5
v 4.901 		-2.323 		25.25
v -4.953 		-0.5 		21.782
v -4.906 		-1.212 		21.782
v 5.101 		-1.733 		25.25
v -0.507 		-1.507 		27.813
v -4.767 		-1.911 		21.782
v -0.367 		-1.629 		27.813
v 5.222 		-1.122 		25.25
v -0.212 		-1.733 		27.813
v 5.263 		-0.5 		25.25
v -4.813 		-0.5 		21.076
v -4.767 		-1.193 		21.076
v -0.045 		-1.815 		27.813
v 0.132 		-1.875 		27.813
v 5.195 		-2.445 		24.605
v -4.632 		-1.875 		21.076
v 5.408 		-1.815 		24.605
v -2.226 		4.222 		23.218
v -0.552 		-2.323 		27.581
v -2.82 		3.826 		23.218
v -0.305 		-2.445 		27.581
v -3.356 		3.356 		23.218
v -4.581 		1.605 		18
v -4.813 		0.924 		18
v -4.953 		0.218 		18
v 2.868 		1.868 		26.863
v -4.538 		0.163 		20.395
v 2.538 		2.156 		26.863
v -1.323 		-1.552 		27.581
v -4.538 		-1.163 		20.395
v 5.408 		-2.533 		21.076
v -4.581 		-0.5 		20.395
v -1.17 		-1.781 		27.581
v -0.988 		-1.988 		27.581
v -1.533 		4.408 		21.076
v -0.781 		-2.17 		27.581
v -5 		-0.5 		18
v -4.953 		-1.218 		18
v -4.813 		-1.924 		18
v -4.538 		-2.587 		23.218
v -1.682 		-2.174 		27.263
v 4.389 		-4.389 		18
v 4.863 		-3.848 		18
v 5.263 		-3.25 		18
v -1.445 		-2.445 		27.263
v 4.531 		-3.593 		20.395
v -4.581 		-2.605 		22.5
v 4.901 		-3.041 		20.395
v -4.538 		-2.587 		21.782
v -2.25 		4.263 		22.5
v -4.581 		-2.605 		18
v 2.605 		-5.581 		17
v -2.25 		-0.5 		27.263
v 1.924 		-5.813 		17
v -2.226 		-0.859 		27.263
v 1.218 		-5.953 		17
v 0.5 		-6 		17
v -0.218 		-5.953 		17
v -0.924 		-5.813 		17
v -1.605 		-5.581 		17
v -2.848 		3.863 		22.5
v 0.5 		-5.581 		24.605
v -2.156 		-1.212 		27.263
v 1.163 		-5.538 		24.605
v -2.226 		4.222 		21.782
v -2.82 		3.826 		21.782
v -2.82 		-0.937 		26.863
v -2.848 		-0.5 		26.863
v -2.734 		-1.367 		26.863
v -0.163 		-5.538 		24.605
v -2.585 		-2.868 		26.389
v -2.25 		-3.25 		26.389
v -1.868 		-3.585 		26.389
v 2.587 		-5.538 		23.218
v -3.279 		-2.682 		25.848
v -2.962 		-3.156 		25.848
v 0.5 		-5.813 		23.924
v -2.041 		-1.552 		27.263
v -2.585 		-3.585 		25.848
v -1.882 		-1.875 		27.263
v 1.193 		-5.767 		23.924
v -2.593 		-1.781 		26.863
v -2.156 		-3.962 		25.848
v 1.875 		-5.632 		23.924
v -2.4 		-2.174 		26.863
v 0.5 		-5.953 		23.218
v 1.212 		-5.906 		23.218
v 1.911 		-5.767 		23.218
v -3.389 		-0.5 		26.389
v -3.356 		-1.008 		26.389
v -3.257 		-1.507 		26.389
v -3.625 		-2.882 		25.25
v -3.093 		-1.988 		26.389
v -3.279 		-3.4 		25.25
v -2.868 		-2.445 		26.389
v -2.868 		-3.868 		25.25
v -2.4 		-4.279 		25.25
v -3.715 		-1.629 		25.848
v -3.531 		-2.17 		25.848
v -3.531 		-3.593 		24.605
v -3.093 		-4.093 		24.605
v -2.593 		-4.531 		24.605
v -3.901 		2.041 		24.605
v -3.826 		0.07 		25.848
v 2.605 		-5.581 		22.5
v 2.587 		-5.538 		21.782
v -3.901 		1.323 		25.25
v -1.882 		-4.625 		25.25
v -4.101 		0.733 		25.25
v -2.041 		-4.901 		24.605
v -4.222 		0.122 		25.25
v 0.5 		-6 		22.5
v 1.218 		-5.953 		22.5
v 1.924 		-5.813 		22.5
v -4.195 		1.445 		24.605
v 0.5 		-5.953 		21.782
v -4.408 		0.815 		24.605
v -3.901 		-3.041 		24.605
v 1.212 		-5.906 		21.782
v 1.911 		-5.767 		21.782
v 5.101 		2.156 		23.924
v -2.156 		4.101 		21.076
v 4.715 		2.734 		23.924
v -2.734 		3.715 		21.076
v 5.222 		2.226 		23.218
v 4.826 		2.82 		23.218
v -3.389 		3.389 		22.5
v 3.041 		3.901 		24.605
v -3.356 		3.356 		21.782
v 2.445 		4.195 		24.605
v -3.257 		3.257 		21.076
v 5.263 		2.25 		22.5
v -3.715 		2.734 		21.076
v 4.863 		2.848 		22.5
v 2.445 		2.868 		26.389
v 4.389 		3.389 		22.5
v 3.156 		2.962 		25.848
v 5.222 		2.226 		21.782
v 2.682 		3.279 		25.848
v 4.826 		2.82 		21.782
v -0.815 		4.408 		20.395
v -1.445 		4.195 		20.395
v -0.122 		4.222 		19.75
v -0.733 		4.101 		19.75
v 5.101 		2.156 		21.076
v 4.715 		2.734 		21.076
v 3.585 		1.868 		26.389
v 4.625 		-2.882 		19.75
v 3.25 		2.25 		26.389
v 2.533 		-5.408 		23.924
v 2.868 		2.585 		26.389
v 3.156 		-5.101 		23.924
v 3.734 		-4.715 		23.924
v 4.257 		-4.257 		23.924
v 4.279 		1.682 		25.848
v 3.962 		2.156 		25.848
v 5.408 		1.533 		23.924
v 3.585 		2.585 		25.848
v 3.226 		-5.222 		23.218
v 3.82 		-4.826 		23.218
v 4.356 		-4.356 		23.218
v 5.408 		1.533 		21.076
v 4.279 		2.4 		25.25
v 3.868 		2.868 		25.25
v 3.4 		3.279 		25.25
v 0.5 		-5.813 		21.076
v 1.193 		-5.767 		21.076
v 1.875 		-5.632 		21.076
v 4.356 		-4.356 		21.782
v 5.263 		2.25 		18
v 4.863 		2.848 		18
v 4.389 		3.389 		18
v 4.257 		-4.257 		21.076
v -1.323 		3.901 		19.75
v -0.07 		3.826 		19.152
v 2.605 		-5.581 		18
v 0.5 		-5.581 		20.395
v -0.629 		3.715 		19.152
v 1.163 		-5.538 		20.395
v 0.5 		-6 		18
v 1.218 		-5.953 		18
v 1.924 		-5.813 		18
v -0.875 		-5.632 		23.924
v -0.193 		-5.767 		23.924
v -1.587 		-5.538 		23.218
v -1.17 		3.531 		19.152
v -0.911 		-5.767 		23.218
v -1.682 		3.279 		19.152
v -0.212 		-5.906 		23.218
v -0.008 		3.356 		18.611
v -0.507 		3.257 		18.611
v -0.988 		3.093 		18.611
v -1.445 		2.868 		18.611
v -1.605 		-5.581 		22.5
v -0.924 		-5.813 		22.5
v -0.218 		-5.953 		22.5
v -1.587 		-5.538 		21.782
v -0.911 		-5.767 		21.782
v -0.212 		-5.906 		21.782
v -0.875 		-5.632 		21.076
v -0.193 		-5.767 		21.076
v 0.063 		2.82 		18.137
v 4.901 		2.041 		20.395
v -0.367 		2.734 		18.137
v 4.531 		2.593 		20.395
v 4.625 		1.882 		19.75
v -3.826 		-1.07 		25.848
v -3.863 		-0.5 		25.848
v 2.882 		3.625 		25.25
v 0.1435 		2.62 		18
v 0.288 		2.6293 		18
v 4.093 		3.093 		24.605
v 1.07 		-0.063 		27.953
v -4.263 		-0.5 		25.25
v 1.008 		0.008 		27.953
v 0.0897 		2.6166 		18
v -4.222 		-1.122 		25.25
v 3.593 		3.531 		24.605
v -0.3139 		2.536 		18
v -0.0312 		2.5926 		18
v -4.101 		-1.733 		25.25
v -0.7026 		2.4039 		18
v -0.4304 		2.4966 		18
v -3.901 		-2.323 		25.25
v -0.736 		2.3875 		18
v -0.781 		2.593 		18.137
v 1.367 		2.734 		26.863
v -1.174 		2.4 		18.137
v -4.408 		-1.815 		24.605
v 0.937 		2.82 		26.863
v -4.195 		-2.445 		24.605
v 0.5 		2.848 		26.863
v -1.538 		2.156 		18.137
v 4.625 		-2.882 		25.25
v -1.0716 		2.2226 		18
v -0.8132 		2.3495 		18
v 3.734 		-1.367 		26.863
v -1.4133 		1.9937 		18
v -1.4125 		1.9942 		18
v -1.174 		2.1541 		18
v 3.82 		-0.937 		26.863
v 3.848 		-0.5 		26.863
v -1.7231 		1.7231 		18
v -1.5061 		1.9125 		18
v 5.408 		0.815 		20.395
v 5.195 		1.445 		20.395
v -1.76 		1.681 		18
v -2.041 		3.901 		20.395
v 5.222 		0.122 		19.75
v 5.101 		0.733 		19.75
v 4.901 		1.323 		19.75
v 2.445 		-1.305 		27.581
v -2.593 		3.531 		20.395
v 2.533 		-1.045 		27.581
v -3.093 		3.093 		20.395
v 2.587 		-0.775 		27.581
v -3.531 		2.593 		20.395
v 2.605 		-0.5 		27.581
v -0.218 		-5.953 		18
v -1.605 		-5.581 		18
v -0.924 		-5.813 		18
v -1.882 		3.625 		19.75
v -0.163 		-5.538 		20.395
v 4.826 		0.07 		19.152
v -2.4 		3.279 		19.75
v 3.156 		-1.212 		27.263
v 4.715 		0.629 		19.152
v -2.868 		2.868 		19.75
v 3.226 		-0.859 		27.263
v 4.531 		1.17 		19.152
v 4.531 		-3.593 		24.605
v 4.467 		2.544 		0
v 4.83 		2 		0
v 5.119 		1.413 		0
v 5.33 		0.794 		0
v 5.457 		0.153 		0
v 5.5 		-0.5 		0
v 5.457 		-1.153 		0
v 5.33 		-1.794 		0
v 3.25 		-0.5 		27.263
v 5.119 		-2.413 		0
v 4.901 		-3.041 		24.605
v 0.5 		4.5 		0
v 1.153 		4.457 		0
v 1.794 		4.33 		0
v 2.413 		4.119 		0
v 3 		3.83 		0
v 3.544 		3.467 		0
v 4.036 		3.036 		0
v -3.467 		2.544 		0
v -3.036 		3.036 		0
v -2.544 		3.467 		0
v -2 		3.83 		0
v -1.413 		4.119 		0
v -0.794 		4.33 		0
v -0.153 		4.457 		0
v -4.119 		-2.413 		0
v -4.33 		-1.794 		0
v -4.457 		-1.153 		0
v -4.5 		-0.5 		0
v -4.457 		0.153 		0
v -4.33 		0.794 		0
v -4.119 		1.413 		0
v -3.83 		2 		0
v 4.83 		-3 		0
v 4.467 		-3.544 		0
v 0.5 		-5.5 		0
v 4.036 		-4.036 		0
v 3.544 		-4.467 		0
v 3 		-4.83 		0
v 2.413 		-5.119 		0
v 1.794 		-5.33 		0
v 1.153 		-5.457 		0
v -0.153 		-5.457 		0
v -0.794 		-5.33 		0
v -1.413 		-5.119 		0
v -2 		-4.83 		0
v -2.544 		-4.467 		0
v -3.036 		-4.036 		0
v -3.467 		-3.544 		0
v -3.83 		-3 		0
v 2.538 		-3.156 		26.863
v 5.195 		-2.445 		20.395
v 5.581 		1.605 		17
v 5.813 		0.924 		17
v 5.953 		0.218 		17
v 2.868 		-2.868 		26.863
v 6 		-0.5 		17
v 5.953 		-1.218 		17
v 5.813 		-1.924 		17
v 5.581 		-2.605 		17
v 2.445 		-2.445 		27.263
v 5.408 		-1.815 		20.395
v 5.538 		0.163 		24.605
v 3.156 		-2.538 		26.863
v 2.682 		-2.174 		27.263
v 4.901 		-2.323 		19.75
v 5.101 		-1.733 		19.75
v 2.882 		-1.875 		27.263
v 5.222 		-1.122 		19.75
v 3.041 		-1.552 		27.263
v 5.263 		-0.5 		19.75
v 5.538 		-1.163 		24.605
v 5.581 		-0.5 		24.605
v 3.25 		-3.25 		26.389
v 2.174 		1.682 		27.263
v -3.279 		2.4 		19.75
v 1.875 		1.882 		27.263
v 1.552 		2.041 		27.263
v -3.625 		1.882 		19.75
v 2.174 		2.4 		26.863
v 5.581 		1.605 		22.5
v 1.781 		2.593 		26.863
v 5.767 		0.193 		23.924
v 5.632 		0.875 		23.924
v 0.5 		1.605 		27.581
v 1.212 		2.156 		27.263
v 5.906 		0.212 		23.218
v -2.156 		2.962 		19.152
v 0.859 		2.226 		27.263
v 5.767 		0.911 		23.218
v 0.5 		2.25 		27.263
v -2.585 		2.585 		19.152
v 5.538 		1.587 		23.218
v -2.962 		2.156 		19.152
v -3.279 		1.682 		19.152
v -1.868 		2.585 		18.611
v 3.585 		-2.868 		26.389
v -2.25 		2.25 		18.611
v 3.962 		-3.156 		25.848
v 4.531 		-2.17 		19.152
v 4.279 		-2.682 		25.848
v 4.715 		-1.629 		19.152
v 4.826 		-1.07 		19.152
v 4.863 		-0.5 		19.152
v 2.445 		-3.868 		26.389
v 2.868 		-3.585 		26.389
v 4.389 		-0.5 		18.611
v 2.682 		-4.279 		25.848
v 3.156 		-3.962 		25.848
v 3.585 		-3.585 		25.848
v 4.257 		3.257 		23.924
v 3.734 		3.715 		23.924
v 3.4 		-4.279 		25.25
v 3.156 		4.101 		23.924
v 3.868 		-3.868 		25.25
v 4.279 		-3.4 		25.25
v 2.533 		4.408 		23.924
v 4.356 		3.356 		23.218
v 3.593 		-4.531 		24.605
v 3.82 		3.826 		23.218
v 4.093 		-4.093 		24.605
v 3.226 		4.222 		23.218
v 2.882 		-4.625 		25.25
v 2.445 		-5.195 		24.605
v 3.041 		-4.901 		24.605
v 3.848 		3.863 		22.5
v 3.25 		4.263 		22.5
v 1.552 		-3.041 		27.263
v 1.875 		-2.882 		27.263
v 3.82 		3.826 		21.782
v 3.226 		4.222 		21.782
v 5.632 		-1.875 		23.924
v 3.734 		3.715 		21.076
v 3.156 		4.101 		21.076
v 5.767 		-1.193 		23.924
v 3.4 		-2.174 		26.863
v 2.174 		-2.682 		27.263
v 2.533 		4.408 		21.076
v 3.593 		-1.781 		26.863
v 2.174 		-3.4 		26.863
v 4.356 		3.356 		21.782
v 3.868 		-2.445 		26.389
v 4.093 		-1.988 		26.389
v 0.5 		-2.605 		27.581
v 4.257 		3.257 		21.076
v 4.257 		-1.507 		26.389
v 0.775 		-2.587 		27.581
v 4.356 		-1.008 		26.389
v 1.045 		-2.533 		27.581
v 0.5 		-3.25 		27.263
v 0.859 		-3.226 		27.263
v 1.212 		-3.156 		27.263
v 3.041 		3.901 		20.395
v 2.445 		4.195 		20.395
v 4.093 		3.093 		20.395
v 0.5 		-3.848 		26.863
v 3.593 		3.531 		20.395
v 0.937 		-3.82 		26.863
v 4.279 		2.4 		19.75
v 1.367 		-3.734 		26.863
v 3.868 		2.868 		19.75
v 1.781 		-3.593 		26.863
v 3.4 		3.279 		19.75
v 3.25 		-5.263 		22.5
v 2.882 		3.625 		19.75
v 3.848 		-4.863 		22.5
v 3.226 		-5.222 		21.782
v 3.82 		-4.826 		21.782
v 0.5 		-4.389 		26.389
v 1.008 		-4.356 		26.389
v 3.156 		2.962 		19.152
v 1.507 		-4.257 		26.389
v 2.533 		-5.408 		21.076
v 2.682 		3.279 		19.152
v 3.156 		-5.101 		21.076
v 1.988 		-4.093 		26.389
v 3.734 		-4.715 		21.076
v 2.445 		2.868 		18.611
v 4.279 		1.682 		19.152
v 2.17 		-4.531 		25.848
v 3.962 		2.156 		19.152
v 0.5 		-4.863 		25.848
v 3.585 		2.585 		19.152
v 1.07 		-4.826 		25.848
v 3.593 		-4.531 		20.395
v 1.629 		-4.715 		25.848
v 1.629 		-1.367 		27.813
v 1.733 		-1.212 		27.813
v -2.585 		1.868 		18.611
v 1.815 		-1.045 		27.813
v 1.875 		-0.868 		27.813
v 0.5 		-5.263 		25.25
v 1.911 		-0.686 		27.813
v 1.122 		-5.222 		25.25
v 1.924 		-0.5 		27.813
v 1.733 		-5.101 		25.25
v 2.323 		-4.901 		25.25
v -2.25 		4.263 		18
v -2.848 		3.863 		18
v -3.389 		3.389 		18
v -1.868 		1.868 		18.137
v 1.815 		-5.408 		24.605
v -0.045 		-2.533 		27.581
v 0.225 		-2.587 		27.581
v -1.8342 		1.596 		18
v -1.8043 		1.6303 		18
v -3.531 		1.17 		19.152
v -0.552 		-3.041 		27.263
v 1.07 		-0.937 		27.953
v 1.122 		-0.859 		27.953
v -3.715 		0.629 		19.152
v -0.212 		-3.156 		27.263
v 1.163 		-0.775 		27.953
v 1.193 		-0.686 		27.953
v -2.868 		1.445 		18.611
v 1.212 		-0.594 		27.953
v 1.218 		-0.5 		27.953
v -3.093 		0.988 		18.611
v 0.141 		-3.226 		27.263
v -3.257 		0.507 		18.611
v -3.356 		0.008 		18.611
v -1.174 		-2.682 		27.263
v -0.875 		-2.882 		27.263
v -1.538 		-3.156 		26.863
v -1.174 		-3.4 		26.863
v -2.156 		1.538 		18.137
v -2.4 		1.174 		18.137
v -2.593 		0.781 		18.137
v -0.781 		-3.593 		26.863
v -0.367 		-3.734 		26.863
v 0.063 		-3.82 		26.863
v -1.9937 		1.4133 		18
v -1.993 		1.4141 		18
v 0.5 		-0.5 		28
v -2.2226 		1.0716 		18
v -2.0622 		1.3109 		18
v -2.4039 		0.7026 		18
v -2.403 		0.7044 		18
v -2.277 		0.961 		18
v -2.4481 		0.572 		18
v -2.4433 		0.5861 		18
v -2.734 		0.367 		18.137
v 5.813 		-0.5 		23.924
v -2.82 		-0.063 		18.137
v 4.093 		-4.093 		20.395
v 3.585 		1.868 		18.611
v 3.4 		-4.279 		19.75
v 3.25 		2.25 		18.611
v 5.767 		-1.911 		23.218
v 5.906 		-1.212 		23.218
v 3.868 		-3.868 		19.75
v 2.868 		2.585 		18.611
v 5.953 		-0.5 		23.218
v 4.279 		-3.4 		19.75
v 3.848 		3.863 		18
v 3.25 		4.263 		18
v 5.953 		0.218 		22.5
v 2.868 		1.868 		18.137
v 5.813 		0.924 		22.5
v 2.538 		2.156 		18.137
v -2.536 		0.3139 		18
v -2.5355 		0.3154 		18
v 5.906 		0.212 		21.782
v -2.6166 		-0.0897 		18
v -2.56 		0.193 		18
v 5.767 		0.911 		21.782
v -2.6401 		-0.452 		18
v -2.6248 		-0.2127 		18
v 5.538 		1.587 		21.782
v -3.715 		-1.629 		19.152
v 5.767 		0.193 		21.076
v -3.531 		-2.17 		19.152
v 5.632 		0.875 		21.076
v -3.389 		-0.5 		18.611
v -3.356 		-1.008 		18.611
v -3.257 		-1.507 		18.611
v -3.093 		-1.988 		18.611
v 5.813 		-1.924 		22.5
v 2.7231 		1.7231 		18
v 2.4133 		1.9937 		18
v 2.4141 		1.993 		18
v 2.6303 		1.8043 		18
v 5.953 		-1.218 		22.5
v -2.868 		-2.445 		18.611
v 2.336 		2.0454 		18
v 6 		-0.5 		22.5
v 1.815 		4.408 		20.395
v 2.323 		3.901 		19.75
v 5.767 		-1.911 		21.782
v 1.733 		4.101 		19.75
v 5.906 		-1.212 		21.782
v 5.953 		-0.5 		21.782
v 1.122 		4.222 		19.75
v 0.5 		4.263 		19.75
v -2.82 		-0.937 		18.137
v -2.848 		-0.5 		18.137
v -2.734 		-1.367 		18.137
v 5.632 		-1.875 		21.076
v 5.767 		-1.193 		21.076
v 5.813 		-0.5 		21.076
v -2.6166 		-0.9103 		18
v -2.635 		-0.623 		18
v -2.6432 		-0.5 		18
v -2.643 		-0.4973 		18
v 1.629 		3.715 		25.848
v 5.581 		1.605 		18
v -2.536 		-1.3139 		18
v -2.5926 		-1.0312 		18
v 1.07 		3.826 		25.848
v 0.5 		3.863 		25.848
v -2.4811 		-1.476 		18
v -2.4966 		-1.4304 		18
v 3.962 		-3.156 		19.152
v 4.279 		-2.682 		19.152
v -2.593 		-1.781 		18.137
v 3.25 		-3.25 		18.611
v 5.538 		0.163 		20.395
v 1.629 		3.715 		19.152
v 2.323 		3.901 		25.25
v 1.07 		3.826 		19.152
v 1.733 		4.101 		25.25
v 5.953 		0.218 		18
v 5.813 		0.924 		18
v 0.5 		3.863 		19.152
v 5.538 		-1.163 		20.395
v 1.122 		4.222 		25.25
v 5.581 		-0.5 		20.395
v 0.5 		4.263 		25.25
v 1.815 		4.408 		24.605
v 2.17 		3.531 		19.152
v 6 		-0.5 		18
v 5.813 		-1.924 		18
v 5.953 		-1.218 		18
v 1.988 		3.093 		18.611
v 5.538 		-2.587 		23.218
v 1.507 		3.257 		18.611
v 1.008 		3.356 		18.611
v 3.585 		-2.868 		18.611
v -2.4 		-2.174 		18.137
v 0.5 		3.389 		18.611
v 1.988 		3.093 		26.389
v 1.507 		3.257 		26.389
v 1.008 		3.356 		26.389
v -2.4039 		-1.7026 		18
v -2.4042 		-1.7017 		18
v 0.5 		3.389 		26.389
v -2.2226 		-2.0716 		18
v -2.3495 		-1.8132 		18
v 2.682 		-4.279 		19.152
v 2.17 		3.531 		25.848
v -1.9937 		-2.4133 		18
v -1.9942 		-2.4125 		18
v -2.1541 		-2.174 		18
v 3.156 		-3.962 		19.152
v -4.101 		2.156 		23.924
v 1.367 		2.734 		18.137
v 3.585 		-3.585 		19.152
v 0.937 		2.82 		18.137
v 2.445 		-3.868 		18.611
v -3.826 		2.82 		23.218
v -4.222 		2.226 		23.218
v 2.868 		-3.585 		18.611
v 0.5 		2.848 		18.137
v 2.882 		0.875 		27.263
v 2.682 		1.174 		27.263
v 2.445 		1.445 		27.263
v -3.863 		2.848 		22.5
v 5.581 		-2.605 		22.5
v 3.593 		0.781 		26.863
v -4.263 		2.25 		22.5
v 5.538 		-2.587 		21.782
v 3.4 		1.174 		26.863
v 0.5 		2.6432 		18
v 0.5027 		2.643 		18
v 0.7873 		2.6248 		18
v 0.8588 		2.62 		18
v 3.156 		1.538 		26.863
v -3.826 		2.82 		21.782
v 0.377 		2.635 		18
v -4.222 		2.226 		21.782
v 2.174 		2.4 		18.137
v -4.101 		2.156 		21.076
v 1.781 		2.593 		18.137
v 2.538 		-3.156 		18.137
v 2.868 		-2.868 		18.137
v 2.0716 		2.2226 		18
v 2.3109 		2.0622 		18
v 1.7026 		2.4039 		18
v 1.7044 		2.403 		18
v 1.961 		2.277 		18
v 3.156 		-2.538 		18.137
v -4.408 		1.533 		23.924
v 2.587 		-0.225 		27.581
v 1.3139 		2.536 		18
v 1.5861 		2.4433 		18
v 2.4133 		-2.9937 		18
v 2.4125 		-2.9942 		18
v 2.336 		-3.0455 		18
v 1.312 		2.5364 		18
v 2.533 		0.045 		27.581
v 2.7231 		-2.7231 		18
v 2.5061 		-2.9125 		18
v 0.9103 		2.6166 		18
v 0.859 		-1.122 		27.953
v 1.193 		2.56 		18
v 0.937 		-1.07 		27.953
v 2.8043 		-2.6303 		18
v 2.445 		0.305 		27.581
v 1.008 		-1.008 		27.953
v 4.356 		0.008 		18.611
v 3.226 		-0.141 		27.263
v 3.25 		-5.263 		18
v 3.848 		-4.863 		18
v 4.257 		0.507 		18.611
v 3.156 		0.212 		27.263
v 2.445 		-5.195 		20.395
v 3.041 		0.552 		27.263
v 4.093 		0.988 		18.611
v 3.041 		-4.901 		20.395
v 3.868 		1.445 		18.611
v 3.82 		-0.063 		26.863
v 3.734 		0.367 		26.863
v 0.314 		-1.193 		27.953
v 0.406 		-1.212 		27.953
v 0.5 		-1.218 		27.953
v 2.882 		-4.625 		19.75
v 0.594 		-1.212 		27.953
v 0.686 		-1.193 		27.953
v 0.775 		-1.163 		27.953
v 2.17 		-4.531 		19.152
v 3.593 		0.781 		18.137
v 0.5 		-4.389 		18.611
v 3.4 		1.174 		18.137
v 1.008 		-4.356 		18.611
v 3.156 		1.538 		18.137
v 4.356 		0.008 		26.389
v 1.507 		-4.257 		18.611
v 4.257 		0.507 		26.389
v 1.367 		-1.629 		27.813
v 1.988 		-4.093 		18.611
v 4.093 		0.988 		26.389
v 1.507 		-1.507 		27.813
v 5.581 		-2.605 		18
v 1.552 		-2.323 		27.581
v 3.868 		1.445 		26.389
v 1.781 		-2.17 		27.581
v 1.163 		4.538 		24.605
v 1.988 		-1.988 		27.581
v 0.5 		4.581 		24.605
v 2.17 		-1.781 		27.581
v 2.174 		-3.4 		18.137
v 2.323 		-1.552 		27.581
v 1.7026 		-3.4039 		18
v 1.7017 		-3.4042 		18
v 1.4304 		-3.4966 		18
v 1.367 		0.629 		27.813
v -0.163 		4.538 		24.605
v 2.17 		0.781 		27.581
v 2.0716 		-3.2226 		18
v 1.8132 		-3.3495 		18
v 2.174 		-3.1541 		18
v 1.988 		0.988 		27.581
v 1.781 		1.17 		27.581
v 0.5 		-3.848 		18.137
v 2.587 		4.538 		23.218
v 1.552 		1.323 		27.581
v 0.937 		-3.82 		18.137
v 0.314 		-1.911 		27.813
v 1.367 		-3.734 		18.137
v 0.5 		-1.924 		27.813
v 1.875 		4.632 		23.924
v 1.781 		-3.593 		18.137
v 1.193 		4.767 		23.924
v 0.686 		-1.911 		27.813
v 0.5 		4.813 		23.924
v 0.868 		-1.875 		27.813
v 0.5 		-3.6432 		18
v 0.4973 		-3.643 		18
v 0.288 		-3.6296 		18
v 0.9103 		-3.6166 		18
v 0.623 		-3.635 		18
v 1.045 		-1.815 		27.813
v 1.212 		0.733 		27.813
v 1.3139 		-3.536 		18
v 1.0312 		-3.5926 		18
v 1.911 		4.767 		23.218
v 1.045 		0.815 		27.813
v 0.868 		0.875 		27.813
v 1.212 		-1.733 		27.813
v 1.212 		4.906 		23.218
v 0.5 		4.953 		23.218
v 0.686 		0.911 		27.813
v 1.815 		-5.408 		20.395
v 0.5 		0.924 		27.813
v 0.5 		-5.263 		19.75
v 0.314 		0.911 		27.813
v 3.4039 		0.7026 		18
v 3.4042 		0.7017 		18
v 3.2226 		1.0716 		18
v 3.3495 		0.8132 		18
v 2.9937 		1.4133 		18
v 2.9942 		1.4125 		18
v 2.605 		4.581 		22.5
v 3.1541 		1.174 		18
v 2.587 		4.538 		21.782
v 2.9125 		1.5061 		18
v 1.122 		-5.222 		19.75
v 1.733 		-5.101 		19.75
v 2.323 		-4.901 		19.75
v 1.305 		1.445 		27.581
v 1.045 		1.533 		27.581
v 1.305 		-2.445 		27.581
v 0.775 		1.587 		27.581
v 0.063 		2.82 		26.863
v 0.5 		-4.863 		19.152
v -0.367 		2.734 		26.863
v 1.07 		-4.826 		19.152
v 1.629 		-4.715 		19.152
v 1.911 		-0.314 		27.813
v 0.141 		2.226 		27.263
v 1.875 		-0.132 		27.813
v -0.212 		2.156 		27.263
v -0.552 		2.041 		27.263
v 1.815 		0.045 		27.813
v -4.408 		1.533 		21.076
v -1.533 		-5.408 		23.924
v 1.733 		0.212 		27.813
v 1.629 		0.367 		27.813
v 1.924 		4.813 		22.5
v 1.507 		0.507 		27.813
v -3.715 		-3.734 		23.924
v -0.875 		1.882 		27.263
v -3.257 		-4.257 		23.924
v -1.174 		1.682 		27.263
v -2.734 		-4.715 		23.924
v -0.781 		2.593 		26.863
v -2.156 		-5.101 		23.924
v -1.174 		2.4 		26.863
v -1.538 		2.156 		26.863
v -3.356 		-4.356 		23.218
v -3.863 		2.848 		18
v -4.263 		2.25 		18
v -2.82 		-4.826 		23.218
v -3.901 		2.041 		20.395
v -2.226 		-5.222 		23.218
v 2.323 		0.552 		27.581
v -4.195 		1.445 		20.395
v -4.408 		0.815 		20.395
v 0.937 		0.07 		27.953
v 0.859 		0.122 		27.953
v -3.901 		1.323 		19.75
v -1.533 		-5.408 		21.076
v -4.101 		0.733 		19.75
v -4.222 		0.122 		19.75
v 0.775 		0.163 		27.953
v -3.389 		-4.389 		22.5
v 0.686 		0.193 		27.953
v 0.594 		0.212 		27.953
v 0.5 		0.218 		27.953
v -3.356 		-4.356 		21.782
v 0.406 		0.212 		27.953
v -3.826 		0.07 		19.152
v 0.314 		0.193 		27.953
v -3.715 		-3.734 		21.076
v -3.257 		-4.257 		21.076
v -4.408 		-1.815 		20.395
v -4.195 		-2.445 		20.395
v -4.263 		-0.5 		19.75
v -4.222 		-1.122 		19.75
v -2.848 		-4.863 		22.5
v -2.25 		-5.263 		22.5
v -4.101 		-1.733 		19.75
v -2.82 		-4.826 		21.782
v -3.901 		-2.323 		19.75
v -2.226 		-5.222 		21.782
v -2.734 		-4.715 		21.076
v -2.156 		-5.101 		21.076
v -1.682 		-4.279 		19.152
v -3.826 		-1.07 		19.152
v -1.17 		-4.531 		19.152
v -1.445 		-3.868 		18.611
v -0.988 		-4.093 		18.611
v -0.507 		-4.257 		18.611
v -0.008 		-4.356 		18.611
v -0.07 		3.826 		25.848
v -0.629 		3.715 		25.848
v -0.122 		4.222 		25.25
v -0.7026 		-3.4039 		18
v -0.7044 		-3.403 		18
v -0.736 		-3.3875 		18
v -0.733 		4.101 		25.25
v -0.3492 		-3.524 		18
v -0.5861 		-3.4433 		18
v -1.323 		3.901 		25.25
v -1.538 		-3.156 		18.137
v -1.174 		-3.4 		18.137
v -1.7231 		-2.7231 		18
v -1.4133 		-2.9937 		18
v -1.4141 		-2.993 		18
v -1.6303 		-2.8043 		18
v -1.0716 		-3.2226 		18
v -1.3109 		-3.0622 		18
v -0.961 		-3.277 		18
v -0.781 		-3.593 		18.137
v -0.367 		-3.734 		18.137
v 0.063 		-3.82 		18.137
v -0.3139 		-3.536 		18
v -0.3154 		-3.5355 		18
v 0.0897 		-3.6166 		18
v -0.193 		-3.56 		18
v 0.2127 		-3.6248 		18
v -1.445 		-5.195 		20.395
v -0.815 		-5.408 		20.395
v -1.323 		-4.901 		19.75
v -0.733 		-5.101 		19.75
v -0.122 		-5.222 		19.75
v -0.629 		-4.715 		19.152
v -0.07 		-4.826 		19.152
v -3.531 		-3.593 		20.395
v -3.093 		-4.093 		20.395
v -2.593 		-4.531 		20.395
v -3.625 		-2.882 		19.75
v -3.279 		-3.4 		19.75
v -2.868 		-3.868 		19.75
v -2.4 		-4.279 		19.75
v -3.279 		-2.682 		19.152
v -2.962 		-3.156 		19.152
v -2.585 		-3.585 		19.152
v -2.156 		-3.962 		19.152
v -2.585 		-2.868 		18.611
v -2.25 		-3.25 		18.611
v -1.868 		-3.585 		18.611
v -3.389 		-4.389 		18
v -0.815 		4.408 		24.605
v -1.445 		4.195 		24.605
v -0.008 		3.356 		26.389
v -0.507 		3.257 		26.389
v -0.988 		3.093 		26.389
v -1.445 		2.868 		26.389
v -1.17 		3.531 		25.848
v -1.682 		3.279 		25.848
v -1.868 		1.868 		26.863
v -2.041 		3.901 		24.605
v -1.868 		2.585 		26.389
v -2.25 		2.25 		26.389
v -2.585 		1.868 		26.389
v -2.156 		2.962 		25.848
v -2.585 		2.585 		25.848
v -2.962 		2.156 		25.848
v -3.279 		1.682 		25.848
v -1.882 		3.625 		25.25
v -2.4 		3.279 		25.25
v -2.868 		2.868 		25.25
v -3.279 		2.4 		25.25
v -3.625 		1.882 		25.25
v -2.593 		3.531 		24.605
v -3.093 		3.093 		24.605
v -3.531 		2.593 		24.605
v 0.132 		0.875 		27.813
v -0.045 		0.815 		27.813
v -0.212 		0.733 		27.813
v -0.367 		0.629 		27.813
v 0.225 		1.587 		27.581
v -0.045 		1.533 		27.581
v -0.305 		1.445 		27.581
v -0.552 		1.323 		27.581
v -0.781 		1.17 		27.581
v -0.988 		0.988 		27.581
v -1.17 		0.781 		27.581
v -1.445 		1.445 		27.263
v -1.682 		1.174 		27.263
v 0.225 		0.163 		27.953
v 0.141 		0.122 		27.953
v 0.063 		0.07 		27.953
v -0.507 		0.507 		27.813
v -0.629 		0.367 		27.813
v -0.733 		0.212 		27.813
v -0.008 		0.008 		27.953
v -0.07 		-0.063 		27.953
v -0.122 		-0.141 		27.953
v -0.163 		-0.225 		27.953
v -0.193 		-0.314 		27.953
v -0.212 		-0.406 		27.953
v -0.815 		0.045 		27.813
v -0.875 		-0.132 		27.813
v -1.445 		0.305 		27.581
# 1279 vertices

g group_0_16448250

usemtl color_16448250
s 0

f 4 	1 	3
f 2 	6 	1
f 3 	1 	7
f 7 	1 	6
f 5 	6 	2
f 8 	9 	2
f 5 	2 	9
f 10 	17 	11
f 15 	22 	21
f 20 	14 	21
f 15 	21 	14
f 16 	17 	10
f 27 	25 	24
f 27 	24 	26
f 28 	25 	27
f 122 	123 	924
f 109 	32 	31
f 30 	18 	31
f 109 	31 	18
f 924 	915 	31
f 35 	916 	34
f 34 	23 	35
f 18 	35 	23
f 30 	35 	18
f 37 	23 	38
f 190 	19 	29
f 34 	916 	38
f 23 	34 	38
f 44 	314 	45
f 43 	47 	13
f 40 	48 	42
f 13 	47 	16
f 42 	49 	1124
f 48 	49 	42
f 51 	17 	16
f 47 	51 	16
f 51 	200 	17
f 75 	44 	46
f 43 	63 	47
f 52 	54 	48
f 47 	64 	51
f 48 	54 	49
f 58 	59 	60
f 56 	61 	53
f 369 	57 	52
f 52 	62 	54
f 57 	62 	52
f 43 	880 	63
f 63 	64 	47
f 55 	151 	56
f 63 	880 	886
f 63 	887 	64
f 53 	61 	66
f 886 	887 	63
f 50 	66 	1279
f 66 	68 	1279
f 67 	1157 	57
f 58 	60 	72
f 58 	72 	70
f 72 	73 	71
f 72 	71 	70
f 73 	74 	69
f 73 	69 	71
f 46 	68 	75
f 74 	236 	69
f 78 	68 	66
f 57 	1157 	62
f 1157 	1158 	62
f 75 	375 	44
f 61 	78 	66
f 68 	79 	75
f 65 	89 	67
f 907 	39 	41
f 83 	8 	85
f 84 	83 	86
f 85 	86 	83
f 90 	88 	92
f 90 	92 	93
f 1215 	1216 	89
f 80 	105 	87
f 81 	93 	106
f 98 	99 	76
f 82 	110 	775
f 112 	113 	925
f 97 	176 	96
f 176 	177 	96
f 94 	176 	97
f 101 	95 	108
f 108 	107 	101
f 107 	111 	101
f 76 	99 	77
f 102 	80 	41
f 99 	104 	77
f 117 	118 	926
f 92 	106 	93
f 105 	80 	102
f 100 	101 	111
f 59 	100 	111
f 87 	105 	109
f 925 	926 	118
f 81 	110 	82
f 102 	118 	105
f 1084 	126 	98
f 106 	110 	81
f 116 	121 	59
f 109 	700 	87
f 111 	119 	59
f 121 	125 	59
f 216 	1036 	114
f 113 	114 	925
f 92 	88 	115
f 112 	102 	113
f 130 	135 	99
f 116 	59 	119
f 102 	114 	113
f 135 	104 	99
f 112 	925 	118
f 102 	112 	118
f 92 	115 	120
f 117 	105 	118
f 926 	924 	124
f 124 	117 	926
f 115 	219 	223
f 125 	127 	59
f 122 	109 	123
f 115 	223 	120
f 123 	109 	124
f 105 	124 	109
f 106 	92 	120
f 105 	117 	124
f 106 	120 	128
f 123 	124 	924
f 32 	109 	122
f 99 	98 	130
f 183 	193 	179
f 126 	130 	98
f 205 	365 	208
f 130 	146 	135
f 140 	146 	130
f 150 	147 	277
f 137 	144 	277
f 277 	253 	137
f 11 	17 	139
f 78 	79 	68
f 79 	390 	75
f 149 	277 	147
f 157 	162 	277
f 11 	139 	126
f 139 	140 	126
f 138 	39 	132
f 75 	390 	375
f 139 	202 	140
f 144 	142 	277
f 150 	277 	142
f 156 	160 	78
f 130 	126 	140
f 170 	176 	94
f 95 	96 	177
f 78 	160 	79
f 157 	277 	149
f 304 	307 	91
f 91 	307 	299
f 56 	153 	61
f 151 	153 	56
f 156 	78 	61
f 152 	165 	169
f 152 	169 	155
f 163 	164 	94
f 153 	156 	61
f 162 	159 	277
f 163 	94 	159
f 94 	277 	159
f 177 	103 	95
f 167 	173 	94
f 164 	167 	94
f 173 	174 	94
f 103 	108 	95
f 151 	168 	153
f 170 	94 	174
f 168 	172 	153
f 171 	154 	985
f 153 	172 	156
f 154 	175 	158
f 160 	156 	426
f 171 	175 	154
f 426 	156 	172
f 175 	286 	158
f 59 	127 	129
f 178 	183 	179
f 131 	178 	179
f 193 	185 	179
f 129 	131 	179
f 59 	129 	179
f 185 	194 	179
f 171 	301 	175
f 29 	189 	190
f 194 	196 	179
f 182 	179 	196
f 181 	182 	196
f 189 	284 	190
f 196 	198 	181
f 211 	212 	1036
f 199 	180 	198
f 211 	138 	212
f 132 	212 	138
f 41 	39 	138
f 102 	41 	138
f 139 	17 	200
f 201 	251 	203
f 204 	251 	201
f 216 	114 	138
f 203 	180 	199
f 200 	202 	139
f 264 	187 	186
f 202 	357 	140
f 365 	366 	208
f 140 	357 	146
f 214 	2 	209
f 270 	192 	188
f 208 	207 	132
f 208 	132 	984
f 207 	366 	212
f 210 	211 	1036
f 229 	195 	192
f 138 	211 	210
f 209 	2 	213
f 195 	232 	197
f 51 	225 	200
f 214 	215 	2
f 217 	2 	215
f 212 	132 	207
f 128 	110 	106
f 200 	463 	202
f 226 	2 	217
f 226 	227 	2
f 228 	8 	224
f 225 	51 	64
f 224 	2 	227
f 200 	225 	463
f 230 	8 	228
f 230 	240 	8
f 165 	231 	169
f 240 	241 	8
f 229 	232 	195
f 241 	237 	8
f 231 	165 	191
f 235 	545 	234
f 233 	234 	542
f 961 	169 	231
f 69 	236 	233
f 237 	243 	8
f 236 	238 	234
f 236 	234 	233
f 238 	239 	235
f 238 	235 	234
f 235 	239 	179
f 245 	86 	243
f 184 	242 	191
f 246 	86 	245
f 184 	491 	242
f 191 	242 	248
f 220 	331 	221
f 191 	248 	231
f 204 	2 	250
f 181 	198 	180
f 180 	203 	251
f 250 	251 	204
f 221 	335 	222
f 204 	213 	2
f 221 	331 	335
f 244 	249 	252
f 262 	248 	242
f 242 	259 	262
f 445 	252 	249
f 283 	281 	256
f 281 	287 	256
f 443 	445 	249
f 260 	261 	256
f 392 	128 	120
f 186 	263 	264
f 120 	223 	392
f 187 	267 	188
f 264 	267 	187
f 269 	298 	26
f 188 	267 	270
f 26 	300 	27
f 216 	138 	210
f 102 	138 	114
f 276 	260 	28
f 27 	300 	28
f 311 	276 	28
f 86 	85 	243
f 256 	28 	260
f 272 	393 	394
f 257 	258 	287
f 290 	292 	257
f 394 	273 	272
f 258 	256 	287
f 287 	290 	257
f 278 	256 	261
f 282 	283 	256
f 104 	275 	77
f 317 	274 	266
f 190 	265 	19
f 266 	279 	268
f 104 	340 	275
f 266 	274 	279
f 292 	293 	255
f 275 	340 	285
f 268 	280 	271
f 189 	29 	12
f 189 	12 	158
f 255 	257 	292
f 282 	256 	278
f 268 	279 	280
f 271 	280 	244
f 297 	280 	279
f 189 	286 	284
f 284 	288 	190
f 244 	280 	249
f 136 	133 	254
f 280 	297 	249
f 293 	136 	255
f 254 	255 	136
f 190 	288 	265
f 133 	137 	254
f 253 	254 	137
f 295 	269 	247
f 298 	269 	295
f 286 	189 	158
f 274 	656 	296
f 286 	320 	284
f 286 	321 	320
f 274 	296 	279
f 8 	243 	85
f 247 	269 	246
f 86 	246 	269
f 279 	296 	297
f 2 	224 	8
f 229 	192 	270
f 306 	28 	300
f 303 	28 	306
f 175 	321 	286
f 171 	166 	299
f 296 	479 	297
f 166 	91 	299
f 312 	316 	264
f 171 	299 	301
f 300 	26 	298
f 267 	264 	316
f 321 	175 	301
f 308 	28 	303
f 232 	229 	355
f 311 	28 	308
f 299 	310 	301
f 307 	310 	299
f 263 	45 	314
f 263 	312 	264
f 310 	324 	301
f 312 	263 	314
f 304 	315 	307
f 315 	318 	307
f 313 	330 	332
f 267 	319 	270
f 103 	611 	108
f 307 	318 	310
f 316 	319 	267
f 302 	317 	266
f 319 	351 	270
f 608 	116 	609
f 116 	119 	609
f 315 	349 	318
f 609 	119 	111
f 270 	351 	229
f 116 	608 	121
f 608 	125 	121
f 309 	330 	313
f 314 	375 	377
f 317 	313 	332
f 284 	322 	288
f 320 	322 	284
f 314 	377 	312
f 369 	288 	322
f 317 	332 	274
f 301 	324 	321
f 293 	630 	136
f 316 	400 	319
f 321 	324 	325
f 324 	333 	334
f 324 	334 	325
f 326 	305 	323
f 314 	44 	375
f 197 	327 	218
f 137 	627 	144
f 144 	627 	142
f 321 	325 	320
f 325 	328 	320
f 150 	603 	147
f 142 	603 	150
f 603 	149 	147
f 326 	309 	305
f 327 	197 	232
f 320 	328 	322
f 327 	329 	218
f 330 	309 	326
f 599 	159 	600
f 218 	329 	220
f 159 	162 	600
f 329 	331 	220
f 222 	335 	336
f 325 	338 	328
f 334 	338 	325
f 323 	337 	339
f 232 	356 	327
f 326 	323 	339
f 333 	324 	310
f 285 	342 	289
f 329 	341 	331
f 310 	318 	333
f 331 	343 	335
f 340 	342 	285
f 342 	344 	289
f 330 	666 	332
f 331 	341 	343
f 1159 	338 	334
f 289 	344 	291
f 1159 	1160 	338
f 345 	2 	1
f 1 	4 	346
f 1 	346 	345
f 941 	937 	373
f 294 	953 	954
f 4 	3 	347
f 4 	347 	346
f 3 	7 	359
f 3 	359 	347
f 159 	599 	163
f 599 	164 	163
f 383 	342 	340
f 801 	343 	341
f 342 	449 	344
f 333 	352 	334
f 353 	248 	262
f 333 	354 	352
f 352 	1159 	334
f 318 	349 	354
f 351 	355 	229
f 333 	318 	354
f 232 	355 	356
f 354 	1161 	1162
f 354 	1162 	352
f 327 	358 	329
f 327 	356 	358
f 358 	341 	329
f 359 	7 	6
f 359 	6 	360
f 6 	5 	361
f 6 	361 	360
f 362 	40 	265
f 167 	597 	173
f 362 	265 	288
f 362 	48 	40
f 351 	363 	355
f 255 	254 	365
f 255 	365 	364
f 48 	362 	52
f 253 	366 	365
f 253 	365 	254
f 355 	367 	356
f 277 	1036 	366
f 277 	366 	253
f 288 	369 	362
f 363 	367 	355
f 356 	367 	815
f 369 	52 	362
f 259 	370 	262
f 371 	369 	322
f 356 	815 	358
f 322 	328 	371
f 371 	57 	369
f 185 	193 	617
f 617 	193 	183
f 464 	570 	357
f 371 	67 	57
f 65 	67 	371
f 940 	941 	83
f 84 	946 	83
f 373 	361 	9
f 5 	9 	361
f 372 	340 	104
f 83 	373 	8
f 9 	8 	373
f 378 	28 	376
f 374 	376 	28
f 379 	382 	378
f 256 	374 	28
f 372 	104 	135
f 380 	382 	379
f 381 	382 	380
f 28 	378 	382
f 372 	383 	340
f 375 	389 	377
f 372 	388 	383
f 312 	385 	316
f 135 	146 	387
f 377 	385 	312
f 385 	400 	316
f 387 	372 	135
f 387 	388 	372
f 388 	451 	383
f 403 	386 	384
f 390 	389 	375
f 389 	391 	377
f 224 	227 	623
f 377 	391 	385
f 623 	227 	226
f 217 	623 	226
f 620 	230 	621
f 223 	506 	392
f 392 	506 	399
f 273 	394 	395
f 240 	620 	241
f 230 	620 	240
f 237 	241 	620
f 390 	412 	389
f 417 	398 	393
f 295 	247 	642
f 642 	246 	245
f 384 	392 	399
f 393 	398 	401
f 319 	402 	351
f 400 	402 	319
f 403 	384 	399
f 402 	363 	351
f 393 	401 	394
f 391 	404 	385
f 399 	409 	403
f 399 	408 	409
f 394 	405 	395
f 385 	404 	400
f 281 	283 	634
f 400 	407 	402
f 394 	401 	405
f 634 	283 	282
f 278 	634 	282
f 88 	395 	405
f 404 	407 	400
f 403 	406 	386
f 407 	272 	402
f 407 	393 	272
f 430 	88 	405
f 402 	272 	363
f 395 	88 	90
f 363 	273 	367
f 290 	631 	292
f 631 	293 	292
f 272 	273 	363
f 397 	416 	398
f 403 	409 	410
f 246 	642 	247
f 403 	410 	406
f 406 	396 	472
f 407 	417 	393
f 410 	396 	406
f 390 	411 	412
f 306 	639 	303
f 300 	639 	306
f 389 	413 	391
f 115 	88 	430
f 412 	413 	389
f 413 	415 	391
f 391 	415 	404
f 414 	416 	397
f 415 	417 	404
f 401 	398 	418
f 415 	413 	421
f 404 	417 	407
f 416 	418 	398
f 401 	418 	419
f 390 	79 	411
f 79 	160 	411
f 418 	423 	424
f 418 	424 	419
f 401 	419 	405
f 529 	420 	412
f 412 	420 	413
f 420 	421 	413
f 107 	108 	611
f 415 	397 	417
f 421 	397 	415
f 397 	398 	417
f 529 	543 	420
f 414 	422 	416
f 420 	546 	421
f 416 	423 	418
f 546 	414 	421
f 422 	423 	416
f 421 	414 	397
f 432 	419 	424
f 410 	427 	396
f 427 	428 	760
f 419 	430 	405
f 431 	168 	429
f 437 	439 	429
f 429 	439 	431
f 419 	432 	430
f 168 	431 	172
f 431 	433 	172
f 219 	430 	432
f 435 	409 	408
f 172 	433 	426
f 219 	115 	430
f 408 	434 	435
f 436 	410 	409
f 425 	437 	1248
f 409 	435 	436
f 174 	173 	597
f 410 	436 	427
f 1248 	437 	429
f 440 	414 	546
f 434 	438 	441
f 177 	176 	595
f 440 	422 	414
f 433 	431 	12
f 489 	441 	438
f 440 	1124 	422
f 42 	1124 	440
f 434 	441 	435
f 435 	441 	442
f 444 	387 	146
f 435 	442 	436
f 146 	357 	444
f 444 	446 	387
f 436 	428 	427
f 387 	446 	388
f 196 	194 	616
f 185 	616 	194
f 443 	448 	445
f 443 	447 	448
f 570 	444 	357
f 199 	198 	614
f 614 	613 	199
f 199 	613 	203
f 383 	449 	342
f 456 	448 	447
f 203 	613 	201
f 451 	449 	383
f 388 	453 	451
f 446 	453 	388
f 453 	455 	451
f 209 	625 	214
f 456 	447 	454
f 458 	448 	456
f 446 	577 	453
f 454 	462 	456
f 225 	466 	463
f 454 	460 	462
f 202 	464 	357
f 456 	462 	734
f 202 	463 	464
f 456 	734 	458
f 64 	465 	225
f 862 	467 	460
f 459 	487 	531
f 259 	368 	370
f 461 	459 	531
f 460 	467 	468
f 368 	470 	370
f 370 	470 	659
f 468 	462 	460
f 107 	611 	610
f 111 	107 	610
f 473 	350 	348
f 471 	473 	348
f 473 	457 	350
f 467 	527 	468
f 125 	608 	607
f 476 	152 	714
f 296 	677 	479
f 129 	606 	605
f 165 	152 	476
f 129 	127 	606
f 249 	297 	443
f 478 	480 	469
f 297 	479 	443
f 481 	472 	396
f 469 	480 	471
f 479 	686 	447
f 473 	471 	459
f 472 	481 	474
f 479 	447 	443
f 142 	627 	603
f 474 	482 	475
f 480 	459 	471
f 473 	459 	461
f 474 	481 	482
f 473 	461 	457
f 475 	482 	483
f 477 	485 	478
f 475 	483 	476
f 477 	244 	485
f 480 	478 	486
f 476 	483 	165
f 485 	486 	478
f 481 	396 	757
f 600 	162 	157
f 759 	482 	481
f 184 	483 	482
f 436 	442 	428
f 483 	184 	191
f 483 	191 	165
f 170 	174 	597
f 521 	488 	438
f 406 	472 	795
f 262 	645 	353
f 438 	488 	489
f 176 	596 	595
f 131 	129 	605
f 759 	184 	482
f 441 	490 	442
f 848 	875 	494
f 494 	1099 	493
f 493 	1097 	492
f 759 	491 	184
f 97 	492 	94
f 441 	489 	490
f 96 	493 	492
f 96 	492 	97
f 618 	183 	178
f 490 	766 	442
f 225 	465 	466
f 466 	496 	463
f 766 	428 	442
f 198 	196 	615
f 463 	496 	464
f 488 	501 	489
f 489 	501 	1086
f 201 	613 	612
f 374 	498 	376
f 256 	1005 	498
f 256 	498 	374
f 523 	585 	499
f 499 	488 	523
f 497 	500 	465
f 501 	488 	499
f 204 	626 	213
f 500 	466 	465
f 500 	508 	466
f 499 	1100 	501
f 502 	379 	378
f 502 	378 	503
f 376 	504 	503
f 376 	503 	378
f 496 	466 	508
f 376 	498 	504
f 228 	224 	622
f 508 	510 	496
f 621 	230 	228
f 505 	511 	506
f 500 	514 	508
f 511 	505 	509
f 506 	511 	408
f 509 	518 	511
f 434 	408 	511
f 506 	408 	399
f 497 	513 	500
f 512 	513 	497
f 513 	514 	500
f 511 	518 	434
f 514 	515 	508
f 508 	515 	510
f 507 	517 	509
f 516 	517 	507
f 518 	509 	517
f 526 	513 	512
f 514 	513 	548
f 516 	519 	520
f 519 	522 	520
f 516 	520 	517
f 517 	521 	518
f 517 	520 	521
f 311 	636 	276
f 518 	438 	434
f 518 	521 	438
f 261 	635 	278
f 520 	522 	523
f 542 	234 	541
f 522 	585 	523
f 520 	523 	521
f 532 	533 	233
f 95 	494 	493
f 95 	493 	96
f 95 	848 	494
f 439 	12 	431
f 12 	29 	433
f 524 	526 	512
f 484 	525 	467
f 538 	532 	233
f 527 	467 	525
f 486 	487 	480
f 513 	526 	548
f 534 	540 	486
f 515 	514 	550
f 529 	412 	411
f 486 	540 	487
f 411 	530 	529
f 459 	480 	487
f 160 	426 	530
f 69 	233 	533
f 530 	411 	160
f 532 	524 	533
f 524 	542 	526
f 539 	529 	530
f 545 	548 	526
f 244 	252 	485
f 541 	545 	526
f 534 	486 	485
f 544 	545 	235
f 534 	485 	252
f 530 	536 	539
f 542 	538 	233
f 532 	538 	524
f 541 	234 	545
f 541 	526 	542
f 531 	487 	450
f 538 	542 	524
f 547 	544 	235
f 539 	543 	529
f 487 	540 	450
f 450 	452 	531
f 544 	548 	545
f 543 	546 	420
f 252 	704 	534
f 544 	547 	548
f 536 	530 	426
f 426 	433 	536
f 705 	540 	534
f 705 	707 	540
f 536 	19 	539
f 707 	450 	540
f 536 	29 	19
f 19 	551 	539
f 791 	558 	235
f 539 	551 	543
f 543 	553 	546
f 551 	553 	543
f 514 	548 	550
f 553 	440 	546
f 515 	550 	555
f 433 	29 	536
f 550 	562 	555
f 557 	562 	550
f 515 	555 	689
f 549 	675 	935
f 936 	552 	549
f 547 	235 	558
f 557 	558 	791
f 547 	558 	548
f 557 	550 	558
f 548 	558 	550
f 562 	792 	561
f 527 	754 	748
f 560 	555 	561
f 561 	555 	562
f 557 	791 	562
f 560 	566 	555
f 565 	794 	566
f 565 	569 	794
f 568 	525 	484
f 559 	741 	563
f 245 	243 	643
f 464 	496 	584
f 567 	572 	573
f 584 	570 	464
f 584 	587 	570
f 488 	521 	523
f 567 	573 	568
f 570 	575 	444
f 568 	573 	528
f 575 	446 	444
f 568 	528 	525
f 575 	577 	446
f 570 	587 	575
f 453 	579 	455
f 589 	572 	571
f 591 	578 	576
f 577 	579 	453
f 581 	1203 	583
f 502 	1072 	581
f 381 	583 	582
f 381 	582 	382
f 380 	581 	583
f 380 	583 	381
f 379 	502 	581
f 379 	581 	380
f 522 	1206 	585
f 571 	586 	589
f 588 	576 	574
f 583 	1186 	582
f 576 	588 	591
f 587 	590 	575
f 25 	28 	582
f 382 	582 	28
f 572 	589 	592
f 614 	615 	596
f 597 	614 	596
f 598 	614 	597
f 599 	614 	598
f 600 	614 	599
f 601 	614 	600
f 603 	614 	601
f 572 	592 	573
f 578 	602 	580
f 578 	591 	602
f 594 	605 	606
f 594 	606 	607
f 594 	607 	608
f 594 	608 	609
f 594 	609 	610
f 594 	610 	611
f 604 	337 	556
f 615 	616 	596
f 595 	596 	616
f 594 	595 	616
f 617 	594 	616
f 618 	594 	617
f 605 	594 	618
f 613 	614 	636
f 604 	161 	337
f 1003 	586 	697
f 556 	337 	323
f 152 	593 	714
f 620 	621 	619
f 619 	621 	622
f 619 	622 	623
f 619 	623 	624
f 619 	624 	625
f 619 	625 	626
f 619 	626 	612
f 593 	152 	155
f 628 	614 	627
f 627 	614 	603
f 1011 	589 	1007
f 593 	155 	604
f 592 	589 	1011
f 588 	563 	591
f 636 	614 	629
f 630 	614 	628
f 631 	614 	630
f 632 	614 	631
f 633 	614 	632
f 634 	614 	633
f 635 	614 	634
f 629 	614 	635
f 161 	604 	155
f 588 	559 	563
f 591 	563 	564
f 638 	612 	637
f 639 	612 	638
f 640 	612 	639
f 641 	612 	640
f 642 	612 	641
f 636 	637 	612
f 612 	613 	636
f 591 	564 	602
f 619 	612 	643
f 642 	643 	612
f 648 	277 	647
f 646 	647 	277
f 94 	646 	277
f 564 	1014 	602
f 645 	262 	370
f 650 	653 	648
f 651 	653 	650
f 652 	653 	651
f 645 	655 	353
f 277 	648 	653
f 370 	659 	645
f 656 	274 	332
f 660 	655 	645
f 660 	645 	659
f 655 	660 	662
f 644 	667 	649
f 1045 	661 	663
f 665 	330 	326
f 1045 	663 	574
f 339 	665 	326
f 588 	574 	663
f 666 	330 	665
f 664 	586 	571
f 654 	649 	657
f 656 	332 	666
f 339 	728 	665
f 575 	590 	577
f 577 	669 	579
f 590 	669 	577
f 669 	672 	579
f 666 	676 	656
f 673 	670 	668
f 447 	686 	454
f 157 	149 	601
f 584 	496 	510
f 601 	600 	157
f 350 	673 	668
f 673 	675 	670
f 164 	599 	598
f 674 	862 	460
f 167 	598 	597
f 584 	681 	587
f 167 	164 	598
f 670 	675 	671
f 674 	460 	454
f 596 	170 	597
f 549 	671 	675
f 862 	484 	467
f 673 	934 	675
f 677 	296 	656
f 934 	935 	675
f 677 	656 	676
f 603 	601 	149
f 510 	681 	584
f 836 	680 	676
f 596 	176 	170
f 510 	689 	681
f 679 	552 	682
f 676 	680 	683
f 681 	685 	587
f 681 	691 	685
f 676 	683 	677
f 686 	479 	677
f 587 	685 	590
f 590 	687 	669
f 685 	687 	590
f 686 	677 	683
f 669 	688 	672
f 687 	688 	669
f 667 	644 	699
f 659 	695 	660
f 510 	515 	689
f 649 	690 	657
f 696 	662 	660
f 649 	667 	690
f 735 	657 	690
f 662 	696 	697
f 127 	125 	607
f 697 	664 	662
f 606 	127 	607
f 667 	692 	690
f 667 	703 	692
f 690 	692 	694
f 693 	659 	470
f 178 	131 	605
f 618 	178 	605
f 695 	659 	693
f 690 	694 	735
f 696 	660 	695
f 185 	617 	616
f 196 	616 	615
f 692 	556 	694
f 586 	664 	697
f 556 	323 	694
f 695 	693 	80
f 198 	615 	614
f 41 	80 	693
f 695 	80 	87
f 695 	87 	696
f 696 	700 	697
f 700 	696 	87
f 204 	201 	612
f 698 	702 	699
f 698 	701 	702
f 699 	702 	703
f 667 	699 	703
f 215 	214 	625
f 109 	18 	700
f 625 	624 	215
f 216 	210 	1036
f 925 	114 	1036
f 706 	702 	701
f 215 	624 	217
f 623 	622 	224
f 252 	445 	704
f 704 	705 	534
f 702 	708 	703
f 237 	620 	619
f 713 	705 	704
f 702 	706 	708
f 703 	708 	709
f 619 	243 	237
f 619 	643 	243
f 707 	710 	450
f 595 	594 	177
f 703 	709 	692
f 103 	177 	594
f 450 	710 	452
f 692 	709 	556
f 103 	594 	611
f 445 	448 	711
f 610 	609 	111
f 445 	711 	704
f 714 	708 	706
f 706 	712 	714
f 704 	711 	713
f 708 	714 	593
f 713 	715 	705
f 707 	705 	715
f 709 	708 	593
f 709 	604 	556
f 709 	593 	604
f 618 	617 	183
f 714 	712 	476
f 475 	476 	712
f 448 	458 	711
f 711 	719 	713
f 716 	706 	701
f 716 	718 	712
f 1064 	452 	710
f 718 	475 	712
f 718 	474 	475
f 716 	712 	706
f 795 	472 	717
f 717 	474 	718
f 458 	719 	711
f 717 	472 	474
f 204 	612 	626
f 209 	626 	625
f 713 	720 	715
f 209 	213 	626
f 719 	720 	713
f 217 	624 	623
f 228 	622 	621
f 719 	458 	723
f 458 	734 	723
f 723 	724 	719
f 720 	719 	724
f 674 	686 	683
f 674 	454 	686
f 261 	260 	629
f 725 	339 	337
f 635 	261 	629
f 161 	725 	337
f 725 	728 	339
f 633 	281 	634
f 723 	727 	724
f 654 	657 	658
f 726 	727 	723
f 727 	731 	724
f 661 	658 	729
f 657 	729 	658
f 661 	729 	732
f 661 	732 	663
f 746 	727 	726
f 559 	588 	663
f 721 	733 	722
f 559 	663 	732
f 721 	755 	733
f 727 	747 	731
f 733 	644 	722
f 657 	735 	729
f 733 	699 	644
f 722 	644 	730
f 730 	649 	654
f 730 	644 	649
f 729 	736 	732
f 729 	735 	736
f 738 	734 	462
f 732 	739 	559
f 462 	468 	738
f 738 	726 	734
f 739 	732 	736
f 559 	739 	741
f 726 	723 	734
f 739 	313 	741
f 740 	745 	742
f 740 	744 	745
f 748 	738 	468
f 563 	302 	564
f 738 	750 	726
f 563 	741 	302
f 748 	750 	738
f 737 	743 	744
f 694 	305 	735
f 694 	323 	305
f 737 	744 	740
f 736 	735 	305
f 736 	305 	309
f 309 	739 	736
f 721 	742 	745
f 746 	747 	727
f 309 	313 	739
f 746 	881 	747
f 741 	313 	317
f 741 	317 	302
f 881 	883 	747
f 753 	745 	744
f 468 	527 	748
f 745 	755 	721
f 751 	744 	743
f 726 	750 	746
f 491 	495 	259
f 752 	527 	525
f 751 	743 	749
f 753 	744 	751
f 528 	752 	525
f 495 	368 	259
f 752 	754 	527
f 259 	242 	491
f 838 	495 	770
f 753 	755 	745
f 368 	495 	838
f 748 	756 	750
f 753 	769 	755
f 754 	756 	748
f 756 	758 	750
f 757 	396 	427
f 481 	757 	759
f 750 	758 	746
f 528 	774 	752
f 760 	757 	427
f 754 	764 	756
f 698 	699 	733
f 757 	761 	759
f 757 	760 	761
f 756 	767 	758
f 759 	761 	491
f 756 	764 	767
f 749 	762 	763
f 761 	495 	491
f 763 	751 	749
f 765 	753 	751
f 763 	765 	751
f 765 	769 	753
f 428 	768 	760
f 767 	923 	758
f 428 	766 	768
f 760 	768 	770
f 769 	698 	755
f 769 	765 	773
f 769 	701 	698
f 769 	773 	701
f 770 	761 	760
f 771 	767 	764
f 755 	698 	733
f 495 	761 	770
f 82 	775 	762
f 771 	927 	767
f 762 	777 	763
f 775 	777 	762
f 763 	779 	765
f 772 	528 	573
f 1012 	768 	766
f 773 	765 	779
f 772 	573 	592
f 528 	772 	774
f 716 	701 	773
f 752 	774 	776
f 774 	772 	839
f 490 	489 	1086
f 774 	841 	776
f 774 	839 	841
f 1086 	1009 	490
f 754 	752 	776
f 776 	764 	754
f 779 	763 	777
f 777 	789 	779
f 785 	775 	110
f 689 	691 	681
f 691 	782 	685
f 781 	802 	780
f 777 	787 	789
f 685 	782 	687
f 790 	773 	779
f 687 	808 	688
f 773 	790 	716
f 807 	784 	786
f 785 	110 	128
f 775 	785 	787
f 785 	386 	787
f 775 	787 	777
f 779 	789 	790
f 384 	128 	392
f 560 	792 	566
f 565 	566 	793
f 562 	791 	792
f 560 	561 	792
f 793 	566 	792
f 128 	384 	785
f 182 	791 	179
f 235 	179 	791
f 182 	181 	792
f 182 	792 	791
f 181 	180 	793
f 181 	793 	792
f 785 	384 	386
f 689 	794 	691
f 780 	1043 	1045
f 787 	386 	795
f 780 	1045 	781
f 787 	795 	789
f 783 	781 	574
f 555 	794 	689
f 789 	717 	790
f 798 	799 	793
f 565 	793 	569
f 795 	717 	789
f 1045 	574 	781
f 790 	718 	716
f 794 	819 	691
f 790 	717 	718
f 783 	574 	576
f 794 	798 	819
f 783 	576 	784
f 386 	406 	795
f 784 	578 	786
f 335 	343 	796
f 784 	576 	578
f 786 	578 	580
f 796 	336 	335
f 555 	566 	794
f 336 	797 	1061
f 580 	788 	786
f 569 	793 	799
f 796 	797 	336
f 794 	799 	798
f 826 	819 	798
f 1061 	797 	737
f 794 	569 	799
f 672 	688 	800
f 341 	816 	801
f 343 	801 	805
f 687 	782 	808
f 796 	343 	805
f 688 	811 	800
f 796 	805 	812
f 688 	808 	811
f 796 	812 	797
f 800 	813 	804
f 797 	743 	737
f 811 	813 	800
f 797 	812 	743
f 813 	814 	804
f 803 	783 	806
f 805 	801 	823
f 781 	783 	803
f 805 	824 	812
f 806 	784 	807
f 805 	823 	824
f 783 	784 	806
f 812 	824 	749
f 749 	743 	812
f 807 	786 	809
f 820 	821 	808
f 367 	817 	815
f 809 	788 	810
f 808 	821 	811
f 341 	358 	816
f 809 	786 	788
f 358 	815 	816
f 273 	817 	367
f 815 	818 	816
f 287 	281 	633
f 815 	817 	818
f 826 	798 	1134
f 632 	290 	287
f 819 	782 	691
f 822 	801 	816
f 820 	808 	782
f 822 	823 	801
f 630 	293 	631
f 829 	825 	1134
f 817 	395 	90
f 819 	820 	782
f 133 	136 	630
f 1135 	345 	832
f 818 	817 	90
f 628 	137 	133
f 832 	828 	1135
f 818 	822 	816
f 820 	832 	821
f 828 	832 	820
f 245 	643 	642
f 835 	821 	833
f 641 	298 	295
f 793 	1134 	798
f 825 	819 	826
f 82 	824 	823
f 824 	762 	749
f 825 	826 	1134
f 1134 	1135 	829
f 825 	829 	819
f 824 	82 	762
f 828 	820 	829
f 819 	829 	820
f 273 	395 	817
f 828 	829 	1135
f 830 	821 	831
f 637 	636 	311
f 831 	821 	832
f 818 	93 	822
f 260 	276 	636
f 818 	90 	93
f 830 	831 	345
f 823 	822 	81
f 830 	834 	821
f 278 	635 	634
f 822 	93 	81
f 823 	81 	82
f 821 	835 	811
f 834 	830 	345
f 831 	832 	345
f 834 	833 	821
f 632 	287 	633
f 813 	811 	835
f 836 	666 	665
f 290 	632 	631
f 837 	814 	813
f 770 	778 	838
f 665 	728 	836
f 666 	836 	676
f 1021 	827 	1020
f 161 	842 	725
f 778 	840 	844
f 725 	843 	728
f 776 	841 	845
f 725 	842 	843
f 728 	843 	846
f 840 	950 	844
f 778 	844 	838
f 776 	845 	764
f 806 	827 	803
f 847 	368 	838
f 845 	771 	764
f 843 	879 	846
f 838 	844 	847
f 836 	728 	846
f 847 	470 	368
f 827 	806 	807
f 680 	836 	846
f 807 	809 	827
f 839 	851 	841
f 810 	827 	809
f 810 	141 	827
f 842 	871 	876
f 840 	947 	950
f 141 	143 	827
f 842 	876 	843
f 143 	145 	827
f 843 	876 	879
f 987 	988 	70
f 858 	347 	857
f 145 	148 	827
f 813 	835 	837
f 95 	101 	848
f 846 	850 	680
f 101 	100 	849
f 101 	849 	848
f 148 	535 	827
f 58 	849 	59
f 100 	59 	849
f 535 	537 	827
f 837 	889 	814
f 879 	850 	846
f 537 	1142 	827
f 852 	683 	680
f 1142 	1143 	827
f 680 	850 	852
f 839 	1028 	851
f 852 	674 	683
f 1143 	1148 	827
f 841 	851 	853
f 1148 	1150 	827
f 855 	833 	346
f 345 	346 	833
f 854 	835 	855
f 1150 	1151 	827
f 630 	628 	133
f 835 	833 	855
f 1151 	1152 	827
f 628 	627 	137
f 854 	346 	858
f 857 	347 	861
f 854 	858 	835
f 879 	856 	850
f 1152 	1154 	827
f 850 	856 	859
f 835 	858 	837
f 857 	837 	858
f 1154 	1156 	827
f 852 	850 	859
f 1156 	1265 	827
f 860 	889 	861
f 852 	862 	674
f 857 	861 	837
f 859 	862 	852
f 1265 	1266 	827
f 642 	641 	295
f 641 	640 	298
f 1266 	1267 	827
f 300 	640 	639
f 300 	298 	640
f 1267 	1271 	827
f 303 	639 	638
f 1271 	1272 	827
f 856 	866 	859
f 308 	303 	638
f 1272 	1273 	827
f 308 	638 	637
f 856 	864 	866
f 311 	308 	637
f 1273 	1274 	827
f 859 	866 	484
f 636 	629 	260
f 1274 	1275 	827
f 1275 	1276 	827
f 859 	484 	862
f 868 	134 	867
f 827 	186 	187
f 851 	875 	853
f 872 	875 	851
f 827 	187 	188
f 841 	853 	845
f 188 	192 	827
f 910 	567 	864
f 827 	192 	195
f 567 	866 	864
f 866 	568 	484
f 868 	869 	1172
f 866 	567 	568
f 869 	870 	863
f 872 	494 	875
f 1028 	1099 	851
f 875 	848 	874
f 874 	848 	873
f 873 	848 	878
f 863 	870 	865
f 873 	853 	874
f 870 	877 	865
f 874 	853 	875
f 873 	878 	853
f 884 	876 	871
f 731 	747 	880
f 747 	883 	880
f 880 	43 	731
f 746 	758 	881
f 961 	882 	871
f 827 	1276 	186
f 871 	882 	884
f 868 	890 	869
f 885 	879 	876
f 869 	908 	870
f 883 	886 	880
f 908 	869 	890
f 885 	876 	884
f 879 	885 	856
f 220 	827 	218
f 887 	465 	64
f 347 	359 	861
f 886 	917 	887
f 867 	888 	868
f 860 	359 	897
f 893 	885 	884
f 758 	923 	881
f 888 	867 	889
f 881 	911 	883
f 885 	864 	856
f 923 	911 	881
f 888 	890 	868
f 883 	913 	886
f 911 	913 	883
f 913 	917 	886
f 882 	891 	892
f 882 	892 	884
f 893 	884 	892
f 671 	549 	679
f 893 	864 	885
f 897 	359 	896
f 891 	353 	655
f 837 	861 	889
f 679 	549 	552
f 889 	867 	814
f 552 	554 	682
f 682 	554 	684
f 359 	360 	895
f 896 	359 	895
f 889 	896 	895
f 861 	359 	860
f 554 	1107 	684
f 897 	896 	889
f 894 	888 	895
f 889 	895 	888
f 916 	646 	899
f 894 	895 	360
f 901 	894 	360
f 360 	361 	901
f 900 	890 	901
f 888 	901 	890
f 894 	901 	888
f 844 	906 	847
f 902 	921 	903
f 904 	890 	905
f 919 	921 	902
f 900 	905 	890
f 847 	907 	470
f 860 	897 	889
f 847 	906 	907
f 938 	904 	373
f 937 	938 	373
f 693 	470 	907
f 94 	492 	899
f 94 	899 	646
f 910 	864 	893
f 898 	919 	902
f 887 	497 	465
f 893 	920 	910
f 917 	497 	887
f 827 	195 	197
f 910 	572 	567
f 827 	197 	218
f 571 	910 	920
f 827 	220 	221
f 531 	912 	461
f 572 	910 	571
f 221 	222 	827
f 899 	37 	916
f 648 	647 	916
f 648 	916 	915
f 647 	646 	916
f 1016 	1017 	827
f 912 	922 	914
f 930 	933 	913
f 918 	892 	891
f 891 	655 	918
f 914 	919 	898
f 892 	918 	920
f 929 	930 	911
f 911 	930 	913
f 920 	893 	892
f 917 	913 	933
f 662 	918 	655
f 920 	918 	664
f 933 	512 	917
f 452 	912 	531
f 662 	664 	918
f 512 	497 	917
f 922 	912 	452
f 571 	920 	664
f 827 	222 	1016
f 916 	35 	915
f 492 	1093 	899
f 30 	31 	915
f 919 	914 	1040
f 652 	651 	926
f 652 	926 	925
f 767 	927 	923
f 651 	650 	924
f 651 	924 	926
f 915 	924 	648
f 650 	648 	924
f 1018 	827 	1017
f 922 	1040 	914
f 928 	161 	155
f 1040 	1042 	919
f 923 	929 	911
f 1042 	921 	919
f 169 	928 	155
f 927 	929 	923
f 373 	83 	941
f 932 	877 	870
f 452 	1064 	922
f 922 	1066 	1040
f 908 	932 	870
f 906 	39 	907
f 22 	944 	84
f 457 	673 	350
f 906 	931 	39
f 907 	41 	693
f 934 	673 	457
f 976 	949 	927
f 22 	84 	21
f 927 	949 	929
f 935 	936 	549
f 900 	901 	361
f 361 	373 	904
f 951 	956 	930
f 935 	902 	936
f 937 	908 	938
f 930 	956 	933
f 904 	938 	908
f 904 	908 	890
f 909 	984 	931
f 933 	524 	512
f 939 	554 	552
f 936 	939 	552
f 937 	941 	908
f 71 	998 	70
f 940 	932 	941
f 908 	941 	932
f 457 	461 	943
f 945 	84 	944
f 946 	84 	945
f 940 	83 	946
f 461 	912 	943
f 944 	15 	945
f 58 	70 	988
f 943 	934 	457
f 932 	946 	15
f 945 	15 	946
f 943 	898 	934
f 927 	771 	976
f 940 	946 	932
f 944 	22 	15
f 898 	935 	934
f 955 	947 	942
f 935 	898 	902
f 902 	903 	936
f 936 	903 	939
f 950 	906 	844
f 951 	930 	929
f 953 	294 	291
f 949 	951 	929
f 953 	291 	344
f 952 	942 	1023
f 952 	955 	942
f 912 	914 	943
f 943 	914 	898
f 954 	948 	294
f 951 	968 	956
f 950 	947 	909
f 954 	166 	948
f 928 	842 	161
f 960 	344 	449
f 928 	871 	842
f 344 	960 	953
f 69 	533 	972
f 965 	970 	957
f 957 	970 	958
f 169 	961 	928
f 956 	524 	933
f 871 	928 	961
f 91 	166 	954
f 949 	976 	988
f 996 	71 	969
f 949 	998 	951
f 953 	963 	954
f 961 	231 	964
f 969 	71 	968
f 968 	69 	967
f 966 	967 	69
f 960 	963 	953
f 966 	956 	967
f 965 	957 	1010
f 963 	91 	954
f 967 	956 	968
f 955 	909 	947
f 950 	909 	931
f 962 	965 	1010
f 950 	931 	906
f 968 	951 	969
f 996 	969 	951
f 966 	69 	972
f 971 	960 	449
f 966 	972 	956
f 533 	524 	956
f 972 	533 	956
f 449 	451 	971
f 971 	973 	960
f 958 	348 	959
f 979 	849 	983
f 952 	977 	955
f 971 	975 	973
f 970 	348 	958
f 845 	974 	771
f 973 	963 	960
f 348 	350 	959
f 878 	848 	980
f 304 	91 	963
f 207 	208 	366
f 365 	1000 	364
f 1036 	212 	366
f 963 	973 	304
f 853 	974 	845
f 451 	455 	971
f 982 	58 	981
f 976 	771 	974
f 983 	58 	982
f 455 	975 	971
f 1044 	977 	952
f 962 	1038 	965
f 975 	1118 	973
f 970 	965 	469
f 994 	364 	1000
f 206 	365 	205
f 965 	1038 	469
f 973 	1118 	304
f 469 	471 	970
f 955 	978 	909
f 995 	364 	994
f 980 	849 	979
f 455 	1137 	975
f 878 	980 	853
f 455 	579 	1137
f 955 	977 	978
f 231 	248 	964
f 975 	1140 	1118
f 980 	979 	974
f 853 	980 	974
f 961 	964 	882
f 1000 	365 	206
f 1137 	1140 	975
f 984 	909 	978
f 425 	948 	985
f 882 	964 	891
f 981 	976 	982
f 425 	985 	437
f 982 	976 	983
f 974 	983 	976
f 437 	154 	439
f 248 	353 	964
f 979 	983 	974
f 471 	348 	970
f 981 	58 	988
f 931 	132 	39
f 981 	988 	976
f 931 	984 	132
f 997 	999 	827
f 949 	988 	987
f 990 	1006 	989
f 999 	1002 	827
f 989 	977 	990
f 986 	788 	580
f 992 	998 	949
f 987 	992 	949
f 1044 	1054 	977
f 990 	977 	991
f 1002 	802 	827
f 69 	968 	71
f 802 	803 	827
f 989 	1006 	995
f 977 	989 	995
f 998 	71 	996
f 992 	70 	998
f 987 	70 	992
f 994 	978 	995
f 977 	995 	978
f 996 	951 	998
f 978 	1000 	984
f 205 	984 	206
f 1000 	206 	984
f 978 	994 	1000
f 697 	700 	1003
f 984 	205 	208
f 580 	602 	1004
f 1007 	589 	586
f 1004 	986 	580
f 258 	1005 	256
f 986 	1008 	993
f 257 	1006 	1005
f 257 	1005 	258
f 1006 	257 	364
f 255 	364 	257
f 986 	1004 	1008
f 1007 	586 	1003
f 1009 	766 	490
f 993 	1010 	1001
f 993 	1008 	1010
f 1007 	1024 	1011
f 999 	1035 	1002
f 1139 	1001 	957
f 1012 	766 	1009
f 1010 	957 	1001
f 592 	1011 	1013
f 1009 	1019 	1012
f 1002 	780 	802
f 602 	1014 	1004
f 803 	802 	781
f 1012 	778 	768
f 1013 	772 	592
f 1013 	839 	772
f 840 	778 	1012
f 1014 	1015 	1004
f 778 	770 	768
f 18 	1003 	700
f 1003 	18 	23
f 1004 	1015 	1008
f 1003 	23 	1007
f 827 	1018 	1020
f 1015 	962 	1008
f 1021 	1022 	827
f 1024 	1007 	23
f 1012 	1019 	840
f 827 	1022 	997
f 1008 	962 	1010
f 1019 	942 	947
f 222 	336 	1016
f 1019 	947 	840
f 1016 	336 	1061
f 1091 	899 	1090
f 1092 	492 	1097
f 849 	980 	848
f 1016 	1061 	1017
f 564 	1029 	1014
f 1090 	899 	1093
f 58 	983 	849
f 1011 	1026 	1013
f 1067 	1020 	1018
f 1011 	1024 	1026
f 1015 	1031 	1034
f 1095 	493 	1094
f 1015 	1034 	962
f 1013 	1026 	1028
f 1029 	564 	302
f 302 	266 	1029
f 1024 	1093 	1026
f 1097 	493 	1095
f 1014 	1031 	1015
f 839 	1013 	1028
f 1029 	1031 	1014
f 1030 	1065 	1033
f 891 	964 	353
f 1035 	780 	1002
f 1023 	1033 	952
f 653 	1036 	277
f 653 	652 	1036
f 925 	1036 	652
f 1034 	1038 	962
f 1034 	1031 	271
f 74 	60 	236
f 73 	60 	74
f 72 	60 	73
f 59 	236 	60
f 1034 	271 	477
f 238 	59 	239
f 236 	59 	238
f 179 	239 	59
f 1032 	1039 	1041
f 1062 	1030 	1027
f 1029 	266 	268
f 1032 	1041 	1035
f 1031 	1029 	268
f 1035 	1043 	780
f 1031 	268 	271
f 1052 	1005 	1054
f 1038 	1034 	477
f 1035 	1041 	1043
f 1047 	498 	1046
f 1038 	478 	469
f 1054 	1006 	991
f 477 	478 	1038
f 1068 	1042 	1040
f 271 	244 	477
f 1046 	1065 	1047
f 1047 	1065 	1048
f 1046 	498 	1053
f 1053 	1005 	1052
f 991 	1006 	990
f 1050 	921 	1042
f 1105 	721 	722
f 1052 	1044 	1053
f 1053 	1044 	1065
f 1037 	722 	730
f 1037 	730 	1039
f 991 	977 	1054
f 1041 	1039 	654
f 76 	1050 	1042
f 1044 	1052 	1054
f 76 	77 	1050
f 730 	654 	1039
f 1041 	654 	658
f 1058 	710 	707
f 658 	1043 	1041
f 1025 	1177 	1057
f 1043 	661 	1045
f 1058 	707 	715
f 1056 	1059 	1049
f 1027 	1025 	1060
f 1058 	1079 	710
f 1043 	658 	661
f 1070 	502 	1074
f 364 	995 	1006
f 1049 	1059 	1076
f 1060 	1025 	1057
f 1048 	498 	1047
f 1062 	1027 	1060
f 715 	1096 	1058
f 503 	504 	1078
f 1078 	1073 	503
f 1017 	1063 	1018
f 1051 	959 	1055
f 959 	1051 	958
f 1017 	1061 	1063
f 668 	1055 	959
f 959 	350 	668
f 1066 	922 	1064
f 1065 	1030 	1062
f 1018 	1063 	1067
f 1055 	668 	1056
f 1064 	1083 	1066
f 1059 	1056 	670
f 1044 	952 	1033
f 1033 	1065 	1044
f 668 	670 	1056
f 1069 	1021 	1020
f 670 	671 	1059
f 1040 	1066 	1068
f 1071 	502 	1070
f 1072 	502 	1071
f 1070 	1057 	1071
f 1072 	1071 	1057
f 1069 	1020 	1067
f 1068 	76 	1042
f 1073 	1074 	503
f 502 	503 	1074
f 1021 	1069 	1075
f 1057 	1070 	1074
f 1073 	1060 	1074
f 1057 	1074 	1060
f 1077 	1062 	1078
f 1060 	1078 	1062
f 1075 	1022 	1021
f 1064 	710 	1079
f 1060 	1073 	1078
f 1082 	1022 	1075
f 1062 	1048 	1065
f 1079 	1083 	1064
f 1083 	1084 	1066
f 1062 	1077 	1048
f 1082 	997 	1022
f 1065 	1046 	1053
f 997 	1082 	1032
f 1068 	1066 	1084
f 1068 	98 	76
f 1082 	1039 	1032
f 1082 	1037 	1039
f 1084 	98 	1068
f 1032 	999 	997
f 1032 	1035 	999
f 1099 	494 	872
f 1122 	10 	1079
f 1083 	1079 	10
f 37 	899 	1091
f 38 	916 	37
f 737 	1063 	1061
f 1090 	1024 	1091
f 1091 	1024 	37
f 23 	37 	1024
f 10 	11 	1083
f 1083 	11 	1084
f 1093 	492 	1092
f 737 	740 	1063
f 1024 	1090 	1093
f 1067 	740 	742
f 1092 	1026 	1093
f 11 	126 	1084
f 1067 	742 	1069
f 1096 	715 	720
f 1094 	1028 	1095
f 1095 	1028 	1097
f 1026 	1097 	1028
f 1026 	1092 	1097
f 1080 	1104 	1081
f 1094 	493 	1099
f 154 	437 	985
f 1028 	1094 	1099
f 154 	158 	439
f 872 	851 	1099
f 1100 	499 	1088
f 439 	158 	12
f 31 	32 	924
f 30 	915 	35
f 985 	948 	166
f 678 	1087 	1085
f 32 	122 	924
f 1086 	501 	1101
f 1037 	1082 	1075
f 501 	1100 	1101
f 1086 	1101 	1102
f 1103 	1080 	1076
f 1086 	1102 	1009
f 1067 	1063 	740
f 1102 	1019 	1009
f 1103 	1076 	1059
f 1103 	1104 	1080
f 1103 	679 	1104
f 1069 	1105 	1075
f 1105 	1069 	742
f 1081 	1106 	1085
f 1037 	1075 	1105
f 1104 	1106 	1081
f 721 	1105 	742
f 1105 	722 	1037
f 1106 	678 	1085
f 1102 	942 	1019
f 1106 	684 	678
f 682 	684 	1106
f 1108 	1088 	1209
f 1110 	1100 	1088
f 678 	1256 	1087
f 1088 	1108 	1110
f 671 	1103 	1059
f 1100 	1110 	1111
f 1103 	671 	679
f 1229 	1107 	554
f 1111 	1101 	1100
f 679 	682 	1104
f 1111 	1023 	1101
f 1104 	682 	1106
f 1111 	1033 	1023
f 1109 	1231 	1129
f 1101 	1023 	1102
f 942 	1102 	1023
f 810 	788 	1112
f 166 	171 	985
f 19 	265 	551
f 1112 	141 	810
f 678 	684 	1113
f 1108 	1025 	1027
f 1108 	1027 	1110
f 265 	40 	551
f 551 	40 	553
f 1030 	1111 	1110
f 1114 	141 	1112
f 553 	42 	440
f 1110 	1027 	1030
f 40 	42 	553
f 1111 	1030 	1033
f 143 	1114 	1117
f 143 	1117 	145
f 1119 	219 	432
f 1098 	1096 	720
f 145 	1117 	1120
f 223 	219 	505
f 720 	724 	1098
f 684 	1107 	1113
f 1098 	13 	1096
f 219 	1119 	505
f 1117 	1139 	1120
f 1107 	1109 	1113
f 223 	505 	506
f 145 	1120 	148
f 1113 	1109 	1115
f 1120 	1121 	148
f 724 	731 	1098
f 1109 	1129 	1115
f 1098 	43 	13
f 1119 	507 	509
f 731 	43 	1098
f 1115 	1129 	1116
f 1119 	509 	505
f 148 	1121 	535
f 1058 	1122 	1079
f 1138 	516 	507
f 1122 	1058 	1096
f 1121 	1123 	535
f 13 	1122 	1096
f 422 	1126 	423
f 1122 	16 	10
f 13 	16 	1122
f 1121 	1055 	1123
f 1124 	1126 	422
f 1123 	1056 	1049
f 1055 	1056 	1123
f 1128 	423 	1126
f 1118 	315 	304
f 1128 	424 	423
f 788 	986 	1112
f 1130 	424 	1128
f 1125 	1116 	1131
f 1141 	315 	1118
f 1112 	986 	993
f 1129 	1131 	1116
f 1112 	993 	1114
f 65 	328 	338
f 1131 	1132 	1125
f 1130 	432 	424
f 1001 	1117 	1114
f 1130 	1119 	432
f 65 	371 	328
f 1138 	1130 	1128
f 1114 	993 	1001
f 65 	338 	1160
f 49 	1133 	1124
f 1121 	1120 	1051
f 1160 	89 	65
f 1133 	1126 	1124
f 854 	855 	346
f 833 	834 	345
f 1051 	1055 	1121
f 1134 	793 	251
f 180 	251 	793
f 251 	250 	1135
f 251 	1135 	1134
f 1128 	1126 	1136
f 345 	1135 	2
f 250 	2 	1135
f 1126 	1133 	1136
f 1128 	1136 	1138
f 579 	672 	1137
f 1130 	507 	1119
f 347 	858 	346
f 1001 	1139 	1117
f 1130 	1138 	507
f 1051 	1120 	1139
f 904 	905 	361
f 1139 	957 	958
f 1140 	1141 	1118
f 1139 	958 	1051
f 1133 	1163 	1136
f 905 	900 	361
f 1140 	1146 	1141
f 1144 	1146 	1140
f 1138 	1164 	516
f 537 	535 	1123
f 349 	315 	1141
f 519 	516 	1164
f 1144 	1140 	1137
f 1123 	1049 	537
f 1164 	1168 	519
f 1144 	1137 	672
f 537 	1049 	1142
f 1142 	1076 	1143
f 1145 	519 	1168
f 1145 	522 	519
f 1049 	1076 	1142
f 1146 	1147 	1141
f 1076 	1080 	1143
f 1146 	1155 	1147
f 1145 	1205 	1206
f 349 	1141 	1147
f 1148 	1080 	1081
f 1206 	522 	1145
f 49 	1149 	1133
f 672 	800 	1144
f 1149 	49 	54
f 1144 	804 	1146
f 54 	62 	1153
f 800 	804 	1144
f 1153 	1149 	54
f 804 	1155 	1146
f 1080 	1148 	1143
f 1155 	134 	1147
f 1148 	1081 	1150
f 1158 	1153 	62
f 1081 	1085 	1150
f 804 	814 	1155
f 1150 	1085 	1151
f 867 	134 	1155
f 1151 	1087 	1152
f 814 	867 	1155
f 1085 	1087 	1151
f 1169 	1166 	1153
f 1087 	1089 	1152
f 352 	1165 	1159
f 1089 	1154 	1152
f 1212 	1213 	1157
f 1213 	1158 	1157
f 1149 	1163 	1133
f 1136 	1164 	1138
f 1136 	1163 	1164
f 1162 	1165 	352
f 1166 	1163 	1149
f 1165 	1167 	1159
f 1149 	1153 	1166
f 1163 	1166 	1168
f 1163 	1168 	1164
f 1159 	1167 	1160
f 1167 	1215 	1160
f 141 	1114 	143
f 1153 	1158 	1169
f 1160 	1215 	89
f 1161 	354 	349
f 1166 	1170 	1168
f 1161 	349 	1147
f 1166 	1169 	1170
f 1161 	1172 	1162
f 1168 	1170 	1145
f 1158 	1214 	1169
f 863 	865 	1165
f 33 	1170 	1169
f 1169 	1214 	33
f 1167 	1165 	865
f 134 	1161 	1147
f 1172 	1161 	134
f 1171 	1175 	1173
f 863 	1162 	1172
f 1171 	1174 	1175
f 868 	1172 	134
f 869 	863 	1172
f 1165 	1162 	863
f 1125 	1132 	1127
f 1176 	1173 	1175
f 1231 	1232 	1129
f 1129 	1232 	1131
f 1198 	1176 	1175
f 1176 	1199 	1177
f 903 	921 	1180
f 1182 	1197 	1183
f 903 	1180 	1178
f 1178 	1184 	1179
f 1180 	1184 	1178
f 1184 	1187 	1179
f 1190 	1226 	1193
f 14 	1193 	1188
f 1194 	1195 	25
f 1188 	1189 	1225
f 21 	1226 	20
f 20 	1190 	14
f 24 	1191 	1192
f 1193 	24 	1192
f 1191 	1188 	1192
f 1193 	1192 	1188
f 1190 	1193 	14
f 1191 	24 	1195
f 24 	25 	1195
f 1191 	1195 	1188
f 1194 	1189 	1195
f 1188 	1195 	1189
f 1183 	1197 	1196
f 1194 	1196 	1189
f 25 	582 	1196
f 498 	1048 	504
f 1077 	504 	1048
f 1196 	582 	1183
f 1183 	582 	1182
f 1196 	1194 	25
f 1189 	1174 	1225
f 1197 	1174 	1189
f 1197 	1175 	1174
f 1182 	582 	1181
f 1197 	1198 	1175
f 1189 	1196 	1197
f 1185 	583 	1201
f 1203 	581 	1202
f 1198 	1199 	1176
f 1204 	581 	1072
f 1177 	1199 	1057
f 1202 	581 	1204
f 1204 	1072 	1199
f 1181 	1197 	1182
f 1201 	583 	1200
f 1186 	583 	1185
f 1181 	582 	1186
f 1197 	1181 	1186
f 1200 	1198 	1201
f 1185 	1198 	1186
f 1201 	1198 	1185
f 1197 	1186 	1198
f 1200 	583 	1203
f 1198 	1200 	1203
f 1198 	1203 	1199
f 1202 	1199 	1203
f 1057 	1199 	1072
f 1204 	1199 	1202
f 1170 	1205 	1145
f 1077 	1078 	504
f 33 	1205 	1170
f 1205 	1208 	1206
f 1006 	1054 	1005
f 1207 	1205 	33
f 33 	36 	1207
f 1005 	1053 	498
f 1208 	1205 	1207
f 1206 	1208 	1209
f 1209 	585 	1206
f 585 	1088 	499
f 1088 	585 	1209
f 1207 	36 	1173
f 1208 	1207 	1210
f 1207 	1173 	1210
f 1208 	1211 	1209
f 1208 	1210 	1211
f 1108 	1209 	1211
f 1173 	1176 	1210
f 1210 	1176 	1177
f 1210 	1177 	1211
f 1025 	1108 	1211
f 1177 	1025 	1211
f 67 	89 	1212
f 1157 	67 	1212
f 89 	1216 	1212
f 1214 	1158 	1213
f 1216 	1217 	1212
f 1220 	1221 	1216
f 1216 	1221 	1217
f 1212 	1217 	1213
f 1213 	1218 	1214
f 1213 	1217 	1218
f 1214 	1218 	36
f 1214 	36 	33
f 1167 	1219 	1215
f 1218 	1217 	1222
f 1217 	1221 	1222
f 1167 	865 	1219
f 1219 	1220 	1215
f 1219 	1223 	1220
f 1220 	1216 	1215
f 1218 	1171 	36
f 1222 	1171 	1218
f 1171 	1173 	36
f 1219 	865 	877
f 877 	1223 	1219
f 1220 	1224 	1221
f 1223 	1224 	1220
f 1224 	1225 	1221
f 1221 	1225 	1222
f 1222 	1174 	1171
f 1225 	1174 	1222
f 15 	1223 	877
f 1224 	1223 	14
f 15 	14 	1223
f 14 	1188 	1224
f 1224 	1188 	1225
f 1226 	21 	84
f 84 	86 	269
f 84 	269 	1226
f 26 	24 	1226
f 26 	1226 	269
f 877 	932 	15
f 24 	1193 	1226
f 20 	1226 	1190
f 921 	1050 	1180
f 1050 	1227 	1180
f 1180 	1227 	1184
f 1184 	1228 	1187
f 1227 	1228 	1184
f 1228 	1236 	1187
f 1227 	1050 	77
f 77 	275 	1227
f 1227 	275 	1228
f 1228 	285 	1236
f 275 	285 	1228
f 554 	939 	1229
f 1230 	1109 	1107
f 1229 	1230 	1107
f 1230 	1231 	1109
f 1231 	1234 	1232
f 939 	1178 	1229
f 939 	903 	1178
f 1178 	1179 	1229
f 1229 	1179 	1230
f 1231 	1230 	1233
f 1230 	1179 	1233
f 1233 	1234 	1231
f 1179 	1187 	1233
f 1127 	1132 	1235
f 1132 	1238 	1235
f 285 	289 	1236
f 1237 	1132 	1131
f 1131 	1232 	1237
f 1237 	1238 	1132
f 1235 	1239 	55
f 1238 	1239 	1235
f 1239 	151 	55
f 1240 	1237 	1232
f 1234 	1240 	1232
f 1240 	1241 	1237
f 1237 	1241 	1238
f 1238 	1242 	1239
f 1241 	1242 	1238
f 1242 	1243 	1239
f 1239 	1243 	151
f 1243 	168 	151
f 1234 	1245 	1240
f 1243 	429 	168
f 1233 	1187 	1244
f 1244 	1234 	1233
f 1244 	1245 	1234
f 1241 	1240 	1246
f 1240 	1245 	1246
f 1246 	1247 	1241
f 1242 	1241 	1247
f 1247 	1248 	1242
f 1242 	1248 	1243
f 1248 	429 	1243
f 1236 	1244 	1187
f 1236 	1249 	1244
f 1236 	289 	1249
f 1244 	1249 	1245
f 1246 	1245 	1250
f 1249 	1250 	1245
f 1250 	1251 	1246
f 1247 	1246 	1251
f 1247 	425 	1248
f 1251 	425 	1247
f 1249 	291 	1250
f 289 	291 	1249
f 291 	294 	1250
f 1250 	294 	1251
f 294 	948 	1251
f 1251 	948 	425
f 1154 	1089 	1252
f 1258 	1259 	1253
f 1253 	1259 	1254
f 1256 	1257 	1089
f 1089 	1087 	1256
f 1256 	1115 	1257
f 1252 	1089 	1257
f 1258 	1253 	1252
f 1257 	1258 	1252
f 1113 	1256 	678
f 1113 	1115 	1256
f 1257 	1116 	1258
f 1115 	1116 	1257
f 1259 	1258 	1125
f 1258 	1116 	1125
f 1254 	1260 	1255
f 1254 	1259 	1260
f 1260 	1261 	1255
f 1260 	1263 	1261
f 1259 	1125 	1127
f 1127 	1260 	1259
f 1260 	1127 	1263
f 1263 	1264 	1261
f 1261 	1264 	1262
f 1262 	53 	50
f 1264 	53 	1262
f 53 	66 	50
f 1127 	1235 	1263
f 1235 	55 	1263
f 1263 	55 	1264
f 1264 	56 	53
f 55 	56 	1264
f 1154 	1252 	1156
f 1253 	1156 	1252
f 1156 	1253 	1265
f 1253 	1254 	1265
f 1265 	1254 	1266
f 1254 	1255 	1266
f 1266 	1255 	1267
f 1255 	1268 	1267
f 1255 	1261 	1268
f 1262 	1269 	1268
f 1261 	1262 	1268
f 1268 	1271 	1267
f 1268 	1269 	1271
f 1271 	1269 	1272
f 1273 	1272 	1270
f 1269 	1270 	1272
f 1273 	1277 	1274
f 1277 	1273 	1270
f 1278 	1275 	1274
f 1277 	1278 	1274
f 1276 	263 	186
f 45 	1275 	1278
f 46 	1278 	1277
f 1278 	44 	45
f 46 	44 	1278
f 1275 	45 	1276
f 45 	263 	1276
f 50 	1269 	1262
f 50 	1270 	1269
f 1277 	1270 	1279
f 50 	1279 	1270
f 1279 	46 	1277
f 1279 	68 	46
# 2554 faces

 #end of obj_0

