# Torre sólida com base fechada e dentes da coroa com altura reduzida em 50%

v 0.350000 0.000000 0.000000
v 0.332870 0.000000 0.108156
v 0.283156 0.000000 0.205725
v 0.205725 0.000000 0.283156
v 0.108156 0.000000 0.332870
v -0.000000 0.000000 0.350000
v -0.108156 0.000000 0.332870
v -0.205725 0.000000 0.283156
v -0.283156 0.000000 0.205725
v -0.332870 0.000000 0.108156
v -0.350000 0.000000 -0.000000
v -0.332870 0.000000 -0.108156
v -0.283156 0.000000 -0.205725
v -0.205725 0.000000 -0.283156
v -0.108156 0.000000 -0.332870
v 0.000000 0.000000 -0.350000
v 0.108156 0.000000 -0.332870
v 0.205725 0.000000 -0.283156
v 0.283156 0.000000 -0.205725
v 0.332870 0.000000 -0.108156
v 0.180000 0.800000 0.000000
v 0.171190 0.800000 0.055623
v 0.145623 0.800000 0.105801
v 0.105801 0.800000 0.145623
v 0.055623 0.800000 0.171190
v -0.000000 0.800000 0.180000
v -0.055623 0.800000 0.171190
v -0.105801 0.800000 0.145623
v -0.145623 0.800000 0.105801
v -0.171190 0.800000 0.055623
v -0.180000 0.800000 -0.000000
v -0.171190 0.800000 -0.055623
v -0.145623 0.800000 -0.105801
v -0.105801 0.800000 -0.145623
v -0.055623 0.800000 -0.171190
v 0.000000 0.800000 -0.180000
v 0.055623 0.800000 -0.171190
v 0.105801 0.800000 -0.145623
v 0.145623 0.800000 -0.105801
v 0.171190 0.800000 -0.055623

v 0.190000 0.680000 0.000000
v 0.180701 0.680000 0.058713
v 0.153713 0.680000 0.111679
v 0.111679 0.680000 0.153713
v 0.058713 0.680000 0.180701
v -0.000000 0.680000 0.190000
v -0.058713 0.680000 0.180701
v -0.111679 0.680000 0.153713
v -0.153713 0.680000 0.111679
v -0.180701 0.680000 0.058713
v -0.190000 0.680000 -0.000000
v -0.180701 0.680000 -0.058713
v -0.153713 0.680000 -0.111679
v -0.111679 0.680000 -0.153713
v -0.058713 0.680000 -0.180701
v 0.000000 0.680000 -0.190000
v 0.058713 0.680000 -0.180701
v 0.111679 0.680000 -0.153713
v 0.153713 0.680000 -0.111679
v 0.180701 0.680000 -0.058713
v 0.230000 0.780000 0.000000
v 0.218743 0.780000 0.071074
v 0.186074 0.780000 0.135191
v 0.135191 0.780000 0.186074
v 0.071074 0.780000 0.218743
v -0.000000 0.780000 0.230000
v -0.071074 0.780000 0.218743
v -0.135191 0.780000 0.186074
v -0.186074 0.780000 0.135191
v -0.218743 0.780000 0.071074
v -0.230000 0.780000 -0.000000
v -0.218743 0.780000 -0.071074
v -0.186074 0.780000 -0.135191
v -0.135191 0.780000 -0.186074
v -0.071074 0.780000 -0.218743
v 0.000000 0.780000 -0.230000
v 0.071074 0.780000 -0.218743
v 0.135191 0.780000 -0.186074
v 0.186074 0.780000 -0.135191
v 0.218743 0.780000 -0.071074
v 0.220000 0.800000 0.000000
v 0.209232 0.800000 0.067984
v 0.209232 0.925000 0.067984
v 0.220000 0.925000 0.000000
v 0.155563 0.800000 0.155563
v 0.099878 0.800000 0.196021
v 0.099878 0.925000 0.196021
v 0.155563 0.925000 0.155563
v -0.000000 0.800000 0.220000
v -0.067984 0.800000 0.209232
v -0.067984 0.925000 0.209232
v -0.000000 0.925000 0.220000
v -0.155563 0.800000 0.155563
v -0.196021 0.800000 0.099878
v -0.196021 0.925000 0.099878
v -0.155563 0.925000 0.155563
v -0.220000 0.800000 -0.000000
v -0.209232 0.800000 -0.067984
v -0.209232 0.925000 -0.067984
v -0.220000 0.925000 -0.000000
v -0.155564 0.800000 -0.155563
v -0.099878 0.800000 -0.196021
v -0.099878 0.925000 -0.196021
v -0.155564 0.925000 -0.155563
v 0.000000 0.800000 -0.220000
v 0.067984 0.800000 -0.209232
v 0.067984 0.925000 -0.209232
v 0.000000 0.925000 -0.220000
v 0.155563 0.800000 -0.155564
v 0.196021 0.800000 -0.099878
v 0.196021 0.925000 -0.099878
v 0.155563 0.925000 -0.155564
f 1 2 22 21
f 2 3 23 22
f 3 4 24 23
f 4 5 25 24
f 5 6 26 25
f 6 7 27 26
f 7 8 28 27
f 8 9 29 28
f 9 10 30 29
f 10 11 31 30
f 11 12 32 31
f 12 13 33 32
f 13 14 34 33
f 14 15 35 34
f 15 16 36 35
f 16 17 37 36
f 17 18 38 37
f 18 19 39 38
f 19 20 40 39
f 20 1 21 40

f 41 42 62 61
f 42 43 63 62
f 43 44 64 63
f 44 45 65 64
f 45 46 66 65
f 46 47 67 66
f 47 48 68 67
f 48 49 69 68
f 49 50 70 69
f 50 51 71 70
f 51 52 72 71
f 52 53 73 72
f 53 54 74 73
f 54 55 75 74
f 55 56 76 75
f 56 57 77 76
f 57 58 78 77
f 58 59 79 78
f 59 60 80 79
f 60 41 61 80
v 0.0 0.0 0.0
f 81 2 1
f 81 3 2
f 81 4 3
f 81 5 4
f 81 6 5
f 81 7 6
f 81 8 7
f 81 9 8
f 81 10 9
f 81 11 10
f 81 12 11
f 81 13 12
f 81 14 13
f 81 15 14
f 81 16 15
f 81 17 16
f 81 18 17
f 81 19 18
f 81 20 19
f 81 1 20
f 82 83 84 85
f 86 87 88 89
f 90 91 92 93
f 94 95 96 97
f 98 99 100 101
f 102 103 104 105
f 106 107 108 109
f 110 111 112 113
